<svg width="24" height="24" viewBox="0 0 24 24" fill="none" xmlns="http://www.w3.org/2000/svg">
<path d="M5 12.5858V12C5 8.13401 8.13401 5 12 5C15.866 5 19 8.13401 19 12C19 15.866 15.866 19 12 19C11.4477 19 11 19.4477 11 20C11 20.5523 11.4477 21 12 21C16.9706 21 21 16.9706 21 12C21 7.02944 16.9706 3 12 3C7.02944 3 3 7.02944 3 12V12.5858L1.70711 11.2929C1.31658 10.9024 0.683418 10.9024 0.292893 11.2929C-0.0976311 11.6834 -0.0976311 12.3166 0.292893 12.7071L4 16.4142L7.70711 12.7071C8.09763 12.3166 8.09763 11.6834 7.70711 11.2929C7.31658 10.9024 6.68342 10.9024 6.29289 11.2929L5 12.5858Z" fill="#050038"/>
</svg>
