<svg id="Layer_1" data-name="Layer 1" xmlns="http://www.w3.org/2000/svg" viewBox="0 0 48 48">
  <defs>
    <style>
      .cls-1 {
        fill: #fff9df;
      }

      .cls-2 {
        fill: #3e52d8;
      }

      .cls-3 {
        fill: none;
      }

      .cls-4 {
        fill: #050039;
      }

      .cls-5 {
        fill: #ffd02f;
      }

      .cls-6 {
        fill: #ff6474;
      }
    </style>
  </defs>
  <title>Artboard 1</title>
  <rect class="cls-1" x="22" y="2" width="24" height="36" rx="2.7619" ry="2.7619"/>
  <path class="cls-2" d="M46.01,0H21.99A1.99,1.99,0,0,0,20,1.99V8h3V3H45V37H28v3H46.01A1.99,1.99,0,0,0,48,38.01h0V1.99A1.99,1.99,0,0,0,46.01,0Z"/>
  <path class="cls-3" d="M26.01,8H1.99A1.99,1.99,0,0,0,0,9.99V46.01A1.99,1.99,0,0,0,1.99,48H26.01A1.99,1.99,0,0,0,28,46.01h0V9.99A1.99,1.99,0,0,0,26.01,8Z"/>
  <path class="cls-2" d="M26.01,8H1.99A1.99,1.99,0,0,0,0,9.99V46.01A1.99,1.99,0,0,0,1.99,48H26.01A1.99,1.99,0,0,0,28,46.01h0V9.99A1.99,1.99,0,0,0,26.01,8Z"/>
  <path class="cls-4" d="M.58,24.0005c-.1944-.0013-.3864.0074-.58.0107V46.01A1.99,1.99,0,0,0,1.99,48H24.6346A24.2268,24.2268,0,0,0,.58,24.0005Z"/>
  <path class="cls-5" d="M.2225,33.33c-.0752,0-.1477.01-.2225.0112V46.01A1.99,1.99,0,0,0,1.99,48h13.3A15.0792,15.0792,0,0,0,.2225,33.33Z"/>
  <path class="cls-6" d="M26.01,8H12.4214A15.7832,15.7832,0,0,0,28,23.579V9.99A1.99,1.99,0,0,0,26.01,8Z"/>
</svg>
