<svg id="Layer_1" data-name="Layer 1" xmlns="http://www.w3.org/2000/svg" viewBox="0 0 80 120">
  <defs>
    <style>
      .cls-1 {
        fill: #3e52d8;
      }

      .cls-2 {
        fill: #ff6474;
      }

      .cls-3 {
        fill: #ffd02f;
      }

      .cls-4 {
        fill: #050039;
      }

      .cls-5 {
        fill: #fff9df;
      }

      .cls-6 {
        fill: #fff;
      }

      .cls-7 {
        fill: #1d2860;
      }
    </style>
  </defs>
  <title>back2</title>
  <rect class="cls-1" x="3.7083" y="4.7321" width="72.625" height="111.9676"/>
  <path class="cls-2" d="M75,39.5187a34.786,34.786,0,1,1,0-.0025Z"/>
  <rect class="cls-3" x="4.9825" y="4.7321" width="34.7873" height="69.5715"/>
  <path class="cls-4" d="M22.5406,4.8445S59.2812,37.23,22.4414,74.3058Z"/>
  <path class="cls-1" d="M22.5406,4.8445s-36.8311,32.2791-.0968,69.46Z"/>
  <path class="cls-5" d="M4.9978,74.3058v.0019A35.0012,35.0012,0,0,0,75,74.3116v-.0058Z"/>
  <g>
    <path class="cls-6" d="M70.0039,5.0049A5.0009,5.0009,0,0,1,75,9.9994V110.0105a5.0009,5.0009,0,0,1-4.9961,4.9944H9.9961A5.0009,5.0009,0,0,1,5,110.0105V9.9994A5.0009,5.0009,0,0,1,9.9961,5.0049H70.0039m0-5H9.9961A9.9953,9.9953,0,0,0,0,9.9994V110.0105a9.9952,9.9952,0,0,0,9.9961,9.9944H70.0039A9.9952,9.9952,0,0,0,80,110.0105V9.9994A9.9953,9.9953,0,0,0,70.0039.0049Z"/>
    <path class="cls-7" d="M70.0039,1.9951A8.0043,8.0043,0,0,1,78,9.99V110.0006a8.0043,8.0043,0,0,1-7.9961,7.9945H9.9961A8.0043,8.0043,0,0,1,2,110.0006V9.99A8.0043,8.0043,0,0,1,9.9961,1.9951H70.0039m0-2H9.9961A9.9952,9.9952,0,0,0,0,9.99V110.0006a9.9953,9.9953,0,0,0,9.9961,9.9945H70.0039A9.9953,9.9953,0,0,0,80,110.0006V9.99A9.9952,9.9952,0,0,0,70.0039-.0049Z"/>
  </g>
</svg>
