<svg id="Layer_1" data-name="Layer 1" xmlns="http://www.w3.org/2000/svg" viewBox="0 0 80 120">
  <defs>
    <style>
      .cls-1 {
        fill: #fff9df;
      }

      .cls-2 {
        fill: #ff6474;
      }

      .cls-3 {
        fill: #050039;
      }

      .cls-4 {
        fill: #fff;
      }

      .cls-5 {
        fill: #1d2860;
      }
    </style>
  </defs>
  <title>back3</title>
  <rect class="cls-1" x="4.6837" y="2.9497" width="70.7538" height="113.75"/>
  <path class="cls-2" d="M4.9757,49.0251s2.8966,30.3972,35.0088,25.08Z"/>
  <path class="cls-3" d="M4.9757,49.0251S34.67,41.9761,39.9845,74.1044Z"/>
  <path class="cls-2" d="M74.9934,49.0251S72.0969,79.4214,39.9845,74.1044Z"/>
  <path class="cls-3" d="M74.9934,49.0251S45.3,41.9761,39.9856,74.1044Z"/>
  <path class="cls-2" d="M4.9757,19.0865s2.8966,30.3971,35.0088,25.08Z"/>
  <path class="cls-3" d="M4.9757,19.0865S34.67,12.0375,39.9845,44.1658Z"/>
  <path class="cls-2" d="M74.9934,19.0865S72.0969,49.4828,39.9845,44.1658Z"/>
  <path class="cls-3" d="M74.9934,19.0865S45.3,12.0375,39.9856,44.1658Z"/>
  <path class="cls-2" d="M4.9757,77.683s2.8966,30.3973,35.0088,25.08Z"/>
  <path class="cls-3" d="M4.9757,77.683s29.6938-7.0479,35.0088,25.08Z"/>
  <path class="cls-2" d="M74.9934,77.683s-2.8965,30.3973-35.0089,25.08Z"/>
  <path class="cls-3" d="M74.9934,77.683S45.3,70.6351,39.9856,102.7634Z"/>
  <rect class="cls-3" x="39.3451" y="4.4914" width="1.2793" height="110.7721"/>
  <g>
    <path class="cls-4" d="M70.0039,5.0049A5.0009,5.0009,0,0,1,75,9.9994V110.0105a5.0009,5.0009,0,0,1-4.9961,4.9944H9.9961A5.0009,5.0009,0,0,1,5,110.0105V9.9994A5.0009,5.0009,0,0,1,9.9961,5.0049H70.0039m0-5H9.9961A9.9953,9.9953,0,0,0,0,9.9994V110.0105a9.9952,9.9952,0,0,0,9.9961,9.9944H70.0039A9.9952,9.9952,0,0,0,80,110.0105V9.9994A9.9953,9.9953,0,0,0,70.0039.0049Z"/>
    <path class="cls-5" d="M70.0039,1.9951A8.0043,8.0043,0,0,1,78,9.99V110.0006a8.0043,8.0043,0,0,1-7.9961,7.9945H9.9961A8.0043,8.0043,0,0,1,2,110.0006V9.99A8.0043,8.0043,0,0,1,9.9961,1.9951H70.0039m0-2H9.9961A9.9952,9.9952,0,0,0,0,9.99V110.0006a9.9953,9.9953,0,0,0,9.9961,9.9945H70.0039A9.9953,9.9953,0,0,0,80,110.0006V9.99A9.9952,9.9952,0,0,0,70.0039-.0049Z"/>
  </g>
</svg>
