<svg id="Layer_1" data-name="Layer 1" xmlns="http://www.w3.org/2000/svg" viewBox="0 0 80 120">
  <defs>
    <style>
      .cls-1 {
        fill: #3e52d8;
      }

      .cls-2 {
        fill: #ffd02f;
      }

      .cls-3 {
        fill: #ff6474;
      }

      .cls-4 {
        fill: #fff9df;
      }

      .cls-5 {
        fill: #050039;
      }

      .cls-6 {
        fill: #fff;
      }

      .cls-7 {
        fill: #1d2860;
      }
    </style>
  </defs>
  <title>back4</title>
  <rect class="cls-1" x="5.0208" y="5.0135" width="70.1018" height="70.1018"/>
  <rect class="cls-2" x="5.0208" y="75.1147" width="70.1018" height="41.2517"/>
  <polyline class="cls-3" points="5.021 5.014 5.021 75.115 75.123 75.115"/>
  <polyline class="cls-4" points="16.705 16.698 16.705 63.431 63.439 63.431"/>
  <polyline class="cls-5" points="24.74 24.731 24.74 55.4 55.406 55.4"/>
  <g>
    <path class="cls-6" d="M70.0248,5.0049a5.0009,5.0009,0,0,1,4.996,4.9945V110.0105a5.0009,5.0009,0,0,1-4.996,4.9944H10.0169a5.001,5.001,0,0,1-4.9961-4.9944V9.9994a5.001,5.001,0,0,1,4.9961-4.9945H70.0248m0-5H10.0169A9.9954,9.9954,0,0,0,.0208,9.9994V110.0105a9.9953,9.9953,0,0,0,9.9961,9.9944H70.0248a9.9952,9.9952,0,0,0,9.996-9.9944V9.9994A9.9953,9.9953,0,0,0,70.0248.0049Z"/>
    <path class="cls-7" d="M70.0247,1.9951A8.0043,8.0043,0,0,1,78.0208,9.99V110.0006a8.0043,8.0043,0,0,1-7.9961,7.9945H10.0169a8.0044,8.0044,0,0,1-7.9961-7.9945V9.99a8.0044,8.0044,0,0,1,7.9961-7.9944H70.0247m0-2H10.0169A9.9953,9.9953,0,0,0,.0208,9.99V110.0006a9.9954,9.9954,0,0,0,9.9961,9.9945H70.0247a9.9953,9.9953,0,0,0,9.9961-9.9945V9.99A9.9952,9.9952,0,0,0,70.0247-.0049Z"/>
  </g>
</svg>
