<svg id="Layer_1" data-name="Layer 1" xmlns="http://www.w3.org/2000/svg" viewBox="0 0 120 180">
  <defs>
    <style>
      .cls-1 {
        fill: #ffd02f;
      }

      .cls-2 {
        opacity: 0.2;
      }

      .cls-3 {
        fill: #3d3d3d;
      }

      .cls-4 {
        fill: #fff;
      }

      .cls-5 {
        fill: #050039;
      }
    </style>
  </defs>
  <title>facequestion</title>
  <rect class="cls-1" x="-27.3761" y="33.3322" width="172.5628" height="111.9133" rx="17.5275" ry="17.5275" transform="translate(148.1941 30.3834) rotate(90)"/>
  <g class="cls-2">
    <g>
      <path class="cls-3" d="M55.4543,101.64c-.41-9.8873,6.7749-10.62,8.2335-16.3477l0-.0028c.5727-4.3243-2.2406-6.5648-5.6281-6.5648a5.6912,5.6912,0,0,0-5.6781,4.9388.0133.0133,0,0,1-.013.0117H47.34a.0146.0146,0,0,1-.0142-.015c.2666-6.92,4.6421-10.2507,10.6828-10.2507,5.7324-.1564,10.63,3.1265,11.4638,8.0251a11.0384,11.0384,0,0,1,.1046,3.4392c-.8329,6.9273-8.3815,8.024-8.1819,16.766a.0136.0136,0,0,1-.0134.0141H55.4684A.0145.0145,0,0,1,55.4543,101.64Zm-.52,6.9186A3.236,3.236,0,0,1,58.41,105.38a3.3272,3.3272,0,0,1,3.3775,3.5936,3.1948,3.1948,0,0,1-3.3623,2.764A3.27,3.27,0,0,1,54.9342,108.5583Z"/>
      <path class="cls-3" d="M58.4259,112.1756a3.7,3.7,0,0,1-3.9306-3.6172,3.6589,3.6589,0,0,1,3.9131-3.6172h.0136a3.8979,3.8979,0,0,1,2.9073,1.3086,3.5065,3.5065,0,0,1,.8945,2.7764A3.6376,3.6376,0,0,1,58.4259,112.1756Zm-.0039-6.3574h-.01a2.814,2.814,0,0,0-3.04,2.74,2.8452,2.8452,0,0,0,3.0537,2.74,2.7517,2.7517,0,0,0,2.9268-2.378,2.6376,2.6376,0,0,0-.6787-2.0879A3.0172,3.0172,0,0,0,58.422,105.8182Zm2.96-3.7266H55.4679a.4631.4631,0,0,1-.4521-.4336h0c-.2578-6.2138,2.44-8.97,4.82-11.4023,1.4844-1.5156,2.8857-2.9483,3.4267-5.0723a4.9259,4.9259,0,0,0-5.2021-6.0205,5.2411,5.2411,0,0,0-5.2441,4.5586.4615.4615,0,0,1-.4473.3916H47.34a.4638.4638,0,0,1-.4531-.4531c.2578-6.7,4.415-10.6895,11.122-10.6895,6.0235-.1972,11.0411,3.3633,11.8965,8.3907a11.3993,11.3993,0,0,1,.1055,3.5781c-.39,3.24-2.2207,5.2861-3.9922,7.2637-2.1094,2.3554-4.291,4.791-4.1855,9.4267a.45.45,0,0,1-.4512.4619Zm-5.4893-.4521h0Zm-.0127-.4248h5.0752c.0362-4.7139,2.2578-7.1953,4.41-9.5977,1.7578-1.9629,3.418-3.8164,3.7764-6.7959a10.5776,10.5776,0,0,0-.1016-3.3144c-.7813-4.5909-5.4365-7.8555-11.0195-7.6592-6.1329,0-9.8379,3.414-10.2334,9.3887h4.22a6.1146,6.1146,0,0,1,6.0537-4.95,5.7966,5.7966,0,0,1,6.0625,7.0605c-.6094,2.4063-2.0908,3.92-3.66,5.5234C58.1535,93.23,55.7658,95.67,55.88,101.2147Z"/>
    </g>
  </g>
  <path class="cls-4" d="M19.7889,31.3822c-.2269-5.3839,3.6838-5.7807,4.4769-8.8976a2.9166,2.9166,0,0,0-3.06-3.57,3.0946,3.0946,0,0,0-3.0884,2.6918h-2.749c.1419-3.7685,2.5222-5.5821,5.8092-5.5821,3.1171-.085,5.7805,1.7,6.2336,4.3638a6.002,6.002,0,0,1,.0569,1.87c-.4532,3.7689-4.562,4.3638-4.4488,9.1244Zm-.2832,4.23a1.7609,1.7609,0,0,1,1.8985-1.7285,1.732,1.732,0,1,1,0,3.4571A1.7779,1.7779,0,0,1,19.5057,35.6124Z"/>
  <path class="cls-4" d="M96.8092,158.68c-.2268-5.384,3.6838-5.7808,4.4769-8.8976a2.9166,2.9166,0,0,0-3.06-3.57,3.0946,3.0946,0,0,0-3.0884,2.6918H92.3886c.1418-3.7686,2.5221-5.5821,5.8091-5.5821,3.1171-.085,5.7805,1.7,6.2337,4.3638a6.0049,6.0049,0,0,1,.0568,1.87c-.4531,3.7689-4.5619,4.3638-4.4488,9.1244Zm-.2831,4.23a1.7609,1.7609,0,0,1,1.8985-1.7285,1.732,1.732,0,1,1,0,3.457A1.7778,1.7778,0,0,1,96.5261,162.91Z"/>
  <g>
    <path class="cls-4" d="M104.9546,7.53a7.5014,7.5014,0,0,1,7.4941,7.4917V165.0379a7.5013,7.5013,0,0,1-7.4941,7.4916H14.9428a7.5013,7.5013,0,0,1-7.4941-7.4916V15.0212A7.5014,7.5014,0,0,1,14.9428,7.53h90.0118m0-7.5H14.9428A14.9929,14.9929,0,0,0-.0513,15.0212V165.0379A14.9929,14.9929,0,0,0,14.9428,180.03h90.0118a14.9929,14.9929,0,0,0,14.9941-14.9916V15.0212A14.9929,14.9929,0,0,0,104.9546.03Z"/>
    <path class="cls-5" d="M104.9546,3.0148a12.0064,12.0064,0,0,1,11.9941,11.9916V165.0231a12.0065,12.0065,0,0,1-11.9941,11.9917H14.9429A12.0066,12.0066,0,0,1,2.9487,165.0231V15.0064A12.0065,12.0065,0,0,1,14.9429,3.0148h90.0117m0-3H14.9429A14.9929,14.9929,0,0,0-.0513,15.0064V165.0231a14.993,14.993,0,0,0,14.9942,14.9917h90.0117a14.993,14.993,0,0,0,14.9941-14.9917V15.0064A14.9929,14.9929,0,0,0,104.9546.0148Z"/>
  </g>
  <g>
    <path class="cls-4" d="M58.5791,98.9141c-.41-9.8873,6.7749-10.62,8.2335-16.3477l.0006-.0028c.5726-4.3242-2.2406-6.5647-5.6281-6.5647a5.6911,5.6911,0,0,0-5.6781,4.9387.0133.0133,0,0,1-.0131.0117H50.4647a.0145.0145,0,0,1-.0141-.015c.2665-6.92,4.642-10.2507,10.6827-10.2507,5.7324-.1563,10.6306,3.1265,11.4639,8.0252a11.0406,11.0406,0,0,1,.1045,3.4391c-.8329,6.9274-8.3815,8.024-8.1818,16.766a.0136.0136,0,0,1-.0134.0141H58.5932A.0145.0145,0,0,1,58.5791,98.9141Zm-.52,6.9186a3.2359,3.2359,0,0,1,3.4762-3.1787,3.3272,3.3272,0,0,1,3.3776,3.5936,3.1949,3.1949,0,0,1-3.3624,2.7639A3.27,3.27,0,0,1,58.059,105.8327Z"/>
    <path class="cls-5" d="M61.5508,109.45a3.7,3.7,0,0,1-3.9307-3.6172,3.6588,3.6588,0,0,1,3.9131-3.6171h.0137a3.8976,3.8976,0,0,1,2.9072,1.3085,3.5061,3.5061,0,0,1,.8945,2.7764A3.6375,3.6375,0,0,1,61.5508,109.45Zm-.0039-6.3574h-.01a2.814,2.814,0,0,0-3.04,2.74,2.8452,2.8452,0,0,0,3.0537,2.74,2.7515,2.7515,0,0,0,2.9267-2.378,2.6369,2.6369,0,0,0-.6787-2.0878A3.0169,3.0169,0,0,0,61.5469,103.0926Zm2.96-3.7266h-5.914a.4632.4632,0,0,1-.4522-.4336h0c-.2578-6.2138,2.4405-8.97,4.82-11.4023,1.4844-1.5156,2.8858-2.9482,3.4268-5.0723a4.9259,4.9259,0,0,0-5.2022-6.0205,5.2411,5.2411,0,0,0-5.2441,4.5586.4614.4614,0,0,1-.4473.3916H50.4648a.4639.4639,0,0,1-.4531-.4531c.2578-6.7,4.4151-10.6895,11.1221-10.6895,6.0234-.1972,11.041,3.3633,11.8965,8.3907a11.3991,11.3991,0,0,1,.1054,3.5781c-.39,3.24-2.2207,5.2861-3.9921,7.2637-2.1094,2.3554-4.2911,4.791-4.1856,9.4267a.45.45,0,0,1-.4512.4619Zm-5.4892-.4521h0Zm-.0127-.4248H64.08c.0361-4.7139,2.2578-7.1953,4.41-9.5977,1.7578-1.9629,3.418-3.8164,3.7764-6.7959a10.5746,10.5746,0,0,0-.1016-3.3144c-.7812-4.5908-5.4365-7.8555-11.02-7.6592-6.1328,0-9.8379,3.4141-10.2334,9.3887h4.22a6.1146,6.1146,0,0,1,6.0537-4.95,5.7966,5.7966,0,0,1,6.0625,7.0605c-.6093,2.4063-2.0908,3.92-3.66,5.5235C61.2783,90.5047,58.8906,92.9442,59.0049,98.4891Z"/>
  </g>
</svg>
