<svg id="Layer_1" data-name="Layer 1" xmlns="http://www.w3.org/2000/svg" viewBox="0 0 120 180">
  <defs>
    <style>
      .cls-1 {
        fill: #ff6474;
      }

      .cls-2 {
        fill: #3d3d3d;
        opacity: 0.2;
      }

      .cls-3, .cls-5 {
        fill: #fff;
      }

      .cls-4 {
        fill: #050039;
      }

      .cls-5 {
        stroke: #fff;
        stroke-miterlimit: 10;
        stroke-width: 0.75px;
      }
    </style>
  </defs>
  <title>faceinfinity</title>
  <rect class="cls-1" x="-27.3761" y="33.3322" width="172.5628" height="111.9133" rx="17.5275" ry="17.5275" transform="translate(148.1941 30.3834) rotate(90)"/>
  <path class="cls-2" d="M87.6306,97.3709a18.94,18.94,0,0,1-4.5076,12.6059A15.9952,15.9952,0,0,1,70.94,115.3651c-13.1235,0-18.8075-16.1174-19.1539-17.1387-.1563-.43-5.0532-13.634-14.2267-13.634-6.6489,0-11.4746,5.3742-11.4746,12.7785s4.8257,12.7785,11.4746,12.7785c4.78,0,8.3359-3.4073,10.6965-6.8123.671,1.4344,4.7529-1.6677,5.9334.1493-2.2374,4.3492-10.6769,11.8787-16.63,11.8787a15.9952,15.9952,0,0,1-12.1827-5.3883,19.88,19.88,0,0,1,0-25.2117A15.995,15.995,0,0,1,37.56,79.3767c12.977,0,18.9045,16.43,19.15,17.1291l.0129.0374c.0448.1322,4.7123,13.6062,14.2173,13.6062,6.6489,0,11.4746-5.3741,11.4746-12.7785S77.5892,84.5924,70.94,84.5924c-4.7108,0-8.2934,3.4816-10.6857,6.9277a43.2774,43.2774,0,0,0-2.7778-4.9688c3.1145-3.7733,7.559-7.1746,13.4635-7.1746A15.995,15.995,0,0,1,83.123,84.7651,18.94,18.94,0,0,1,87.6306,97.3709Z"/>
  <g>
    <path class="cls-3" d="M104.9546,7.53a7.5014,7.5014,0,0,1,7.4941,7.4917V165.0379a7.5013,7.5013,0,0,1-7.4941,7.4916H14.9428a7.5013,7.5013,0,0,1-7.4941-7.4916V15.0212A7.5014,7.5014,0,0,1,14.9428,7.53h90.0118m0-7.5H14.9428A14.9929,14.9929,0,0,0-.0513,15.0212V165.0379A14.9929,14.9929,0,0,0,14.9428,180.03h90.0118a14.9929,14.9929,0,0,0,14.9941-14.9916V15.0212A14.9929,14.9929,0,0,0,104.9546.03Z"/>
    <path class="cls-4" d="M104.9546,3.0148a12.0064,12.0064,0,0,1,11.9941,11.9916V165.0231a12.0065,12.0065,0,0,1-11.9941,11.9917H14.9429A12.0066,12.0066,0,0,1,2.9487,165.0231V15.0064A12.0065,12.0065,0,0,1,14.9429,3.0148h90.0117m0-3H14.9429A14.9929,14.9929,0,0,0-.0513,15.0064V165.0231a14.993,14.993,0,0,0,14.9942,14.9917h90.0117a14.993,14.993,0,0,0,14.9941-14.9917V15.0064A14.9929,14.9929,0,0,0,104.9546.0148Z"/>
  </g>
  <g>
    <path class="cls-3" d="M90.1306,93.0388a18.94,18.94,0,0,1-4.5076,12.6059A15.9952,15.9952,0,0,1,73.44,111.033c-13.1235,0-18.8075-16.1175-19.1539-17.1387C54.13,93.4645,49.2332,80.26,40.06,80.26c-6.6489,0-11.4746,5.3741-11.4746,12.7785s4.8257,12.7785,11.4746,12.7785c4.78,0,8.3359-3.4073,10.6965-6.8124.671,1.4345.7821,3.0021,1.9626,4.8191-3.0875,3.719-6.7061,7.209-12.6591,7.209a15.9952,15.9952,0,0,1-12.1827-5.3883,19.8806,19.8806,0,0,1,0-25.2118A15.9952,15.9952,0,0,1,40.06,75.0446c12.977,0,18.9045,16.43,19.15,17.129l.0129.0374c.0448.1323,4.7123,13.6063,14.2173,13.6063,6.6489,0,11.4746-5.3741,11.4746-12.7785S80.0892,80.26,73.44,80.26c-4.7108,0-8.2934,3.4816-10.6857,6.9276a43.2854,43.2854,0,0,0-2.7778-4.9687c3.1145-3.7733,7.559-7.1746,13.4635-7.1746A15.9952,15.9952,0,0,1,85.623,80.4329,18.94,18.94,0,0,1,90.1306,93.0388Z"/>
    <path class="cls-4" d="M73.44,111.533c-13.54,0-19.3857-16.7646-19.6279-17.4775-.1934-.5332-4.9355-13.2949-13.7529-13.2949-6.3594,0-10.9746,5.164-10.9746,12.2783S33.7,105.3172,40.06,105.3172c3.79,0,7.2509-2.22,10.2851-6.5976l.4961-.7149.3682.7881a13.3384,13.3384,0,0,1,.6318,1.75,11.1579,11.1579,0,0,0,1.2969,3.0088l.2012.3086-.2354.2832c-3.1865,3.8379-6.9726,7.39-13.0439,7.39a16.4911,16.4911,0,0,1-12.5576-5.5576,20.3792,20.3792,0,0,1,0-25.874A16.4921,16.4921,0,0,1,40.06,74.5448c13.3222,0,19.3711,16.75,19.622,17.4628.06.1758,4.6309,13.31,13.7588,13.31,6.3594,0,10.9746-5.164,10.9746-12.2783S79.8,80.7606,73.44,80.7606c-4.6416,0-8.1494,3.65-10.2744,6.7129l-.4922.708-.37-.7783a42.55,42.55,0,0,0-2.7461-4.9112l-.2-.3076.2334-.2832c4.0293-4.8809,8.6885-7.3564,13.85-7.3564A16.4921,16.4921,0,0,1,85.998,80.1014a20.3792,20.3792,0,0,1,0,25.874A16.4911,16.4911,0,0,1,73.44,111.533ZM40.06,79.7606c9.51,0,14.4892,13.3926,14.6963,13.9629.2363.6963,5.8525,16.81,18.6845,16.81a15.503,15.503,0,0,0,11.8076-5.22,19.38,19.38,0,0,0,0-24.55A15.5025,15.5025,0,0,0,73.44,75.5448c-4.75,0-9.0693,2.2587-12.8437,6.7128a43.615,43.615,0,0,1,2.24,3.959c3.1358-4.2285,6.7881-6.456,10.6035-6.456,6.9385,0,11.9746,5.584,11.9746,13.2783S80.3789,106.3172,73.44,106.3172c-9.86,0-14.6445-13.8066-14.6914-13.9463-.2519-.7168-6.0664-16.8261-18.6894-16.8261A15.5025,15.5025,0,0,0,28.252,80.7635a19.38,19.38,0,0,0,0,24.55,15.503,15.503,0,0,0,11.8076,5.22c5.78,0,9.2588-3.4345,12.0439-6.7519a12.73,12.73,0,0,1-1.2178-2.9424c-.0849-.2744-.1679-.542-.2568-.8018-3.0771,4.1133-6.7168,6.28-10.5693,6.28-6.9385,0-11.9746-5.584-11.9746-13.2783S33.1211,79.7606,40.06,79.7606Z"/>
  </g>
  <g>
    <path class="cls-3" d="M93.3806,89.2888a18.94,18.94,0,0,1-4.5076,12.6059A15.9952,15.9952,0,0,1,76.69,107.283c-13.1235,0-18.8075-16.1175-19.1539-17.1387C57.38,89.7145,52.4832,76.51,43.31,76.51c-6.6489,0-11.4746,5.3741-11.4746,12.7785s4.8257,12.7785,11.4746,12.7785a13.5466,13.5466,0,0,0,10.9748-6.23,33.2122,33.2122,0,0,0,2.4875,4.4106c-3.0875,3.7189-7.5093,7.0348-13.4623,7.0348a15.9952,15.9952,0,0,1-12.1827-5.3883,19.8806,19.8806,0,0,1,0-25.2118A15.9952,15.9952,0,0,1,43.31,71.2946c12.977,0,18.9045,16.43,19.15,17.129l.0129.0374c.0448.1323,4.7123,13.6063,14.2173,13.6063,6.6489,0,11.4746-5.3741,11.4746-12.7785S83.3392,76.51,76.69,76.51c-4.7108,0-8.2934,3.4816-10.6857,6.9276a43.2854,43.2854,0,0,0-2.7778-4.9687c3.1145-3.7733,7.559-7.1746,13.4635-7.1746A15.9952,15.9952,0,0,1,88.873,76.6829,18.94,18.94,0,0,1,93.3806,89.2888Z"/>
    <path class="cls-4" d="M76.69,107.783c-13.54,0-19.3857-16.7646-19.6279-17.4775-.1934-.5332-4.9355-13.2949-13.7529-13.2949-6.3594,0-10.9746,5.164-10.9746,12.2783S36.95,101.5672,43.31,101.5672c4.0644,0,7.914-2.1924,10.5634-6.0146l.4961-.7149.3682.7881a32.6768,32.6768,0,0,0,2.4541,4.35l.2012.3086-.2354.2832c-3.9746,4.7881-8.6338,7.2158-13.8476,7.2158a16.4911,16.4911,0,0,1-12.5576-5.5576,20.3792,20.3792,0,0,1,0-25.874A16.4921,16.4921,0,0,1,43.31,70.7948c13.3222,0,19.3711,16.75,19.622,17.4628.06.1758,4.6309,13.31,13.7588,13.31,6.3594,0,10.9746-5.164,10.9746-12.2783S83.05,77.0106,76.69,77.0106c-4.6416,0-8.1494,3.65-10.2744,6.7129l-.4922.708-.37-.7783a42.55,42.55,0,0,0-2.7461-4.9112l-.2-.3076.2334-.2832c4.0293-4.8809,8.6885-7.3564,13.85-7.3564A16.4921,16.4921,0,0,1,89.248,76.3514a20.3792,20.3792,0,0,1,0,25.874A16.4911,16.4911,0,0,1,76.69,107.783ZM43.31,76.0106c9.51,0,14.4892,13.3926,14.6963,13.9629.2363.6963,5.8525,16.81,18.6845,16.81a15.503,15.503,0,0,0,11.8076-5.22,19.38,19.38,0,0,0,0-24.55A15.5025,15.5025,0,0,0,76.69,71.7948c-4.75,0-9.0693,2.2587-12.8437,6.7128a43.615,43.615,0,0,1,2.24,3.959c3.1358-4.2285,6.7881-6.456,10.6035-6.456,6.9385,0,11.9746,5.584,11.9746,13.2783S83.6289,102.5672,76.69,102.5672c-9.86,0-14.6445-13.8066-14.6914-13.9463-.2519-.7168-6.0664-16.8261-18.6894-16.8261A15.5025,15.5025,0,0,0,31.502,77.0135a19.38,19.38,0,0,0,0,24.55,15.503,15.503,0,0,0,11.8076,5.22c4.8008,0,9.1191-2.2119,12.8418-6.5742a33.7676,33.7676,0,0,1-1.9561-3.4014,13.783,13.783,0,0,1-10.8857,5.76c-6.9385,0-11.9746-5.584-11.9746-13.2783S36.3711,76.0106,43.31,76.0106Z"/>
  </g>
  <g>
    <path class="cls-3" d="M97.1666,85.53A18.94,18.94,0,0,1,92.659,98.1361a15.9952,15.9952,0,0,1-12.1827,5.3883c-13.1235,0-18.8075-16.1175-19.1539-17.1387-.1563-.43-5.0532-13.634-14.2267-13.634-6.6489,0-11.4746,5.3741-11.4746,12.7785S40.4877,99.045,47.0957,98.3087c7.1543-.7972,12.3286-7.294,14.6892-10.6991a38.4049,38.4049,0,0,0,2.5686,5.1264c-3.0875,3.719-8.77,9.9839-17.2578,10.7884-4.7669.4519-9.1147-1.9136-12.1827-5.3883a19.8806,19.8806,0,0,1,0-25.2118A15.9952,15.9952,0,0,1,47.0957,67.536c12.977,0,18.9045,16.43,19.15,17.129l.0129.0375c.0448.1322,4.7123,13.6062,14.2173,13.6062,6.6489,0,11.4746-5.3741,11.4746-12.7785S87.1221,72.55,80.4763,72.7517C73.9688,72.949,68.292,80.3186,65.9,83.7646a46.457,46.457,0,0,0-2.8025-5.4718C66.2117,74.52,71.875,67.699,80.4763,67.536A15.6921,15.6921,0,0,1,92.659,72.9243,18.94,18.94,0,0,1,97.1666,85.53Z"/>
    <path class="cls-4" d="M45.9482,104.0789a15.4154,15.4154,0,0,1-11.41-5.6123,20.3782,20.3782,0,0,1,0-25.873A16.4911,16.4911,0,0,1,47.0957,67.036c7.6709,0,12.9307,5.5537,16.06,10.4013,3.1993-3.8545,8.8516-10.2412,17.3106-10.4013a16.1615,16.1615,0,0,1,12.5674,5.5576,20.3782,20.3782,0,0,1,0,25.873,16.4882,16.4882,0,0,1-12.5576,5.5576c-7.8213,0-13.0752-5.5937-16.1651-10.457-2.5664,3.06-8.4765,9.6309-17.1689,10.4551Q46.5464,104.0779,45.9482,104.0789ZM47.0957,68.036a15.503,15.503,0,0,0-11.8076,5.22,19.3791,19.3791,0,0,0,0,24.5488c3.2812,3.7168,7.5693,5.625,11.7607,5.2217,7.6436-.7246,12.9219-5.8438,16.6866-10.33a25.0374,25.0374,0,0,1-1.4874-2.8388c-.2158-.4444-.4052-.8575-.57-1.2315-4.416,6.0967-9.4248,9.6113-14.5263,10.18a9.57,9.57,0,0,1-7.6338-2.4717A14.57,14.57,0,0,1,35.1211,85.53c0-7.6943,5.0361-13.2783,11.9746-13.2783,9.51,0,14.4893,13.3926,14.6963,13.9629.0351.1045.1914.5527.4726,1.24.1495.3213.3018.665.461,1.0234.1562.3536.3183.7188.4912,1.0938,2.4023,4.915,7.92,13.4521,17.26,13.4521a15.5,15.5,0,0,0,11.8076-5.22,19.3791,19.3791,0,0,0,0-24.5488,15.16,15.16,0,0,0-11.7979-5.22c-8.1953.1552-13.7158,6.5986-16.7715,10.2949l.0127.0215c.2012.3232.3946.6562.5791.9931.74,1.3116,1.3047,2.4952,1.7022,3.3975C69.502,77.89,74.6943,72.4266,80.4609,72.2518a10.81,10.81,0,0,1,8.0225,3.082A13.9769,13.9769,0,0,1,92.4512,85.53c0,7.6943-5.0362,13.2783-11.9746,13.2783-9.86,0-14.6446-13.8066-14.6914-13.9463-.0313-.0879-.1465-.4111-.35-.9082-.1318-.2773-.2744-.5869-.4267-.9179a35.8969,35.8969,0,0,0-2.33-4.4707l-.2-.3077.0127-.0156C59.5156,73.5282,54.4668,68.036,47.0957,68.036Zm0,5.2158c-6.3594,0-10.9746,5.164-10.9746,12.2783a13.5634,13.5634,0,0,0,4.0635,10.0586A8.6206,8.6206,0,0,0,47.04,97.8114c4.9493-.5508,9.8487-4.1006,14.1827-10.27-.22-.5488-.3428-.9043-.3741-.9951C60.6553,86.0135,55.9131,73.2518,47.0957,73.2518ZM66.4639,83.8289c.1445.3643.2285.5977.2539.67.0595.1757,4.6308,13.31,13.7588,13.31,6.3593,0,10.9746-5.164,10.9746-12.2783a12.9872,12.9872,0,0,0-3.6641-9.4785,9.771,9.771,0,0,0-7.2949-2.8C74.9336,73.42,69.8223,79.0438,66.4639,83.8289Z"/>
  </g>
  <path class="cls-5" d="M36.9845,23.8471a6.59,6.59,0,0,1-1.5683,4.3859,5.5652,5.5652,0,0,1-4.2386,1.8747c-4.566,0-6.5436-5.6076-6.6641-5.963-.0544-.1495-1.7581-4.7435-4.95-4.7435-2.3133,0-3.9923,1.87-3.9923,4.4459s1.6932,4.7021,3.9923,4.4459c2.4891-.2773,4.2894-2.5377,5.1107-3.7224a13.3717,13.3717,0,0,0,.8937,1.7836c-1.0742,1.2939-3.0514,3.4736-6.0044,3.7535A5.09,5.09,0,0,1,15.325,28.233a6.9173,6.9173,0,0,1,0-8.7718,5.5654,5.5654,0,0,1,4.2387-1.8747c4.515,0,6.5773,5.7162,6.6629,5.96l.0044.013c.0156.046,1.64,4.7339,4.9466,4.7339,2.3132,0,3.9922-1.87,3.9922-4.4459s-1.68-4.5161-3.9922-4.4459c-2.2642.0686-4.2392,2.6327-5.0716,3.8316a16.1751,16.1751,0,0,0-.975-1.9038c1.0836-1.3128,3.054-3.6858,6.0466-3.7425a5.46,5.46,0,0,1,4.2386,1.8747A6.59,6.59,0,0,1,36.9845,23.8471Z"/>
  <path class="cls-5" d="M105.5377,156.47a6.59,6.59,0,0,1-1.5683,4.3858,5.5651,5.5651,0,0,1-4.2387,1.8748c-4.566,0-6.5435-5.6077-6.6641-5.963-.0543-.15-1.7581-4.7436-4.95-4.7436-2.3133,0-3.9923,1.87-3.9923,4.446s1.6932,4.7021,3.9923,4.4459c2.4891-.2773,4.2894-2.5377,5.1107-3.7224a13.3638,13.3638,0,0,0,.8936,1.7836c-1.0742,1.2939-3.0513,3.4736-6.0043,3.7535a5.0894,5.0894,0,0,1-4.2387-1.8748,6.9168,6.9168,0,0,1,0-8.7717,5.5652,5.5652,0,0,1,4.2387-1.8747c4.5149,0,6.5773,5.7162,6.6628,5.96l.0045.013c.0156.046,1.6395,4.7339,4.9465,4.7339,2.3133,0,3.9923-1.87,3.9923-4.4459s-1.68-4.5161-3.9923-4.446c-2.2641.0687-4.2392,2.6327-5.0715,3.8317a16.1751,16.1751,0,0,0-.975-1.9038c1.0835-1.3128,3.0539-3.6858,6.0465-3.7425a5.46,5.46,0,0,1,4.2387,1.8747A6.59,6.59,0,0,1,105.5377,156.47Z"/>
</svg>
