<svg id="Layer_1" data-name="Layer 1" xmlns="http://www.w3.org/2000/svg" viewBox="0 0 120 180">
  <defs>
    <style>
      .cls-1 {
        fill: #fff9df;
      }

      .cls-2 {
        fill: #ffbebe;
      }

      .cls-3 {
        fill: #050039;
      }

      .cls-4 {
        opacity: 0.19;
      }

      .cls-5 {
        fill: #3d3d3d;
      }

      .cls-6 {
        fill: #fff;
      }
    </style>
  </defs>
  <title>face40</title>
  <rect class="cls-1" x="-27.3761" y="33.3322" width="172.5628" height="111.9133" rx="17.5275" ry="17.5275" transform="translate(148.1941 30.3834) rotate(90)"/>
  <g>
    <circle class="cls-2" cx="19.6856" cy="43.0947" r="5.4673"/>
    <circle class="cls-2" cx="39.8172" cy="43.0947" r="5.4673"/>
    <circle class="cls-2" cx="59.9487" cy="43.0947" r="5.4673"/>
    <circle class="cls-2" cx="80.0803" cy="43.0947" r="5.4673"/>
    <circle class="cls-2" cx="100.2118" cy="43.0947" r="5.4673"/>
    <circle class="cls-2" cx="19.6856" cy="62.0539" r="5.4673"/>
    <circle class="cls-2" cx="39.8172" cy="62.0539" r="5.4673"/>
    <circle class="cls-2" cx="59.9487" cy="62.0539" r="5.4673"/>
    <circle class="cls-2" cx="80.0803" cy="62.0539" r="5.4673"/>
    <circle class="cls-2" cx="100.2118" cy="62.0539" r="5.4673"/>
    <circle class="cls-2" cx="19.6856" cy="81.0132" r="5.4673"/>
    <circle class="cls-2" cx="100.2118" cy="81.0132" r="5.4673"/>
    <circle class="cls-2" cx="19.6856" cy="99.9724" r="5.4673"/>
    <circle class="cls-2" cx="100.2118" cy="99.9724" r="5.4673"/>
    <circle class="cls-2" cx="19.6856" cy="118.9316" r="5.4673"/>
    <circle class="cls-2" cx="39.8172" cy="118.9316" r="5.4673"/>
    <circle class="cls-2" cx="59.9487" cy="118.9316" r="5.4673"/>
    <circle class="cls-2" cx="80.0803" cy="118.9316" r="5.4673"/>
    <circle class="cls-2" cx="100.2118" cy="118.9316" r="5.4673"/>
    <circle class="cls-2" cx="19.6856" cy="137.8909" r="5.4673"/>
    <circle class="cls-2" cx="39.8172" cy="137.8909" r="5.4673"/>
    <circle class="cls-2" cx="59.9487" cy="137.8909" r="5.4673"/>
    <circle class="cls-2" cx="80.0803" cy="137.8909" r="5.4673"/>
    <circle class="cls-2" cx="100.2118" cy="137.8909" r="5.4673"/>
    <circle class="cls-2" cx="19.6856" cy="156.8501" r="5.4673"/>
    <circle class="cls-2" cx="39.8172" cy="156.8501" r="5.4673"/>
    <circle class="cls-2" cx="59.9487" cy="156.8501" r="5.4673"/>
    <circle class="cls-2" cx="59.9487" cy="24.1354" r="5.4673"/>
    <circle class="cls-2" cx="80.0803" cy="24.1354" r="5.4673"/>
    <circle class="cls-2" cx="100.2118" cy="24.1354" r="5.4673"/>
  </g>
  <g>
    <path class="cls-3" d="M29.2068,24.7936H24.6863v7.39H21.6971v-7.39h-6.628v-8.707h2.9463V22.404l3.7246.002V17.237h2.9463v5.1709l4.5205.002Z"/>
    <path class="cls-3" d="M48.3875,24.1354a8.2651,8.2651,0,0,1-8.624,8.2784,8.2855,8.2855,0,1,1,0-16.5567A8.2651,8.2651,0,0,1,48.3875,24.1354Zm-14.3516,0a5.8225,5.8225,0,0,0,.835,3.08l7.9424-7.9472a6.0216,6.0216,0,0,0-3.05-.7832A5.4851,5.4851,0,0,0,34.0359,24.1354Zm11.45,0a5.827,5.827,0,0,0-.83-3.0732l-7.9394,7.9443a6.0413,6.0413,0,0,0,3.0469.7793A5.4843,5.4843,0,0,0,45.4861,24.1354Z"/>
  </g>
  <g>
    <path class="cls-3" d="M86.6687,156.1719h-4.52v7.39H79.159v-7.39H72.531v-8.7071h2.9463v6.3174l3.7246.002v-5.169h2.9463v5.1709l4.52.002Z"/>
    <path class="cls-3" d="M105.8494,155.5137a8.6343,8.6343,0,1,1-8.624-8.2783A8.265,8.265,0,0,1,105.8494,155.5137Zm-14.3516,0a5.8228,5.8228,0,0,0,.835,3.08l7.9424-7.9473a6.0226,6.0226,0,0,0-3.05-.7832A5.4851,5.4851,0,0,0,91.4978,155.5137Zm11.45,0a5.828,5.828,0,0,0-.83-3.0733l-7.9395,7.9444a6.0416,6.0416,0,0,0,3.0469.7793A5.4844,5.4844,0,0,0,102.948,155.5137Z"/>
  </g>
  <g class="cls-4">
    <path class="cls-5" d="M54.1424,92.1846H45.8836v13.5h-5.461v-13.5H28.3152V76.2793H33.698v11.54l6.8028.0039V78.38h5.3828v9.4463l8.2588.0039Z"/>
    <path class="cls-5" d="M89.1687,90.9814c0,8.6329-6.7666,15.1231-15.7539,15.1231-8.998,0-15.7646-6.49-15.7646-15.1231s6.7666-15.122,15.7646-15.122C82.4021,75.8594,89.1687,82.35,89.1687,90.9814Zm-26.2177,0a10.6416,10.6416,0,0,0,1.5254,5.628L78.9871,82.0908a11.0177,11.0177,0,0,0-5.5723-1.4316C67.3152,80.6592,62.951,84.9814,62.951,90.9814Zm20.917,0a10.64,10.64,0,0,0-1.5166-5.6132L67.8474,99.8809a11.0506,11.0506,0,0,0,5.5674,1.4238A10.0185,10.0185,0,0,0,83.868,90.9814Z"/>
  </g>
  <g>
    <path class="cls-6" d="M104.9546,7.53a7.5014,7.5014,0,0,1,7.4941,7.4917V165.0379a7.5013,7.5013,0,0,1-7.4941,7.4916H14.9428a7.5013,7.5013,0,0,1-7.4941-7.4916V15.0212A7.5014,7.5014,0,0,1,14.9428,7.53h90.0118m0-7.5H14.9428A14.9929,14.9929,0,0,0-.0513,15.0212V165.0379A14.9929,14.9929,0,0,0,14.9428,180.03h90.0118a14.9929,14.9929,0,0,0,14.9941-14.9916V15.0212A14.9929,14.9929,0,0,0,104.9546.03Z"/>
    <path class="cls-3" d="M104.9546,3.0148a12.0064,12.0064,0,0,1,11.9941,11.9916V165.0231a12.0065,12.0065,0,0,1-11.9941,11.9917H14.9429A12.0066,12.0066,0,0,1,2.9487,165.0231V15.0064A12.0065,12.0065,0,0,1,14.9429,3.0148h90.0117m0-3H14.9429A14.9929,14.9929,0,0,0-.0513,15.0064V165.0231a14.993,14.993,0,0,0,14.9942,14.9917h90.0117a14.993,14.993,0,0,0,14.9941-14.9917V15.0064A14.9929,14.9929,0,0,0,104.9546.0148Z"/>
  </g>
  <g>
    <path class="cls-3" d="M57.4,89.83H49.1416v13.5H43.6807V89.83H31.5732V73.9248h5.3829v11.54l6.8027.004V76.0254h5.3828v9.4463l8.2588.0039Z"/>
    <path class="cls-3" d="M92.4268,88.627c0,8.6328-6.7666,15.123-15.7539,15.123-8.9981,0-15.7647-6.49-15.7647-15.123s6.7666-15.1221,15.7647-15.1221C85.66,73.5049,92.4268,79.9951,92.4268,88.627Zm-26.2178,0a10.6415,10.6415,0,0,0,1.5254,5.6279L82.2451,79.7363a11.0173,11.0173,0,0,0-5.5722-1.4316C70.5732,78.3047,66.209,82.627,66.209,88.627Zm20.917,0a10.64,10.64,0,0,0-1.5166-5.6133L71.1055,97.5264A11.0491,11.0491,0,0,0,76.6729,98.95,10.0185,10.0185,0,0,0,87.126,88.627Z"/>
  </g>
</svg>
