<svg id="Layer_1" data-name="Layer 1" xmlns="http://www.w3.org/2000/svg" viewBox="0 0 120 180">
  <defs>
    <style>
      .cls-1 {
        fill: #fff9df;
      }

      .cls-2 {
        fill: #ffbebe;
      }

      .cls-3 {
        fill: #050039;
      }

      .cls-4 {
        opacity: 0.2;
      }

      .cls-5 {
        fill: #3d3d3d;
      }

      .cls-6 {
        fill: #fff;
      }
    </style>
  </defs>
  <title>face2</title>
  <rect class="cls-1" x="-27.3761" y="33.3322" width="172.5628" height="111.9133" rx="17.5275" ry="17.5275" transform="translate(148.1941 30.3834) rotate(90)"/>
  <circle class="cls-2" cx="18.6423" cy="155.8501" r="5.4673"/>
  <circle class="cls-2" cx="51.4595" cy="68.7271" r="34.5946"/>
  <path class="cls-3" d="M28.7178,28.999V31.67H15.9922V29.5947l5.1562-4.0771a4.9191,4.9191,0,0,1-4.5976-4.9717c0-3.0273,2.414-5.2031,5.7461-5.2031,3.3437,0,5.7138,2.1826,5.7138,5.125,0,2.4834-1.9462,4.1933-4.789,6.126L20.1748,28.999Zm-6.4043-5.4746a2.8756,2.8756,0,1,0-.0049-5.75,2.8758,2.8758,0,1,0,.0049,5.75Z"/>
  <path class="cls-3" d="M104.1738,161.6221v2.67H91.4482v-2.0742l5.1563-4.0772a4.9207,4.9207,0,0,1-4.5977-4.9726c0-3.0274,2.4141-5.2022,5.7461-5.2022,3.3438,0,5.7139,2.1826,5.7139,5.125,0,2.4834-1.9463,4.1924-4.7891,6.126l-3.0468,2.4053ZM97.77,156.1465a2.8753,2.8753,0,1,0-2.9463-2.8877A2.8172,2.8172,0,0,0,97.77,156.1465Z"/>
  <g class="cls-4">
    <path class="cls-5" d="M72.0776,100.9609V107H43.2993v-4.6914l11.66-9.2207C49.0083,92.4492,44.561,88.043,44.561,81.8438c0-6.8458,5.461-11.7647,12.9961-11.7647,7.5625,0,12.9219,4.9346,12.9219,11.59,0,5.6163-4.4014,9.4815-10.832,13.8526l-6.8887,5.4394ZM57.5942,88.58a6.5023,6.5023,0,1,0-.0117-13.002,6.5028,6.5028,0,1,0,.0117,13.002Z"/>
  </g>
  <g>
    <path class="cls-6" d="M104.9546,7.53a7.5014,7.5014,0,0,1,7.4941,7.4917V165.0379a7.5013,7.5013,0,0,1-7.4941,7.4916H14.9428a7.5013,7.5013,0,0,1-7.4941-7.4916V15.0212A7.5014,7.5014,0,0,1,14.9428,7.53h90.0118m0-7.5H14.9428A14.9929,14.9929,0,0,0-.0513,15.0212V165.0379A14.9929,14.9929,0,0,0,14.9428,180.03h90.0118a14.9929,14.9929,0,0,0,14.9941-14.9916V15.0212A14.9929,14.9929,0,0,0,104.9546.03Z"/>
    <path class="cls-3" d="M104.9546,3.0148a12.0064,12.0064,0,0,1,11.9941,11.9916V165.0231a12.0065,12.0065,0,0,1-11.9941,11.9917H14.9429A12.0066,12.0066,0,0,1,2.9487,165.0231V15.0064A12.0065,12.0065,0,0,1,14.9429,3.0148h90.0117m0-3H14.9429A14.9929,14.9929,0,0,0-.0513,15.0064V165.0231a14.993,14.993,0,0,0,14.9942,14.9917h90.0117a14.993,14.993,0,0,0,14.9941-14.9917V15.0064A14.9929,14.9929,0,0,0,104.9546.0148Z"/>
  </g>
  <path class="cls-3" d="M84.4834,113.5518H81.8887a.5.5,0,0,1,0-1h2.5947a.5.5,0,0,1,0,1Zm-6.0547,0H75.834a.5.5,0,0,1,0-1h2.5947a.5.5,0,0,1,0,1Zm-6.0537,0H69.78a.5.5,0,0,1,0-1H72.375a.5.5,0,0,1,0,1Zm-6.0537,0H63.7266a.5.5,0,0,1,0-1h2.5947a.5.5,0,0,1,0,1Zm-6.0547,0H57.6719a.5.5,0,0,1,0-1h2.5947a.5.5,0,0,1,0,1Zm-6.0537,0H51.6182a.5.5,0,0,1,0-1h2.5947a.5.5,0,1,1,0,1Z"/>
  <path class="cls-3" d="M75.3613,98.418v6.039H46.583V99.7656l11.66-9.2207C52.292,89.9062,47.8447,85.5,47.8447,79.3008c0-6.8457,5.461-11.7647,12.9961-11.7647,7.5625,0,12.9219,4.9346,12.9219,11.59,0,5.6162-4.4014,9.4814-10.832,13.8525l-6.8887,5.44ZM60.8779,86.0371a6.5028,6.5028,0,1,0-6.6621-6.53A6.3717,6.3717,0,0,0,60.8779,86.0371Z"/>
</svg>
