<svg id="Layer_1" data-name="Layer 1" xmlns="http://www.w3.org/2000/svg" viewBox="0 0 120 180">
  <defs>
    <style>
      .cls-1 {
        fill: #fff9df;
      }

      .cls-2 {
        fill: #ffbebe;
      }

      .cls-3 {
        fill: #050039;
      }

      .cls-4 {
        opacity: 0.2;
      }

      .cls-5 {
        fill: #3d3d3d;
      }

      .cls-6 {
        fill: #fff;
      }
    </style>
  </defs>
  <title>face8</title>
  <rect class="cls-1" x="-27.3761" y="33.3322" width="172.5628" height="111.9133" rx="17.5275" ry="17.5275" transform="translate(148.1941 30.3834) rotate(90)"/>
  <g>
    <circle class="cls-2" cx="39.8685" cy="42.0947" r="5.4673"/>
    <circle class="cls-2" cx="60" cy="42.0947" r="5.4673"/>
    <circle class="cls-2" cx="80.1315" cy="42.0947" r="5.4673"/>
    <circle class="cls-2" cx="19.7369" cy="136.8909" r="5.4673"/>
    <circle class="cls-2" cx="19.7369" cy="155.8501" r="5.4673"/>
    <circle class="cls-2" cx="60" cy="23.1354" r="5.4673"/>
    <circle class="cls-2" cx="80.1315" cy="23.1354" r="5.4673"/>
    <circle class="cls-2" cx="100.2631" cy="23.1354" r="5.4673"/>
  </g>
  <path class="cls-3" d="M27.65,27.209c0,2.7646-2.582,4.69-6.4023,4.69-3.8262,0-6.4277-1.9306-6.4277-4.69a4.1318,4.1318,0,0,1,3.4882-4.0537v-.0342A3.5915,3.5915,0,0,1,15.54,19.5869c0-2.4961,2.3027-4.2441,5.6953-4.2441,3.414,0,5.6953,1.77,5.6953,4.249a3.5909,3.5909,0,0,1-2.7676,3.5322v.0283A4.128,4.128,0,0,1,27.65,27.209Zm-3.2031-.3164c0-1.54-1.2851-2.5391-3.1992-2.5391-1.916,0-3.2246.9932-3.2246,2.5391,0,1.5293,1.2754,2.58,3.2129,2.58C23.1886,29.4727,24.4464,28.4111,24.4464,26.8926Zm-5.832-7.03c0,1.2529,1.0644,2.0772,2.6328,2.0772,1.5664,0,2.6094-.83,2.6094-2.0772s-1.0371-2.0918-2.6094-2.0918C19.673,17.7705,18.6144,18.61,18.6144,19.8623Z"/>
  <path class="cls-3" d="M104.1066,159.8311c0,2.7646-2.5821,4.6914-6.4034,4.6914-3.8261,0-6.4267-1.9307-6.4267-4.6914a4.13,4.13,0,0,1,3.4873-4.0528v-.0351a3.5908,3.5908,0,0,1-2.7676-3.5342c0-2.4951,2.3028-4.2432,5.6953-4.2432,3.4141,0,5.6963,1.77,5.6963,4.249a3.59,3.59,0,0,1-2.7685,3.5313v.0283A4.1294,4.1294,0,0,1,104.1066,159.8311Zm-3.2032-.3155c0-1.541-1.2851-2.539-3.2-2.539s-3.2236.9931-3.2236,2.539c0,1.5293,1.2744,2.58,3.2119,2.58C99.6456,162.0957,100.9034,161.0342,100.9034,159.5156Zm-5.833-7.03c0,1.2519,1.0645,2.0761,2.6328,2.0761s2.6094-.8291,2.6094-2.0761-1.0361-2.0928-2.6094-2.0928S95.07,151.2324,95.07,152.4854Z"/>
  <g class="cls-4">
    <path class="cls-5" d="M73.1233,96.5054c0,6.2529-5.84,10.6084-14.48,10.6084-8.6524,0-14.5332-4.3662-14.5332-10.6084,0-4.6465,3.0234-7.9356,7.8847-9.166v-.0782c-3.873-1.208-6.26-4.0273-6.26-7.9922,0-5.6445,5.2089-9.5966,12.8808-9.5966,7.7207,0,12.8809,4.0009,12.8809,9.6084,0,3.958-2.3848,6.7812-6.2578,7.9863v.0644C70.1018,88.5562,73.1233,91.8511,73.1233,96.5054Zm-7.2441-.7139c0-3.4844-2.9043-5.7432-7.2363-5.7432-4.334,0-7.2891,2.2471-7.2891,5.7432,0,3.458,2.8809,5.835,7.2617,5.835C63.0354,101.6265,65.8792,99.2251,65.8792,95.7915ZM52.6878,79.8931c0,2.832,2.4082,4.6963,5.9551,4.6963,3.5449,0,5.9023-1.877,5.9023-4.6963,0-2.8213-2.3457-4.7325-5.9023-4.7325C55.0843,75.1606,52.6878,77.06,52.6878,79.8931Z"/>
  </g>
  <g>
    <path class="cls-6" d="M104.9546,7.53a7.5014,7.5014,0,0,1,7.4941,7.4917V165.0379a7.5013,7.5013,0,0,1-7.4941,7.4916H14.9428a7.5013,7.5013,0,0,1-7.4941-7.4916V15.0212A7.5014,7.5014,0,0,1,14.9428,7.53h90.0118m0-7.5H14.9428A14.9929,14.9929,0,0,0-.0513,15.0212V165.0379A14.9929,14.9929,0,0,0,14.9428,180.03h90.0118a14.9929,14.9929,0,0,0,14.9941-14.9916V15.0212A14.9929,14.9929,0,0,0,104.9546.03Z"/>
    <path class="cls-3" d="M104.9546,3.0148a12.0064,12.0064,0,0,1,11.9941,11.9916V165.0231a12.0065,12.0065,0,0,1-11.9941,11.9917H14.9429A12.0066,12.0066,0,0,1,2.9487,165.0231V15.0064A12.0065,12.0065,0,0,1,14.9429,3.0148h90.0117m0-3H14.9429A14.9929,14.9929,0,0,0-.0513,15.0064V165.0231a14.993,14.993,0,0,0,14.9942,14.9917h90.0117a14.993,14.993,0,0,0,14.9941-14.9917V15.0064A14.9929,14.9929,0,0,0,104.9546.0148Z"/>
  </g>
  <path class="cls-3" d="M84.4834,113.5518H81.8887a.5.5,0,0,1,0-1h2.5947a.5.5,0,0,1,0,1Zm-6.0547,0H75.834a.5.5,0,0,1,0-1h2.5947a.5.5,0,0,1,0,1Zm-6.0537,0H69.78a.5.5,0,0,1,0-1H72.375a.5.5,0,0,1,0,1Zm-6.0537,0H63.7266a.5.5,0,0,1,0-1h2.5947a.5.5,0,0,1,0,1Zm-6.0547,0H57.6719a.5.5,0,0,1,0-1h2.5947a.5.5,0,0,1,0,1Zm-6.0537,0H51.6182a.5.5,0,0,1,0-1h2.5947a.5.5,0,1,1,0,1Z"/>
  <path class="cls-3" d="M75.4679,94.3691c0,6.253-5.84,10.6084-14.48,10.6084-8.6523,0-14.5332-4.3662-14.5332-10.6084,0-4.6464,3.0235-7.9355,7.8848-9.166V85.125c-3.8731-1.208-6.26-4.0273-6.26-7.9922,0-5.6445,5.209-9.5967,12.8809-9.5967,7.7207,0,12.8808,4.001,12.8808,9.6084,0,3.958-2.3847,6.7813-6.2578,7.9864v.0644C72.4464,86.42,75.4679,89.7148,75.4679,94.3691Zm-7.2441-.7138c0-3.4844-2.9043-5.7432-7.2364-5.7432-4.334,0-7.289,2.2471-7.289,5.7432,0,3.458,2.8808,5.8349,7.2617,5.8349C65.38,99.49,68.2238,97.0889,68.2238,93.6553ZM55.0323,77.7568c0,2.8321,2.4083,4.6963,5.9551,4.6963,3.5449,0,5.9024-1.8769,5.9024-4.6963,0-2.8213-2.3457-4.7324-5.9024-4.7324C57.4288,73.0244,55.0323,74.9238,55.0323,77.7568Z"/>
</svg>
