<?xml version="1.0" encoding="utf-8"?>
<!-- Generator: Adobe Illustrator 24.0.3, SVG Export Plug-In . SVG Version: 6.00 Build 0)  -->
<svg version="1.1" id="Layer_1" xmlns="http://www.w3.org/2000/svg" xmlns:xlink="http://www.w3.org/1999/xlink" x="0px" y="0px"
	 viewBox="0 0 80 120" style="enable-background:new 0 0 80 120;" xml:space="preserve">
<style type="text/css">
	.st0{fill:#3E52D8;}
	.st1{opacity:0.2;}
	.st2{fill:#3D3D3D;}
	.st3{fill:#FFFFFF;}
	.st4{fill:#050039;}
</style>
<title>face0</title>
<path class="st0" d="M76.6,13.7v91.7c0,6.5-5.2,11.7-11.7,11.7H13.7C7.2,117,2,111.8,2,105.4V13.7C2,7.2,7.2,2,13.7,2h51.2
	C71.4,2,76.6,7.2,76.6,13.7z"/>
<g class="st1">
	<path class="st2" d="M46.2,58.1v8.4c0,5.2-4,8.4-9,8.4c-5,0-9-3.1-9-8.4v-8.4c0-5.2,4-8.4,9-8.4C42.2,49.7,46.2,52.9,46.2,58.1z
		 M42.2,67.7c0.2-0.8,0.2-1.5,0.2-2.3v-6.3c0-0.8-0.1-1.5-0.2-2.3c-0.5-2.4-2.5-3.6-5-3.6s-4.5,1.2-5,3.6c-0.2,0.8-0.2,1.5-0.2,2.3
		v6.3c0,0.8,0.1,1.5,0.2,2.3c0.5,2.3,2.5,3.5,5,3.5S41.6,70.1,42.2,67.7z"/>
</g>
<path class="st3" d="M18.8,14.4v3.9c0,2.4-1.9,3.9-4.2,3.9c-2.3,0-4.2-1.5-4.2-3.9v-3.9c0-2.4,1.9-3.9,4.2-3.9
	C16.9,10.5,18.8,12,18.8,14.4z M16.9,18.9c0.1-0.4,0.1-0.7,0.1-1.1v-2.9c0-0.4,0-0.7-0.1-1.1c-0.2-1.1-1.2-1.8-2.3-1.7
	c-1.1-0.1-2.1,0.6-2.3,1.7c-0.1,0.4-0.1,0.7-0.1,1.1v2.9c0,0.4,0,0.7,0.1,1.1c0.3,1.1,1.3,1.8,2.3,1.7C15.6,20.7,16.6,20,16.9,18.9z
	"/>
<path class="st3" d="M69.2,100.8v3.9c0,2.4-1.9,3.9-4.2,3.9c-2.3,0-4.2-1.5-4.2-3.9v-3.9c0-2.4,1.9-3.9,4.2-3.9
	C67.4,96.9,69.2,98.4,69.2,100.8z M67.4,105.3c0.1-0.4,0.1-0.7,0.1-1.1v-2.9c0-0.4,0-0.7-0.1-1.1c-0.4-1.3-1.8-2-3.1-1.6
	c-0.7,0.2-1.3,0.8-1.6,1.6c-0.1,0.4-0.1,0.7-0.1,1.1v2.9c0,0.4,0,0.7,0.1,1.1c0.4,1.3,1.8,2,3.1,1.5C66.6,106.5,67.1,106,67.4,105.3
	L67.4,105.3z"/>
<g>
	<path class="st3" d="M70,5c2.8,0,5,2.2,5,5v100c0,2.8-2.2,5-5,5H10c-2.8,0-5-2.2-5-5V10c0-2.8,2.2-5,5-5H70 M70,0H10
		C4.5,0,0,4.5,0,10v100c0,5.5,4.5,10,10,10c0,0,0,0,0,0h60c5.5,0,10-4.5,10-10V10C80,4.5,75.5,0,70,0z"/>
	<path class="st4" d="M70,2c4.4,0,8,3.6,8,8v100c0,4.4-3.6,8-8,8H10c-4.4,0-8-3.6-8-8V10c0-4.4,3.6-8,8-8H70 M70,0H10
		C4.5,0,0,4.5,0,10v100c0,5.5,4.5,10,10,10h60c5.5,0,10-4.5,10-10V10C80,4.5,75.5,0,70,0z"/>
</g>
<g>
	<path class="st3" d="M48.9,55.8v8.4c0,5.2-4,8.4-9,8.4c-5,0-9-3.1-9-8.4v-8.4c0-5.2,4-8.4,9-8.4C44.8,47.5,48.9,50.6,48.9,55.8z
		 M44.8,65.5c0.2-0.8,0.2-1.5,0.2-2.3v-6.3c0-0.8-0.1-1.5-0.2-2.3c-0.5-2.4-2.5-3.6-5-3.6s-4.5,1.2-5,3.6c-0.2,0.8-0.2,1.5-0.2,2.3
		v6.3c0,0.8,0.1,1.5,0.2,2.3c0.5,2.3,2.5,3.5,5,3.5S44.3,67.8,44.8,65.5z"/>
	<path class="st4" d="M39.9,72.9c-5.5,0-9.4-3.6-9.4-8.7v-8.4c0-5.1,3.9-8.7,9.4-8.7c5.5,0,9.3,3.6,9.3,8.7v8.4
		C49.2,69.3,45.4,72.9,39.9,72.9z M39.9,47.8c-5.1,0-8.7,3.3-8.7,8v8.4c0,4.7,3.6,8,8.7,8c5.1,0,8.6-3.3,8.6-8v-8.4
		C48.5,51.1,45,47.8,39.9,47.8z M39.9,69.3c-2.8,0-4.8-1.4-5.3-3.8c-0.2-0.8-0.2-1.6-0.3-2.4v-6.3c0-0.8,0.1-1.6,0.2-2.4
		c0.5-2.4,2.5-3.9,5.3-3.9c2.8,0,4.7,1.4,5.3,3.9c0.2,0.8,0.2,1.6,0.3,2.4v6.3c0,0.8-0.1,1.6-0.2,2.4l0,0
		C44.6,67.9,42.7,69.3,39.9,69.3z M39.9,51.3c-2.5,0-4.2,1.2-4.7,3.3c-0.2,0.7-0.2,1.5-0.2,2.2v6.3c0,0.7,0.1,1.5,0.2,2.2
		c0.5,2,2.2,3.3,4.7,3.3c2.5,0,4.2-1.2,4.6-3.3c0.2-0.7,0.2-1.5,0.2-2.2v-6.3c0-0.7-0.1-1.5-0.2-2.2C44.1,52.6,42.3,51.3,39.9,51.3
		L39.9,51.3z M44.8,65.5L44.8,65.5z"/>
</g>
</svg>
