<svg id="Layer_1" data-name="Layer 1" xmlns="http://www.w3.org/2000/svg" viewBox="0 0 120 180">
  <defs>
    <style>
      .cls-1 {
        fill: #3e52d8;
      }

      .cls-2 {
        opacity: 0.2;
      }

      .cls-3 {
        fill: #3d3d3d;
      }

      .cls-4 {
        fill: #fff;
      }

      .cls-5 {
        fill: #050039;
      }
    </style>
  </defs>
  <title>face0</title>
  <rect class="cls-1" x="-27.3761" y="33.3322" width="172.5628" height="111.9133" rx="17.5275" ry="17.5275" transform="translate(148.1941 30.3834) rotate(90)"/>
  <g class="cls-2">
    <path class="cls-3" d="M69.2342,87.17V99.7547c0,7.8525-6.0322,12.5322-13.4687,12.5322-7.54,0-13.5723-4.68-13.5723-12.5322V87.17c0-7.8,6.0322-12.5327,13.5723-12.5327C63.202,74.6375,69.2342,79.37,69.2342,87.17ZM63.202,101.6268a17.3713,17.3713,0,0,0,.3642-3.4322V88.7821A17.3652,17.3652,0,0,0,63.202,85.35c-.78-3.5361-3.6924-5.4082-7.4365-5.4082s-6.708,1.8721-7.4883,5.4082a17.3649,17.3649,0,0,0-.3643,3.4317v9.4125a17.371,17.371,0,0,0,.3643,3.4322c.78,3.4844,3.7441,5.3042,7.4883,5.3042S62.4217,105.1112,63.202,101.6268Z"/>
  </g>
  <path class="cls-4" d="M28.09,21.6613v5.8726c0,3.6645-2.815,5.8483-6.2853,5.8483-3.5187,0-6.3336-2.1838-6.3336-5.8483V21.6613c0-3.64,2.8149-5.8485,6.3336-5.8485C25.275,15.8128,28.09,18.0212,28.09,21.6613Zm-2.815,6.7463a8.1046,8.1046,0,0,0,.17-1.6017V22.4135a8.1006,8.1006,0,0,0-.17-1.6014,3.2585,3.2585,0,0,0-3.47-2.5238A3.2851,3.2851,0,0,0,18.31,20.8121a8.1006,8.1006,0,0,0-.17,1.6014v4.3924a8.1046,8.1046,0,0,0,.17,1.6017,3.271,3.271,0,0,0,3.4945,2.4752A3.2442,3.2442,0,0,0,25.275,28.4076Z"/>
  <path class="cls-4" d="M103.815,151.19v5.8727c0,3.6644-2.815,5.8482-6.2853,5.8482-3.5186,0-6.3336-2.1838-6.3336-5.8482V151.19c0-3.64,2.815-5.8485,6.3336-5.8485C101,145.341,103.815,147.5494,103.815,151.19ZM101,157.9358a8.1038,8.1038,0,0,0,.17-1.6017v-4.3924A8.1006,8.1006,0,0,0,101,150.34a3.6644,3.6644,0,0,0-6.9648,0,8.1006,8.1006,0,0,0-.17,1.6014v4.3924a8.1038,8.1038,0,0,0,.17,1.6017,3.6873,3.6873,0,0,0,6.9648,0Z"/>
  <g>
    <path class="cls-4" d="M104.9546,7.53a7.5014,7.5014,0,0,1,7.4941,7.4917V165.0379a7.5013,7.5013,0,0,1-7.4941,7.4916H14.9428a7.5013,7.5013,0,0,1-7.4941-7.4916V15.0212A7.5014,7.5014,0,0,1,14.9428,7.53h90.0118m0-7.5H14.9428A14.9929,14.9929,0,0,0-.0513,15.0212V165.0379A14.9929,14.9929,0,0,0,14.9428,180.03h90.0118a14.9929,14.9929,0,0,0,14.9941-14.9916V15.0212A14.9929,14.9929,0,0,0,104.9546.03Z"/>
    <path class="cls-5" d="M104.9546,3.0148a12.0064,12.0064,0,0,1,11.9941,11.9916V165.0231a12.0065,12.0065,0,0,1-11.9941,11.9917H14.9429A12.0066,12.0066,0,0,1,2.9487,165.0231V15.0064A12.0065,12.0065,0,0,1,14.9429,3.0148h90.0117m0-3H14.9429A14.9929,14.9929,0,0,0-.0513,15.0064V165.0231a14.993,14.993,0,0,0,14.9942,14.9917h90.0117a14.993,14.993,0,0,0,14.9941-14.9917V15.0064A14.9929,14.9929,0,0,0,104.9546.0148Z"/>
  </g>
  <g>
    <path class="cls-4" d="M73.25,83.7375V96.322c0,7.8525-6.0322,12.5322-13.4688,12.5322-7.54,0-13.5722-4.68-13.5722-12.5322V83.7375c0-7.8,6.0322-12.5327,13.5722-12.5327C67.2178,71.2048,73.25,75.9372,73.25,83.7375ZM67.2178,98.1941a17.371,17.371,0,0,0,.3642-3.4321V85.3494a17.366,17.366,0,0,0-.3642-3.4317c-.78-3.5361-3.6924-5.4082-7.4366-5.4082s-6.708,1.8721-7.4882,5.4082a17.3657,17.3657,0,0,0-.3643,3.4317V94.762a17.3707,17.3707,0,0,0,.3643,3.4321c.78,3.4844,3.7441,5.3042,7.4882,5.3042S66.4375,101.6785,67.2178,98.1941Z"/>
    <path class="cls-5" d="M59.7812,109.3543c-8.2851,0-14.0722-5.3594-14.0722-13.0322V83.7371c0-7.6728,5.7871-13.0322,14.0722-13.0322,8.2247,0,13.9688,5.3594,13.9688,13.0322v12.585C73.75,103.9949,68.0059,109.3543,59.7812,109.3543Zm0-37.6494c-7.6962,0-13.0722,4.9483-13.0722,12.0322v12.585c0,7.084,5.376,12.0322,13.0722,12.0322,7.6358,0,12.9688-4.9482,12.9688-12.0322V83.7371C72.75,76.6532,67.417,71.7049,59.7812,71.7049Zm0,32.293c-4.1962,0-7.1777-2.1289-7.9765-5.6944a17.9083,17.9083,0,0,1-.376-3.542V85.3494a17.8386,17.8386,0,0,1,.374-3.5293c.8037-3.6425,3.7852-5.81,7.9785-5.81,4.1612,0,7.1231,2.168,7.9249,5.8008a17.8652,17.8652,0,0,1,.3759,3.539v9.4121a17.8392,17.8392,0,0,1-.374,3.53l-.0019.0117C66.9072,101.869,63.9443,103.9979,59.7812,103.9979Zm0-26.9883c-3.69,0-6.3066,1.875-7,5.0156a16.8845,16.8845,0,0,0-.3525,3.3242v9.4121a16.9143,16.9143,0,0,0,.3545,3.335c.6865,3.0645,3.3037,4.9014,6.998,4.9014,3.7149,0,6.2461-1.7881,6.9473-4.9072a16.8392,16.8392,0,0,0,.3535-3.3292V85.3494a16.9115,16.9115,0,0,0-.3545-3.3339C66.0361,78.8846,63.44,77.01,59.7812,77.01Zm7.4366,21.1846h0Z"/>
  </g>
</svg>
