<svg id="Layer_1" data-name="Layer 1" xmlns="http://www.w3.org/2000/svg" viewBox="0 0 120 180">
  <defs>
    <style>
      .cls-1 {
        fill: #fff9df;
      }

      .cls-2 {
        fill: #fff;
      }

      .cls-3 {
        fill: #050039;
      }

      .cls-4 {
        fill: #ffbebe;
      }

      .cls-5 {
        opacity: 0.2;
      }

      .cls-6 {
        fill: #3d3d3d;
      }
    </style>
  </defs>
  <title>face1</title>
  <rect class="cls-1" x="-27.3761" y="33.3322" width="172.5628" height="111.9133" rx="17.5275" ry="17.5275" transform="translate(148.1941 30.3834) rotate(90)"/>
  <path class="cls-2" d="M104.9546,7.53a7.5014,7.5014,0,0,1,7.4941,7.4917V165.0379a7.5013,7.5013,0,0,1-7.4941,7.4916H14.9428a7.5013,7.5013,0,0,1-7.4941-7.4916V15.0212A7.5014,7.5014,0,0,1,14.9428,7.53h90.0118m0-7.5H14.9428A14.9929,14.9929,0,0,0-.0513,15.0212V165.0379A14.9929,14.9929,0,0,0,14.9428,180.03h90.0118a14.9929,14.9929,0,0,0,14.9941-14.9916V15.0212A14.9929,14.9929,0,0,0,104.9546.03Z"/>
  <path class="cls-3" d="M104.9546,3.0148a12.0064,12.0064,0,0,1,11.9941,11.9916V165.0231a12.0065,12.0065,0,0,1-11.9941,11.9917H14.9429A12.0066,12.0066,0,0,1,2.9487,165.0231V15.0064A12.0065,12.0065,0,0,1,14.9429,3.0148h90.0117m0-3H14.9429A14.9929,14.9929,0,0,0-.0513,15.0064V165.0231a14.993,14.993,0,0,0,14.9942,14.9917h90.0117a14.993,14.993,0,0,0,14.9941-14.9917V15.0064A14.9929,14.9929,0,0,0,104.9546.0148Z"/>
  <circle class="cls-4" cx="51.333" cy="68.7271" r="34.5946"/>
  <path class="cls-3" d="M18.6553,20.4033H14.8545V18.041l1.93-.083a1.77,1.77,0,0,0,1.9336-1.8975l.0342-.4873h2.7939V31.67H18.6543Z"/>
  <path class="cls-3" d="M102.1123,153.0254H98.3115v-2.3623l1.93-.082a1.7715,1.7715,0,0,0,1.9336-1.8975l.0342-.4883h2.7939V164.292h-2.8916Z"/>
  <g class="cls-5">
    <path class="cls-6" d="M57.6348,81.5H49.04V76.1582l4.3643-.1855c2.8408-.1211,7.0731-2.2084,7.2918-5.08h.4167l3.0591-.3151V106.98H57.6338Z"/>
  </g>
  <path class="cls-3" d="M60.9443,79.01H52.35V73.6682l4.3643-.1856c2.8408-.1211,4.1533-1.4209,4.372-4.292l.0782-1.1025h6.3173V104.49h-6.538Z"/>
  <path class="cls-3" d="M84.4834,113.5518H81.8887a.5.5,0,0,1,0-1h2.5947a.5.5,0,0,1,0,1Zm-6.0547,0H75.834a.5.5,0,0,1,0-1h2.5947a.5.5,0,0,1,0,1Zm-6.0537,0H69.78a.5.5,0,0,1,0-1H72.375a.5.5,0,0,1,0,1Zm-6.0537,0H63.7266a.5.5,0,0,1,0-1h2.5947a.5.5,0,0,1,0,1Zm-6.0547,0H57.6719a.5.5,0,0,1,0-1h2.5947a.5.5,0,0,1,0,1Zm-6.0537,0H51.6182a.5.5,0,0,1,0-1h2.5947a.5.5,0,1,1,0,1Z"/>
</svg>
