<?xml version="1.0" encoding="utf-8"?>
<!-- Generator: Adobe Illustrator 24.0.3, SVG Export Plug-In . SVG Version: 6.00 Build 0)  -->
<svg version="1.1" id="Layer_1" xmlns="http://www.w3.org/2000/svg" xmlns:xlink="http://www.w3.org/1999/xlink" x="0px" y="0px"
	 viewBox="0 0 80 120" style="enable-background:new 0 0 80 120;" xml:space="preserve">
<style type="text/css">
	.st0{fill:#FFF9DF;}
	.st1{fill:#FFFFFF;}
	.st2{fill:#050039;}
	.st3{fill:#FFBEBE;}
	.st4{opacity:0.2;}
	.st5{fill:#3D3D3D;}
</style>
<title>face1</title>
<path class="st0" d="M76.6,13.7v91.7c0,6.5-5.2,11.7-11.7,11.7H13.7C7.2,117,2,111.8,2,105.4V13.7C2,7.2,7.2,2,13.7,2h51.2
	C71.4,2,76.6,7.2,76.6,13.7z"/>
<path class="st1" d="M70,5c2.8,0,5,2.2,5,5v100c0,2.8-2.2,5-5,5H10c-2.8,0-5-2.2-5-5V10c0-2.8,2.2-5,5-5H70 M70,0H10
	C4.5,0,0,4.5,0,10v100c0,5.5,4.5,10,10,10c0,0,0,0,0,0h60c5.5,0,10-4.5,10-10V10C80,4.5,75.5,0,70,0z"/>
<path class="st2" d="M70,2c4.4,0,8,3.6,8,8v100c0,4.4-3.6,8-8,8H10c-4.4,0-8-3.6-8-8V10c0-4.4,3.6-8,8-8H70 M70,0H10
	C4.5,0,0,4.5,0,10v100c0,5.5,4.5,10,10,10h60c5.5,0,10-4.5,10-10V10C80,4.5,75.5,0,70,0z"/>
<circle class="st3" cx="34.3" cy="45.8" r="23.1"/>
<path class="st2" d="M12.5,13.6H9.9V12l1.3-0.1c0.6,0.1,1.2-0.4,1.3-1.1c0-0.1,0-0.1,0-0.2l0-0.3h1.9v10.7h-1.9L12.5,13.6z"/>
<path class="st2" d="M68.1,102h-2.5v-1.6l1.3-0.1c0.6,0.1,1.2-0.4,1.3-1.1c0-0.1,0-0.1,0-0.2l0-0.3H70v10.7h-1.9L68.1,102z"/>
<g class="st4">
	<path class="st5" d="M38.5,54.3h-5.7v-3.6l2.9-0.1c1.9-0.1,4.7-1.5,4.9-3.4h0.3l2-0.2v24.3h-4.4L38.5,54.3z"/>
</g>
<path class="st2" d="M40.7,52.7h-5.7v-3.6l2.9-0.1c1.9-0.1,2.8-0.9,2.9-2.9l0.1-0.7H45v24.3h-4.4L40.7,52.7z"/>
<path class="st2" d="M56.4,75.7h-1.7c-0.2,0-0.3-0.1-0.3-0.3s0.1-0.3,0.3-0.3h1.7c0.2,0,0.3,0.1,0.3,0.3S56.5,75.7,56.4,75.7z
	 M52.3,75.7h-1.7c-0.2,0-0.3-0.1-0.3-0.3s0.1-0.3,0.3-0.3h1.7c0.2,0,0.3,0.1,0.3,0.3S52.5,75.7,52.3,75.7z M48.3,75.7h-1.7
	c-0.2,0-0.3-0.1-0.3-0.3s0.1-0.3,0.3-0.3h1.7c0.2,0,0.3,0.1,0.3,0.3S48.5,75.7,48.3,75.7z M44.2,75.7h-1.7c-0.2,0-0.3-0.1-0.3-0.3
	s0.1-0.3,0.3-0.3h1.7c0.2,0,0.3,0.1,0.3,0.3S44.4,75.7,44.2,75.7L44.2,75.7z M40.2,75.7h-1.7c-0.2,0-0.3-0.1-0.3-0.3
	s0.1-0.3,0.3-0.3h1.7c0.2,0,0.3,0.1,0.3,0.3S40.4,75.7,40.2,75.7L40.2,75.7z M36.2,75.7h-1.7c-0.2,0-0.3-0.1-0.3-0.3
	s0.1-0.3,0.3-0.3h1.7c0.2,0,0.3,0.1,0.3,0.3S36.4,75.7,36.2,75.7z"/>
</svg>
