<?xml version="1.0" encoding="utf-8"?>
<!-- Generator: Adobe Illustrator 24.0.3, SVG Export Plug-In . SVG Version: 6.00 Build 0)  -->
<svg version="1.1" id="Layer_1" xmlns="http://www.w3.org/2000/svg" xmlns:xlink="http://www.w3.org/1999/xlink" x="0px" y="0px"
	 viewBox="0 0 80 120" style="enable-background:new 0 0 80 120;" xml:space="preserve">
<style type="text/css">
	.st0{fill:#FFF9DF;}
	.st1{fill:#050039;}
	.st2{opacity:0.19;}
	.st3{fill:#3D3D3D;}
	.st4{fill:#FFFFFF;}
	.st5{fill:#FFBEBE;}
</style>
<title>face100</title>
<path class="st0" d="M76.6,13.7v91.7c0,6.5-5.2,11.7-11.7,11.7H13.7C7.2,117,2,111.8,2,105.4V13.7C2,7.2,7.2,2,13.7,2h51.2
	C71.4,2,76.6,7.2,76.6,13.7z"/>
<g>
	<path class="st1" d="M13.4,13.9h-2.5v-1.6l1.3-0.1c0.6,0.1,1.2-0.4,1.3-1.1c0-0.1,0-0.1,0-0.2l0-0.3h1.9v10.7h-1.9L13.4,13.9z"/>
	<path class="st1" d="M28.7,16c0,3-2.5,5.5-5.5,5.5c-0.1,0-0.2,0-0.3,0c-3,0.1-5.6-2.2-5.7-5.3s2.2-5.6,5.3-5.7c0.2,0,0.3,0,0.5,0
		c3-0.1,5.6,2.2,5.7,5.3C28.7,15.9,28.7,15.9,28.7,16z M19.2,16c0,0.7,0.2,1.4,0.6,2.1l5.3-5.3c-0.6-0.4-1.3-0.5-2-0.5
		c-2-0.1-3.7,1.5-3.8,3.5C19.2,15.8,19.2,15.9,19.2,16z M26.8,16c0-0.7-0.2-1.4-0.6-2L21,19.3c0.6,0.3,1.3,0.5,2,0.5
		c2,0.1,3.7-1.5,3.8-3.5C26.8,16.2,26.8,16.1,26.8,16L26.8,16z"/>
	<path class="st1" d="M41.7,16c0,3-2.5,5.5-5.5,5.5c-0.1,0-0.2,0-0.3,0c-3,0.1-5.6-2.2-5.7-5.3c-0.1-3,2.2-5.6,5.3-5.7
		c0.2,0,0.3,0,0.5,0c3-0.1,5.6,2.2,5.7,5.3C41.7,15.9,41.7,15.9,41.7,16z M32.1,16c0,0.7,0.2,1.4,0.6,2.1l5.3-5.3
		c-0.6-0.4-1.3-0.5-2-0.5c-2-0.1-3.7,1.5-3.8,3.5C32.1,15.8,32.1,15.9,32.1,16z M39.8,16c0-0.7-0.2-1.4-0.6-2l-5.3,5.3
		c0.6,0.3,1.3,0.5,2,0.5c2,0.1,3.7-1.5,3.8-3.5C39.8,16.2,39.8,16.1,39.8,16L39.8,16z"/>
</g>
<g>
	<path class="st1" d="M42.1,101.7h-2.5v-1.6l1.3-0.1c0.6,0.1,1.2-0.4,1.3-1.1c0-0.1,0-0.1,0-0.2l0-0.3h1.9v10.7h-1.9L42.1,101.7z"/>
	<path class="st1" d="M57.5,103.8c0.1,3.2-2.3,5.9-5.5,6c-3.2,0.1-5.9-2.3-6-5.5s2.3-5.9,5.5-6c0.1,0,0.2,0,0.2,0
		c3-0.1,5.6,2.2,5.7,5.3C57.5,103.7,57.5,103.7,57.5,103.8z M47.9,103.8c0,0.7,0.2,1.4,0.6,2.1l5.3-5.3c-0.6-0.4-1.3-0.5-2-0.5
		c-2-0.1-3.7,1.5-3.8,3.5C47.9,103.6,47.9,103.7,47.9,103.8z M55.5,103.8c0-0.7-0.2-1.4-0.6-2l-5.3,5.3c0.6,0.3,1.3,0.5,2,0.5
		c2,0.1,3.7-1.5,3.8-3.5C55.5,104,55.5,103.9,55.5,103.8L55.5,103.8z"/>
	<path class="st1" d="M70.4,103.8c0.1,3.2-2.3,5.9-5.5,6c-3.2,0.1-5.9-2.3-6-5.5s2.3-5.9,5.5-6c0.1,0,0.2,0,0.2,0
		c3-0.1,5.6,2.2,5.7,5.3C70.4,103.7,70.4,103.7,70.4,103.8z M60.8,103.8c0,0.7,0.2,1.4,0.6,2.1l5.3-5.3c-0.6-0.4-1.3-0.5-2-0.5
		c-2-0.1-3.7,1.5-3.8,3.5C60.8,103.6,60.8,103.7,60.8,103.8z M68.5,103.8c0-0.7-0.2-1.4-0.6-2l-5.3,5.3c0.6,0.3,1.3,0.5,2,0.5
		c2,0.1,3.7-1.5,3.8-3.5C68.5,104,68.5,103.9,68.5,103.8L68.5,103.8z"/>
</g>
<g class="st2">
	<path class="st3" d="M15.1,57.4h-4.6v-2.9l2.4-0.1c1.5-0.1,2.2-0.8,2.4-2.3l0-0.6h3.4v19.6h-3.5L15.1,57.4z"/>
	<path class="st3" d="M43.1,61.3c0,5.8-4.5,10.1-10.5,10.1c-6,0-10.5-4.3-10.5-10.1s4.5-10.1,10.5-10.1
		C38.6,51.2,43.1,55.6,43.1,61.3z M25.6,61.3c0,1.3,0.3,2.6,1,3.8l9.7-9.7c-1.1-0.6-2.4-1-3.7-1C28.5,54.4,25.6,57.3,25.6,61.3z
		 M39.6,61.3c0-1.3-0.3-2.6-1-3.7l-9.7,9.7c1.1,0.6,2.4,1,3.7,0.9c3.7,0.2,6.8-2.7,7-6.4C39.6,61.6,39.6,61.5,39.6,61.3z"/>
	<path class="st3" d="M66.8,61.3c0,5.8-4.5,10.1-10.5,10.1c-6,0-10.5-4.3-10.5-10.1s4.5-10.1,10.5-10.1
		C62.2,51.2,66.8,55.6,66.8,61.3z M49.3,61.3c0,1.3,0.3,2.6,1,3.8l9.7-9.7c-1.1-0.6-2.4-1-3.7-1C52.2,54.4,49.3,57.3,49.3,61.3z
		 M63.2,61.3c0-1.3-0.3-2.6-1-3.7l-9.7,9.7c1.1,0.6,2.4,1,3.7,0.9c3.7,0.2,6.8-2.7,7-6.4C63.2,61.6,63.2,61.5,63.2,61.3z"/>
</g>
<g>
	<path class="st4" d="M70,5c2.8,0,5,2.2,5,5v100c0,2.8-2.2,5-5,5H10c-2.8,0-5-2.2-5-5V10c0-2.8,2.2-5,5-5H70 M70,0H10
		C4.5,0,0,4.5,0,10v100c0,5.5,4.5,10,10,10c0,0,0,0,0,0h60c5.5,0,10-4.5,10-10V10C80,4.5,75.5,0,70,0z"/>
	<path class="st1" d="M70,2c4.4,0,8,3.6,8,8v100c0,4.4-3.6,8-8,8H10c-4.4,0-8-3.6-8-8V10c0-4.4,3.6-8,8-8H70 M70,0H10
		C4.5,0,0,4.5,0,10v100c0,5.5,4.5,10,10,10h60c5.5,0,10-4.5,10-10V10C80,4.5,75.5,0,70,0z"/>
</g>
<g>
	<circle class="st5" cx="13.2" cy="28.7" r="3.6"/>
	<circle class="st5" cx="26.6" cy="28.7" r="3.6"/>
	<circle class="st5" cx="40" cy="28.7" r="3.6"/>
	<circle class="st5" cx="53.5" cy="28.7" r="3.6"/>
	<circle class="st5" cx="66.9" cy="28.7" r="3.6"/>
	<circle class="st5" cx="13.2" cy="41.4" r="3.6"/>
	<circle class="st5" cx="26.6" cy="41.4" r="3.6"/>
	<circle class="st5" cx="40" cy="41.4" r="3.6"/>
	<circle class="st5" cx="53.5" cy="41.4" r="3.6"/>
	<circle class="st5" cx="66.9" cy="41.4" r="3.6"/>
	<circle class="st5" cx="13.2" cy="79.3" r="3.6"/>
	<circle class="st5" cx="26.6" cy="79.3" r="3.6"/>
	<circle class="st5" cx="40" cy="79.3" r="3.6"/>
	<circle class="st5" cx="53.5" cy="79.3" r="3.6"/>
	<circle class="st5" cx="66.9" cy="79.3" r="3.6"/>
	<circle class="st5" cx="13.2" cy="91.9" r="3.6"/>
	<circle class="st5" cx="26.6" cy="91.9" r="3.6"/>
	<circle class="st5" cx="40" cy="91.9" r="3.6"/>
	<circle class="st5" cx="53.5" cy="91.9" r="3.6"/>
	<circle class="st5" cx="66.9" cy="91.9" r="3.6"/>
	<circle class="st5" cx="13.2" cy="104.6" r="3.6"/>
	<circle class="st5" cx="26.6" cy="104.6" r="3.6"/>
	<circle class="st5" cx="53.5" cy="16.1" r="3.6"/>
	<circle class="st5" cx="66.9" cy="16.1" r="3.6"/>
</g>
<g>
	<path class="st1" d="M17.2,55.8h-4.6v-2.9l2.4-0.1c1.5-0.1,2.2-0.8,2.4-2.3l0-0.6h3.4v19.6h-3.5L17.2,55.8z"/>
	<path class="st1" d="M45.1,59.7c0,5.8-4.5,10.1-10.5,10.1c-6,0-10.5-4.3-10.5-10.1s4.5-10.1,10.5-10.1
		C40.6,49.6,45.1,53.9,45.1,59.7z M27.7,59.7c0,1.3,0.3,2.6,1,3.8l9.7-9.7c-1.1-0.6-2.4-1-3.7-1C30.6,52.8,27.7,55.7,27.7,59.7z
		 M41.6,59.7c0-1.3-0.3-2.6-1-3.7l-9.7,9.7c1.1,0.6,2.4,1,3.7,0.9c3.7,0.2,6.8-2.7,7-6.4C41.6,60,41.6,59.9,41.6,59.7z"/>
	<path class="st1" d="M68.8,59.7c0,5.8-4.5,10.1-10.5,10.1c-6,0-10.5-4.3-10.5-10.1s4.5-10.1,10.5-10.1
		C64.3,49.6,68.8,53.9,68.8,59.7z M51.3,59.7c0,1.3,0.3,2.6,1,3.8l9.7-9.7c-1.1-0.6-2.4-1-3.7-1C54.2,52.8,51.3,55.7,51.3,59.7z
		 M65.2,59.7c0-1.3-0.3-2.6-1-3.7l-9.7,9.7c1.1,0.6,2.4,1,3.7,0.9c3.7,0.2,6.8-2.7,7-6.4C65.2,60,65.2,59.9,65.2,59.7z"/>
</g>
</svg>
