<svg id="Layer_1" data-name="Layer 1" xmlns="http://www.w3.org/2000/svg" viewBox="0 0 120 180">
  <defs>
    <style>
      .cls-1 {
        fill: #fff9df;
      }

      .cls-2 {
        fill: #ffbebe;
      }

      .cls-3 {
        fill: #050039;
      }

      .cls-4 {
        opacity: 0.19;
      }

      .cls-5 {
        fill: #3d3d3d;
      }

      .cls-6 {
        fill: #fff;
      }
    </style>
  </defs>
  <title>face13</title>
  <rect class="cls-1" x="-27.3761" y="33.3322" width="172.5628" height="111.9133" rx="17.5275" ry="17.5275" transform="translate(148.1941 30.3834) rotate(90)"/>
  <g>
    <circle class="cls-2" cx="19.7369" cy="42.0947" r="5.4673"/>
    <circle class="cls-2" cx="39.8685" cy="42.0947" r="5.4673"/>
    <circle class="cls-2" cx="60" cy="42.0947" r="5.4673"/>
    <circle class="cls-2" cx="80.1315" cy="42.0947" r="5.4673"/>
    <circle class="cls-2" cx="100.2631" cy="42.0947" r="5.4673"/>
    <circle class="cls-2" cx="19.7369" cy="136.8909" r="5.4673"/>
    <circle class="cls-2" cx="80.1315" cy="136.8909" r="5.4673"/>
    <circle class="cls-2" cx="100.2631" cy="136.8909" r="5.4673"/>
    <circle class="cls-2" cx="19.7369" cy="155.8501" r="5.4673"/>
    <circle class="cls-2" cx="39.8685" cy="155.8501" r="5.4673"/>
    <circle class="cls-2" cx="60" cy="155.8501" r="5.4673"/>
    <circle class="cls-2" cx="60" cy="23.1354" r="5.4673"/>
    <circle class="cls-2" cx="80.1315" cy="23.1354" r="5.4673"/>
    <circle class="cls-2" cx="100.2631" cy="23.1354" r="5.4673"/>
  </g>
  <g>
    <path class="cls-3" d="M19.6549,20.4033H15.8542V18.041l1.93-.082a1.7713,1.7713,0,0,0,1.9336-1.8975l.0342-.4883h2.794V31.67H19.654Z"/>
    <path class="cls-3" d="M38.4,26.2236c0,3.3526-2.6562,5.6768-6.496,5.6768-4.0118,0-6.6993-2.5322-6.5889-6.3311h3.0918a3.4242,3.4242,0,0,0,3.5752,3.7159,3.0532,3.0532,0,0,0,3.3388-3.1114A3.1394,3.1394,0,0,0,31.89,22.9961a4.7408,4.7408,0,0,0-2.1065.4805L28.692,21.4277c1.6719-1.122,3.35-2.2451,5.13-3.3681-1.5185.0713-3.8984.0752-4.9375.0752H26.0172V15.5732H37.21v2.6612l-4.2109,2.7119C36.2438,21.0273,38.4,23.17,38.4,26.2236Z"/>
  </g>
  <g>
    <path class="cls-3" d="M86.0905,153.0254H82.29v-2.3623l1.93-.082a1.7715,1.7715,0,0,0,1.9336-1.8975l.0342-.4883h2.7939V164.292H86.09Z"/>
    <path class="cls-3" d="M104.8356,158.8457c0,3.3525-2.6563,5.6768-6.4961,5.6768-4.0117,0-6.6992-2.5323-6.5889-6.3311h3.0918a3.4241,3.4241,0,0,0,3.5752,3.7158,3.0532,3.0532,0,0,0,3.3389-3.1113,3.14,3.14,0,0,0-3.4307-3.1777,4.7417,4.7417,0,0,0-2.1064.48L95.1276,154.05c1.6719-1.1221,3.35-2.2451,5.13-3.3682-1.5186.0713-3.8985.0752-4.9375.0752H92.4528v-2.5615h11.1924v2.6611l-4.211,2.712C102.6793,153.6494,104.8356,155.792,104.8356,158.8457Z"/>
  </g>
  <g class="cls-4">
    <path class="cls-5" d="M40.7741,81.001H32.1793V75.6592l4.3643-.1865c2.8408-.1211,7.9294-1.4209,8.1481-4.292l1.4167-1.1016h1.2028v36.4H40.7731Z"/>
    <path class="cls-5" d="M83.1608,94.1631c0,7.582-6.0078,12.8369-14.69,12.8369-9.0723,0-15.1514-5.7256-14.9024-14.3154h6.9932c.0117,5.1367,3.2236,8.4023,8.084,8.4023,4.5244,0,7.5507-2.8125,7.5507-7.0371,0-4.2793-3.12-7.1865-7.7587-7.1865a10.6953,10.6953,0,0,0-4.7618,1.0888l-2.47-4.6337c3.78-2.54,7.5742-5.0791,11.6016-7.6182-3.4346.1621-8.8164.17-11.166.17H55.1579v-5.791H80.4684v6.0156l-9.5225,6.1338C78.2829,82.4131,83.1608,87.2568,83.1608,94.1631Z"/>
  </g>
  <g>
    <path class="cls-6" d="M104.9546,7.53a7.5014,7.5014,0,0,1,7.4941,7.4917V165.0379a7.5013,7.5013,0,0,1-7.4941,7.4916H14.9428a7.5013,7.5013,0,0,1-7.4941-7.4916V15.0212A7.5014,7.5014,0,0,1,14.9428,7.53h90.0118m0-7.5H14.9428A14.9929,14.9929,0,0,0-.0513,15.0212V165.0379A14.9929,14.9929,0,0,0,14.9428,180.03h90.0118a14.9929,14.9929,0,0,0,14.9941-14.9916V15.0212A14.9929,14.9929,0,0,0,104.9546.03Z"/>
    <path class="cls-3" d="M104.9546,3.0148a12.0064,12.0064,0,0,1,11.9941,11.9916V165.0231a12.0065,12.0065,0,0,1-11.9941,11.9917H14.9429A12.0066,12.0066,0,0,1,2.9487,165.0231V15.0064A12.0065,12.0065,0,0,1,14.9429,3.0148h90.0117m0-3H14.9429A14.9929,14.9929,0,0,0-.0513,15.0064V165.0231a14.993,14.993,0,0,0,14.9942,14.9917h90.0117a14.993,14.993,0,0,0,14.9941-14.9917V15.0064A14.9929,14.9929,0,0,0,104.9546.0148Z"/>
  </g>
  <g>
    <path class="cls-3" d="M44.0241,78.9785H35.4293V73.6367l4.3643-.1865c2.8408-.1211,4.1533-1.4209,4.3721-4.292l.0781-1.1016h6.3174v36.4H44.0231Z"/>
    <path class="cls-3" d="M86.4108,92.1406c0,7.5821-6.0078,12.8369-14.69,12.8369-9.0723,0-15.1514-5.7255-14.9024-14.3154h6.9932c.0117,5.1367,3.2236,8.4024,8.084,8.4024,4.5244,0,7.5507-2.8125,7.5507-7.0372,0-4.2793-3.12-7.1865-7.7587-7.1865A10.6939,10.6939,0,0,0,66.9254,85.93l-2.47-4.6338c3.78-2.54,7.5742-5.0791,11.6016-7.6182-3.4346.1621-8.8164.17-11.166.17H58.4079V68.0566H83.7184v6.0157l-9.5225,6.1338C81.5329,80.3906,86.4108,85.2344,86.4108,92.1406Z"/>
  </g>
</svg>
