<?xml version="1.0" encoding="utf-8"?>
<!-- Generator: Adobe Illustrator 24.0.3, SVG Export Plug-In . SVG Version: 6.00 Build 0)  -->
<svg version="1.1" id="Layer_1" xmlns="http://www.w3.org/2000/svg" xmlns:xlink="http://www.w3.org/1999/xlink" x="0px" y="0px"
	 viewBox="0 0 80 120" style="enable-background:new 0 0 80 120;" xml:space="preserve">
<style type="text/css">
	.st0{fill:#FFF9DF;}
	.st1{fill:#FFBEBE;}
	.st2{fill:#050039;}
	.st3{opacity:0.19;}
	.st4{fill:#3D3D3D;}
	.st5{fill:#FFFFFF;}
</style>
<title>face13</title>
<path class="st0" d="M76.6,13.7v91.7c0,6.5-5.2,11.7-11.7,11.7H13.7C7.2,117,2,111.8,2,105.4V13.7C2,7.2,7.2,2,13.7,2h51.2
	C71.4,2,76.6,7.2,76.6,13.7z"/>
<g>
	<circle class="st1" cx="13.2" cy="28.1" r="3.6"/>
	<circle class="st1" cx="26.6" cy="28.1" r="3.6"/>
	<circle class="st1" cx="40" cy="28.1" r="3.6"/>
	<circle class="st1" cx="53.5" cy="28.1" r="3.6"/>
	<circle class="st1" cx="13.2" cy="91.3" r="3.6"/>
	<circle class="st1" cx="53.5" cy="91.3" r="3.6"/>
	<circle class="st1" cx="66.9" cy="91.3" r="3.6"/>
	<circle class="st1" cx="13.2" cy="103.9" r="3.6"/>
	<circle class="st1" cx="26.6" cy="103.9" r="3.6"/>
	<circle class="st1" cx="40" cy="103.9" r="3.6"/>
	<circle class="st1" cx="40" cy="15.4" r="3.6"/>
	<circle class="st1" cx="53.5" cy="15.4" r="3.6"/>
	<circle class="st1" cx="66.9" cy="15.4" r="3.6"/>
</g>
<g>
	<path class="st2" d="M13.1,13.6h-2.5V12l1.3-0.1c0.6,0.1,1.2-0.4,1.3-1.1c0-0.1,0-0.1,0-0.2l0-0.3h1.9v10.7h-1.9L13.1,13.6z"/>
	<path class="st2" d="M25.6,17.5c0,2.2-1.8,3.8-4.3,3.8c-2.7,0-4.5-1.7-4.4-4.2H19c-0.1,1.3,0.8,2.4,2.1,2.5c0.1,0,0.2,0,0.3,0
		c1.1,0.1,2.1-0.7,2.2-1.8c0-0.1,0-0.2,0-0.2c0-1.2-0.9-2.1-2.1-2.1c-0.1,0-0.2,0-0.2,0c-0.5,0-1,0.1-1.4,0.3l-0.7-1.4
		c1.1-0.7,2.2-1.5,3.4-2.2c-1,0-2.6,0.1-3.3,0.1h-1.9v-1.7h7.5v1.8L22,14C24.2,14,25.6,15.4,25.6,17.5z"/>
</g>
<g>
	<path class="st2" d="M57.4,102h-2.5v-1.6l1.3-0.1c0.6,0.1,1.2-0.4,1.3-1.1c0-0.1,0-0.1,0-0.2l0-0.3h1.9v10.7h-1.9L57.4,102z"/>
	<path class="st2" d="M69.9,105.9c0,2.2-1.8,3.8-4.3,3.8c-2.7,0-4.5-1.7-4.4-4.2h2.1c-0.1,1.3,0.8,2.4,2.1,2.5c0.1,0,0.2,0,0.3,0
		c1.1,0.1,2.1-0.7,2.2-1.8c0-0.1,0-0.2,0-0.2c0-1.2-0.9-2.1-2.1-2.1c-0.1,0-0.2,0-0.2,0c-0.5,0-1,0.1-1.4,0.3l-0.7-1.4
		c1.1-0.7,2.2-1.5,3.4-2.2c-1,0-2.6,0.1-3.3,0.1h-1.9v-1.7h7.5v1.8l-2.8,1.8C68.5,102.4,69.9,103.9,69.9,105.9z"/>
</g>
<g class="st3">
	<path class="st4" d="M27.2,54h-5.7v-3.6l2.9-0.1c1.9-0.1,5.3-0.9,5.4-2.9l0.9-0.7h0.8V71h-4.4L27.2,54z"/>
	<path class="st4" d="M55.5,62.8c0,5.1-4,8.6-9.8,8.6c-6,0-10.1-3.8-9.9-9.5h4.7c0,3.4,2.1,5.6,5.4,5.6c3,0,5-1.9,5-4.7
		c0-2.9-2.1-4.8-5.2-4.8c-1.1,0-2.2,0.2-3.2,0.7l-1.6-3.1c2.5-1.7,5-3.4,7.7-5.1c-2.3,0.1-5.9,0.1-7.4,0.1h-4.3v-3.9h16.9v4
		l-6.3,4.1C52.2,54.9,55.5,58.2,55.5,62.8z"/>
</g>
<g>
	<path class="st5" d="M70,5c2.8,0,5,2.2,5,5v100c0,2.8-2.2,5-5,5H10c-2.8,0-5-2.2-5-5V10c0-2.8,2.2-5,5-5H70 M70,0H10
		C4.5,0,0,4.5,0,10v100c0,5.5,4.5,10,10,10c0,0,0,0,0,0h60c5.5,0,10-4.5,10-10V10C80,4.5,75.5,0,70,0z"/>
	<path class="st2" d="M70,2c4.4,0,8,3.6,8,8v100c0,4.4-3.6,8-8,8H10c-4.4,0-8-3.6-8-8V10c0-4.4,3.6-8,8-8H70 M70,0H10
		C4.5,0,0,4.5,0,10v100c0,5.5,4.5,10,10,10h60c5.5,0,10-4.5,10-10V10C80,4.5,75.5,0,70,0z"/>
</g>
<g>
	<path class="st2" d="M29.4,52.6h-5.7v-3.6l2.9-0.1c1.9-0.1,2.8-0.9,2.9-2.9l0.1-0.7h4.2v24.3h-4.4L29.4,52.6z"/>
	<path class="st2" d="M57.6,61.4c0,5.1-4,8.6-9.8,8.6c-6,0-10.1-3.8-9.9-9.5h4.7c0,3.4,2.1,5.6,5.4,5.6c3,0,5-1.9,5-4.7
		c0-2.9-2.1-4.8-5.2-4.8c-1.1,0-2.2,0.2-3.2,0.7L43,54.2c2.5-1.7,5-3.4,7.7-5.1c-2.3,0.1-5.9,0.1-7.4,0.1H39v-3.9h16.9v4l-6.3,4.1
		C54.4,53.6,57.6,56.8,57.6,61.4z"/>
</g>
</svg>
