<?xml version="1.0" encoding="utf-8"?>
<!-- Generator: Adobe Illustrator 24.0.3, SVG Export Plug-In . SVG Version: 6.00 Build 0)  -->
<svg version="1.1" id="Layer_1" xmlns="http://www.w3.org/2000/svg" xmlns:xlink="http://www.w3.org/1999/xlink" x="0px" y="0px"
	 viewBox="0 0 80 120" style="enable-background:new 0 0 80 120;" xml:space="preserve">
<style type="text/css">
	.st0{fill:#FFF9DF;}
	.st1{fill:#FFBEBE;}
	.st2{fill:#050039;}
	.st3{opacity:0.2;}
	.st4{fill:#3D3D3D;}
	.st5{fill:#FFFFFF;}
</style>
<title>face2</title>
<path class="st0" d="M76.6,13.7v91.7c0,6.5-5.2,11.7-11.7,11.7H13.7C7.2,117,2,111.8,2,105.4V13.7C2,7.2,7.2,2,13.7,2h51.2
	C71.4,2,76.6,7.2,76.6,13.7z"/>
<circle class="st1" cx="12.5" cy="103.9" r="3.6"/>
<circle class="st1" cx="34.3" cy="45.8" r="23.1"/>
<path class="st2" d="M19.2,19.3v1.8h-8.5v-1.4l3.4-2.7c-1.7-0.1-3.1-1.6-3.1-3.3c0-2,1.6-3.5,3.8-3.5c2.2,0,3.8,1.5,3.8,3.4
	c0,1.7-1.3,2.8-3.2,4.1l-2,1.6H19.2z M14.9,15.7c1.1,0,1.9-0.8,2-1.9c0-1.1-0.8-1.9-1.9-2c0,0-0.1,0-0.1,0c-1.1,0-1.9,0.8-2,1.9
	S13.8,15.6,14.9,15.7C14.8,15.7,14.9,15.7,14.9,15.7z"/>
<path class="st2" d="M69.5,107.7v1.8H61v-1.4l3.4-2.7c-1.7-0.1-3.1-1.6-3.1-3.3c0-2,1.6-3.5,3.8-3.5c2.2,0,3.8,1.5,3.8,3.4
	c0,1.7-1.3,2.8-3.2,4.1l-2,1.6L69.5,107.7z M65.2,104.1c1.1,0,1.9-0.9,1.9-2s-0.9-1.9-2-1.9c-1,0-1.9,0.9-1.9,1.9
	c0,1,0.8,1.9,1.8,1.9C65.1,104.1,65.2,104.1,65.2,104.1z"/>
<g class="st3">
	<path class="st4" d="M48.1,67.3v4H28.9v-3.1l7.8-6.1c-4-0.4-6.9-3.4-6.9-7.5c0-4.6,3.6-7.8,8.7-7.8c5,0,8.6,3.3,8.6,7.7
		c0,3.7-2.9,6.3-7.2,9.2l-4.6,3.6L48.1,67.3z M38.4,59c2.4,0,4.4-1.9,4.4-4.3c0-2.4-1.9-4.4-4.3-4.4c-0.1,0-0.1,0-0.2,0
		C36,50.3,34,52.2,34,54.6C33.9,57,35.8,59,38.2,59C38.3,59,38.4,59,38.4,59z"/>
</g>
<g>
	<path class="st5" d="M70,5c2.8,0,5,2.2,5,5v100c0,2.8-2.2,5-5,5H10c-2.8,0-5-2.2-5-5V10c0-2.8,2.2-5,5-5H70 M70,0H10
		C4.5,0,0,4.5,0,10v100c0,5.5,4.5,10,10,10c0,0,0,0,0,0h60c5.5,0,10-4.5,10-10V10C80,4.5,75.5,0,70,0z"/>
	<path class="st2" d="M70,2c4.4,0,8,3.6,8,8v100c0,4.4-3.6,8-8,8H10c-4.4,0-8-3.6-8-8V10c0-4.4,3.6-8,8-8H70 M70,0H10
		C4.5,0,0,4.5,0,10v100c0,5.5,4.5,10,10,10h60c5.5,0,10-4.5,10-10V10C80,4.5,75.5,0,70,0z"/>
</g>
<path class="st2" d="M56.4,75.7h-1.7c-0.2,0-0.3-0.1-0.3-0.3s0.1-0.3,0.3-0.3h1.7c0.2,0,0.3,0.1,0.3,0.3S56.5,75.7,56.4,75.7z
	 M52.3,75.7h-1.7c-0.2,0-0.3-0.1-0.3-0.3s0.1-0.3,0.3-0.3h1.7c0.2,0,0.3,0.1,0.3,0.3S52.5,75.7,52.3,75.7z M48.3,75.7h-1.7
	c-0.2,0-0.3-0.1-0.3-0.3s0.1-0.3,0.3-0.3h1.7c0.2,0,0.3,0.1,0.3,0.3S48.5,75.7,48.3,75.7z M44.2,75.7h-1.7c-0.2,0-0.3-0.1-0.3-0.3
	s0.1-0.3,0.3-0.3h1.7c0.2,0,0.3,0.1,0.3,0.3S44.4,75.7,44.2,75.7L44.2,75.7z M40.2,75.7h-1.7c-0.2,0-0.3-0.1-0.3-0.3
	s0.1-0.3,0.3-0.3h1.7c0.2,0,0.3,0.1,0.3,0.3S40.4,75.7,40.2,75.7L40.2,75.7z M36.2,75.7h-1.7c-0.2,0-0.3-0.1-0.3-0.3
	s0.1-0.3,0.3-0.3h1.7c0.2,0,0.3,0.1,0.3,0.3S36.4,75.7,36.2,75.7z"/>
<path class="st2" d="M50.3,65.6v4H31.1v-3.1l7.8-6.1c-4-0.4-6.9-3.4-6.9-7.5c0-4.6,3.6-7.8,8.7-7.8c5,0,8.6,3.3,8.6,7.7
	c0,3.7-2.9,6.3-7.2,9.2l-4.6,3.6L50.3,65.6z M40.6,57.3c2.4-0.1,4.3-2,4.2-4.4c-0.1-2.4-2-4.3-4.4-4.2c-2.3,0.1-4.2,2-4.2,4.3
	c-0.1,2.3,1.8,4.3,4.1,4.4C40.4,57.4,40.5,57.4,40.6,57.3z"/>
</svg>
