<?xml version="1.0" encoding="utf-8"?>
<!-- Generator: Adobe Illustrator 24.0.3, SVG Export Plug-In . SVG Version: 6.00 Build 0)  -->
<svg version="1.1" id="Layer_1" xmlns="http://www.w3.org/2000/svg" xmlns:xlink="http://www.w3.org/1999/xlink" x="0px" y="0px"
	 viewBox="0 0 80 120" style="enable-background:new 0 0 80 120;" xml:space="preserve">
<style type="text/css">
	.st0{fill:#FFF9DF;}
	.st1{fill:#FFBEBE;}
	.st2{fill:#FFFFFF;}
	.st3{fill:#050039;}
</style>
<title>face20</title>
<path class="st0" d="M76.6,13.7v91.7c0,6.5-5.2,11.7-11.7,11.7H13.7C7.2,117,2,111.8,2,105.4V13.7C2,7.2,7.2,2,13.7,2h51.2
	C71.4,2,76.6,7.2,76.6,13.7z"/>
<g>
	<circle class="st1" cx="13.2" cy="28.7" r="3.6"/>
	<circle class="st1" cx="40" cy="28.7" r="3.6"/>
	<circle class="st1" cx="53.4" cy="28.7" r="3.6"/>
	<circle class="st1" cx="66.8" cy="28.7" r="3.6"/>
	<circle class="st1" cx="13.2" cy="41.4" r="3.6"/>
	<circle class="st1" cx="26.6" cy="41.4" r="3.6"/>
	<circle class="st1" cx="40" cy="41.4" r="3.6"/>
	<circle class="st1" cx="13.2" cy="54" r="3.6"/>
	<circle class="st1" cx="66.8" cy="66.6" r="3.6"/>
	<circle class="st1" cx="40" cy="79.3" r="3.6"/>
	<circle class="st1" cx="53.4" cy="79.3" r="3.6"/>
	<circle class="st1" cx="66.8" cy="79.3" r="3.6"/>
	<circle class="st1" cx="13.2" cy="91.9" r="3.6"/>
	<circle class="st1" cx="26.6" cy="91.9" r="3.6"/>
	<circle class="st1" cx="40" cy="91.9" r="3.6"/>
	<circle class="st1" cx="13.2" cy="104.6" r="3.6"/>
	<circle class="st1" cx="26.6" cy="104.6" r="3.6"/>
	<circle class="st1" cx="40" cy="104.6" r="3.6"/>
	<circle class="st1" cx="53.4" cy="16.1" r="3.6"/>
	<circle class="st1" cx="66.8" cy="16.1" r="3.6"/>
</g>
<g>
	<path class="st2" d="M70,5c2.8,0,5,2.2,5,5v100c0,2.8-2.2,5-5,5H10c-2.8,0-5-2.2-5-5V10c0-2.8,2.2-5,5-5H70 M70,0H10
		C4.5,0,0,4.5,0,10v100c0,5.5,4.5,10,10,10c0,0,0,0,0,0h60c5.5,0,10-4.5,10-10V10C80,4.5,75.5,0,70,0z"/>
	<path class="st3" d="M70,2c4.4,0,8,3.6,8,8v100c0,4.4-3.6,8-8,8H10c-4.4,0-8-3.6-8-8V10c0-4.4,3.6-8,8-8H70 M70,0H10
		C4.5,0,0,4.5,0,10v100c0,5.5,4.5,10,10,10h60c5.5,0,10-4.5,10-10V10C80,4.5,75.5,0,70,0z"/>
</g>
<g>
	<path class="st3" d="M36.2,66v3.3H20.7v-2.5l6.3-5c-3.2-0.2-5.6-2.9-5.6-6.1c0-3.7,2.9-6.3,7-6.3c4.1,0,7,2.7,7,6.2
		c0,3-2.4,5.1-5.8,7.5L25.8,66H36.2z M28.4,59.3c1.9,0,3.5-1.5,3.6-3.4s-1.5-3.5-3.4-3.6c0,0-0.1,0-0.1,0c-1.9,0-3.5,1.5-3.6,3.4
		c0,1.9,1.5,3.5,3.4,3.6C28.3,59.3,28.4,59.3,28.4,59.3z"/>
	<path class="st3" d="M59.5,59.4c0,5.8-4.5,10.1-10.5,10.1c-6,0-10.5-4.3-10.5-10.1S43,49.3,49,49.3C55,49.3,59.5,53.7,59.5,59.4z
		 M42.1,59.4c0,1.3,0.3,2.6,1,3.8l9.7-9.7c-1.1-0.6-2.4-1-3.7-1C45,52.5,42.1,55.4,42.1,59.4z M56,59.4c0-1.3-0.3-2.6-1-3.7
		l-9.7,9.7c1.1,0.6,2.4,1,3.7,0.9c3.7,0.2,6.8-2.7,7-6.4C56,59.7,56,59.6,56,59.4L56,59.4z"/>
</g>
<g>
	<path class="st3" d="M18.6,19.6v1.8h-8.4V20l3.4-2.7c-1.7-0.1-3.1-1.6-3.1-3.3c0-2,1.6-3.5,3.8-3.5c2.2,0,3.8,1.4,3.8,3.4
		c0,1.6-1.3,2.8-3.2,4.1l-2,1.6L18.6,19.6z M14.3,16c1.1,0,1.9-0.8,1.9-1.9c0-1.1-0.8-1.9-1.9-1.9c0,0,0,0-0.1,0
		c-1.1,0-1.9,0.8-2,1.9S13.2,16,14.3,16C14.3,16,14.3,16,14.3,16z"/>
	<path class="st3" d="M31.3,16c0,3-2.4,5.5-5.5,5.5c-0.1,0-0.2,0-0.3,0c-3,0.1-5.6-2.2-5.7-5.3s2.2-5.6,5.3-5.7c0.2,0,0.3,0,0.5,0
		c3-0.1,5.6,2.2,5.7,5.2C31.3,15.9,31.3,16,31.3,16z M21.8,16c0,0.7,0.2,1.4,0.6,2l5.3-5.3c-0.6-0.3-1.3-0.5-2-0.5
		c-2-0.1-3.7,1.5-3.8,3.5C21.8,15.9,21.8,16,21.8,16z M29.4,16c0-0.7-0.2-1.4-0.6-2l-5.3,5.3c0.6,0.3,1.3,0.5,2,0.5
		c2,0.1,3.7-1.5,3.8-3.5C29.4,16.2,29.4,16.1,29.4,16L29.4,16z"/>
</g>
<g>
	<path class="st3" d="M57.6,107.6v1.8h-8.4V108l3.4-2.7c-1.7-0.1-3.1-1.6-3.1-3.3c0-2,1.6-3.5,3.8-3.5c2.2,0,3.8,1.4,3.8,3.4
		c0,1.6-1.3,2.8-3.2,4.1l-2,1.6L57.6,107.6z M53.3,103.9c1.1,0,1.9-0.9,1.9-2c0-1.1-0.9-1.9-2-1.9c-1,0-1.9,0.9-1.9,1.9
		c0,1,0.8,1.9,1.8,1.9C53.2,103.9,53.3,103.9,53.3,103.9z"/>
	<path class="st3" d="M70.3,104c0.1,3.2-2.3,5.8-5.5,6c-3.2,0.1-5.8-2.3-6-5.5c-0.1-3.2,2.3-5.8,5.5-6c0.1,0,0.2,0,0.2,0
		c3-0.1,5.6,2.2,5.7,5.2C70.3,103.8,70.3,103.9,70.3,104z M60.7,104c0,0.7,0.2,1.4,0.6,2l5.3-5.3c-0.6-0.3-1.3-0.5-2-0.5
		c-2-0.1-3.7,1.5-3.8,3.5C60.7,103.8,60.7,103.9,60.7,104z M68.3,104c0-0.7-0.2-1.4-0.6-2l-5.3,5.3c0.6,0.3,1.3,0.5,2,0.5
		c2,0.1,3.7-1.5,3.8-3.5C68.3,104.2,68.3,104.1,68.3,104L68.3,104z"/>
</g>
</svg>
