<svg id="Layer_1" data-name="Layer 1" xmlns="http://www.w3.org/2000/svg" viewBox="0 0 120 180">
  <defs>
    <style>
      .cls-1 {
        fill: #fff9df;
      }

      .cls-2 {
        fill: #ffbebe;
      }

      .cls-3 {
        fill: #fff;
      }

      .cls-4 {
        fill: #050039;
      }
    </style>
  </defs>
  <title>face20</title>
  <rect class="cls-1" x="-27.3761" y="33.3322" width="172.5628" height="111.9133" rx="17.5275" ry="17.5275" transform="translate(148.1941 30.3834) rotate(90)"/>
  <g>
    <circle class="cls-2" cx="19.6856" cy="43.0947" r="5.4673"/>
    <circle class="cls-2" cx="59.9487" cy="43.0947" r="5.4673"/>
    <circle class="cls-2" cx="80.0803" cy="43.0947" r="5.4673"/>
    <circle class="cls-2" cx="100.2118" cy="43.0947" r="5.4673"/>
    <circle class="cls-2" cx="19.6856" cy="62.0539" r="5.4673"/>
    <circle class="cls-2" cx="39.8172" cy="62.0539" r="5.4673"/>
    <circle class="cls-2" cx="59.9487" cy="62.0539" r="5.4673"/>
    <circle class="cls-2" cx="19.6856" cy="81.0132" r="5.4673"/>
    <circle class="cls-2" cx="100.2118" cy="99.9724" r="5.4673"/>
    <circle class="cls-2" cx="59.9487" cy="118.9316" r="5.4673"/>
    <circle class="cls-2" cx="80.0803" cy="118.9316" r="5.4673"/>
    <circle class="cls-2" cx="100.2118" cy="118.9316" r="5.4673"/>
    <circle class="cls-2" cx="19.6856" cy="137.8909" r="5.4673"/>
    <circle class="cls-2" cx="39.8172" cy="137.8909" r="5.4673"/>
    <circle class="cls-2" cx="59.9487" cy="137.8909" r="5.4673"/>
    <circle class="cls-2" cx="19.6856" cy="156.8501" r="5.4673"/>
    <circle class="cls-2" cx="39.8172" cy="156.8501" r="5.4673"/>
    <circle class="cls-2" cx="59.9487" cy="156.8501" r="5.4673"/>
    <circle class="cls-2" cx="80.0803" cy="24.1354" r="5.4673"/>
    <circle class="cls-2" cx="100.2118" cy="24.1354" r="5.4673"/>
  </g>
  <g>
    <path class="cls-3" d="M104.9546,7.53a7.5014,7.5014,0,0,1,7.4941,7.4917V165.0379a7.5013,7.5013,0,0,1-7.4941,7.4916H14.9428a7.5013,7.5013,0,0,1-7.4941-7.4916V15.0212A7.5014,7.5014,0,0,1,14.9428,7.53h90.0118m0-7.5H14.9428A14.9929,14.9929,0,0,0-.0513,15.0212V165.0379A14.9929,14.9929,0,0,0,14.9428,180.03h90.0118a14.9929,14.9929,0,0,0,14.9941-14.9916V15.0212A14.9929,14.9929,0,0,0,104.9546.03Z"/>
    <path class="cls-4" d="M104.9546,3.0148a12.0064,12.0064,0,0,1,11.9941,11.9916V165.0231a12.0065,12.0065,0,0,1-11.9941,11.9917H14.9429A12.0066,12.0066,0,0,1,2.9487,165.0231V15.0064A12.0065,12.0065,0,0,1,14.9429,3.0148h90.0117m0-3H14.9429A14.9929,14.9929,0,0,0-.0513,15.0064V165.0231a14.993,14.993,0,0,0,14.9942,14.9917h90.0117a14.993,14.993,0,0,0,14.9941-14.9917V15.0064A14.9929,14.9929,0,0,0,104.9546.0148Z"/>
  </g>
  <g>
    <path class="cls-4" d="M54.2849,98.9541v4.8789H31.0379v-3.791l9.4189-7.4482a8.9882,8.9882,0,0,1-8.3994-9.0831c0-5.5293,4.4111-9.5029,10.4981-9.5029,6.1093,0,10.4384,3.9863,10.4384,9.3623,0,4.5361-3.5556,7.6592-8.75,11.19L38.68,98.9541ZM42.5857,88.9521a5.2525,5.2525,0,1,0-.01-10.5029,5.2529,5.2529,0,1,0,.01,10.5029Z"/>
    <path class="cls-4" d="M89.2605,89.13c0,8.6328-6.7666,15.123-15.7539,15.123-8.998,0-15.7646-6.49-15.7646-15.123s6.7666-15.1221,15.7646-15.1221C82.4939,74.0078,89.2605,80.498,89.2605,89.13Zm-26.2177,0a10.6412,10.6412,0,0,0,1.5254,5.6279L79.0789,80.2393a11.0067,11.0067,0,0,0-5.5723-1.4317C67.407,78.8076,63.0428,83.1289,63.0428,89.13Zm20.917,0a10.64,10.64,0,0,0-1.5166-5.6133L67.9392,98.0293a11.05,11.05,0,0,0,5.5674,1.4238A10.0185,10.0185,0,0,0,83.96,89.13Z"/>
  </g>
  <g>
    <path class="cls-4" d="M27.8419,29.4347v2.659h-12.67V30.0276l5.1333-4.0593a4.8985,4.8985,0,0,1-4.5776-4.95c0-3.0135,2.404-5.1791,5.7214-5.1791,3.33,0,5.689,2.1725,5.689,5.1024,0,2.4722-1.9379,4.1743-4.7688,6.0988l-3.0326,2.3945Zm-6.3761-5.4511a2.8626,2.8626,0,1,0-.0053-5.7241,2.8629,2.8629,0,1,0,.0053,5.7241Z"/>
    <path class="cls-4" d="M46.9035,24.0805a8.2287,8.2287,0,0,1-8.5858,8.2421,8.2489,8.2489,0,1,1,0-16.4836A8.2286,8.2286,0,0,1,46.9035,24.0805Zm-14.2886,0a5.7991,5.7991,0,0,0,.8313,3.0672l7.9084-7.9126a5.9994,5.9994,0,0,0-3.0369-.78A5.4614,5.4614,0,0,0,32.6149,24.0805Zm11.4,0a5.7982,5.7982,0,0,0-.8265-3.0592l-7.9047,7.9094a6.0227,6.0227,0,0,0,3.0343.776A5.46,5.46,0,0,0,44.0146,24.0805Z"/>
  </g>
  <g>
    <path class="cls-4" d="M86.2826,161.3866v2.659h-12.67V161.98l5.1334-4.0592a4.8986,4.8986,0,0,1-4.5777-4.95c0-3.0134,2.404-5.1791,5.7214-5.1791,3.33,0,5.689,2.1726,5.689,5.1025,0,2.4722-1.9379,4.1742-4.7688,6.0988l-3.0326,2.3944Zm-6.3761-5.451a2.8629,2.8629,0,1,0-2.9331-2.8746A2.8047,2.8047,0,0,0,79.9065,155.9356Z"/>
    <path class="cls-4" d="M105.3443,156.0324a8.5961,8.5961,0,1,1-8.5859-8.2415A8.2288,8.2288,0,0,1,105.3443,156.0324Zm-14.2887,0a5.8006,5.8006,0,0,0,.8313,3.0673l7.9084-7.9126a5.9984,5.9984,0,0,0-3.0369-.78A5.4614,5.4614,0,0,0,91.0556,156.0324Zm11.4,0a5.7984,5.7984,0,0,0-.8265-3.0592l-7.9046,7.9094a6.021,6.021,0,0,0,3.0342.776A5.46,5.46,0,0,0,102.4553,156.0324Z"/>
  </g>
</svg>
