<svg id="Layer_1" data-name="Layer 1" xmlns="http://www.w3.org/2000/svg" viewBox="0 0 120 180">
  <defs>
    <style>
      .cls-1 {
        fill: #fff9df;
      }

      .cls-2 {
        fill: #fff;
      }

      .cls-3 {
        fill: #050039;
      }

      .cls-4 {
        fill: #ffbebe;
      }

      .cls-5 {
        opacity: 0.2;
      }

      .cls-6 {
        fill: #3d3d3d;
      }
    </style>
  </defs>
  <title>face3</title>
  <rect class="cls-1" x="-27.3761" y="33.3322" width="172.5628" height="111.9133" rx="17.5275" ry="17.5275" transform="translate(148.1941 30.3834) rotate(90)"/>
  <g>
    <path class="cls-2" d="M104.9546,7.53a7.5014,7.5014,0,0,1,7.4941,7.4917V165.0379a7.5013,7.5013,0,0,1-7.4941,7.4916H14.9428a7.5013,7.5013,0,0,1-7.4941-7.4916V15.0212A7.5014,7.5014,0,0,1,14.9428,7.53h90.0118m0-7.5H14.9428A14.9929,14.9929,0,0,0-.0513,15.0212V165.0379A14.9929,14.9929,0,0,0,14.9428,180.03h90.0118a14.9929,14.9929,0,0,0,14.9941-14.9916V15.0212A14.9929,14.9929,0,0,0,104.9546.03Z"/>
    <path class="cls-3" d="M104.9546,3.0148a12.0064,12.0064,0,0,1,11.9941,11.9916V165.0231a12.0065,12.0065,0,0,1-11.9941,11.9917H14.9429A12.0066,12.0066,0,0,1,2.9487,165.0231V15.0064A12.0065,12.0065,0,0,1,14.9429,3.0148h90.0117m0-3H14.9429A14.9929,14.9929,0,0,0-.0513,15.0064V165.0231a14.993,14.993,0,0,0,14.9942,14.9917h90.0117a14.993,14.993,0,0,0,14.9941-14.9917V15.0064A14.9929,14.9929,0,0,0,104.9546.0148Z"/>
  </g>
  <g>
    <circle class="cls-4" cx="80.1315" cy="23.1354" r="5.4673"/>
    <circle class="cls-4" cx="100.2631" cy="23.1354" r="5.4673"/>
  </g>
  <circle class="cls-4" cx="51.4595" cy="68.7271" r="34.5946"/>
  <path class="cls-3" d="M27.9473,26.2227c0,3.3535-2.6563,5.6767-6.4961,5.6767-4.0117,0-6.6992-2.5312-6.5889-6.33h3.0918a3.4247,3.4247,0,0,0,3.5752,3.7159,3.054,3.054,0,0,0,3.3389-3.1123,3.14,3.14,0,0,0-3.4307-3.1778,4.7406,4.7406,0,0,0-2.1064.4815l-1.0918-2.0489c1.6718-1.123,3.35-2.2461,5.13-3.3681-1.5185.0713-3.8984.0742-4.9375.0742H15.5645V15.5732H26.7568v2.66l-4.2109,2.7119C25.791,21.0273,27.9473,23.1689,27.9473,26.2227Z"/>
  <path class="cls-3" d="M104.7363,158.49c0,3.3525-2.6562,5.6768-6.4961,5.6768-4.0117,0-6.6992-2.5323-6.5888-6.3311h3.0918a3.424,3.424,0,0,0,3.5752,3.7158,3.0531,3.0531,0,0,0,3.3388-3.1113,3.14,3.14,0,0,0-3.4306-3.1777,4.7418,4.7418,0,0,0-2.1065.48l-1.0918-2.0488c1.6719-1.1221,3.35-2.2451,5.13-3.3682-1.5186.0713-3.8984.0752-4.9375.0752H92.3535V147.84h11.1924v2.6612l-4.2109,2.7119C102.58,153.2936,104.7363,155.4362,104.7363,158.49Z"/>
  <g class="cls-5">
    <path class="cls-6" d="M72.68,94.1631C72.68,101.7451,66.6725,107,57.99,107c-9.0723,0-15.1514-5.7256-14.9024-14.3154h6.9932c.0117,5.1367,3.2236,8.4023,8.084,8.4023,4.5244,0,7.5507-2.8125,7.5507-7.0371,0-4.2793-3.12-7.1865-7.7588-7.1865a10.6984,10.6984,0,0,0-4.7617,1.0888l-2.47-4.6337c3.78-2.54,7.5742-5.0791,11.6016-7.6182-3.4346.1621-8.8164.17-11.166.17H44.6774v-5.791h25.31v6.0156l-9.5225,6.1338C67.8024,82.4131,72.68,87.2568,72.68,94.1631Z"/>
  </g>
  <path class="cls-3" d="M84.4834,113.5518H81.8887a.5.5,0,0,1,0-1h2.5947a.5.5,0,0,1,0,1Zm-6.0547,0H75.834a.5.5,0,0,1,0-1h2.5947a.5.5,0,0,1,0,1Zm-6.0537,0H69.78a.5.5,0,0,1,0-1H72.375a.5.5,0,0,1,0,1Zm-6.0537,0H63.7266a.5.5,0,0,1,0-1h2.5947a.5.5,0,0,1,0,1Zm-6.0547,0H57.6719a.5.5,0,0,1,0-1h2.5947a.5.5,0,0,1,0,1Zm-6.0537,0H51.6182a.5.5,0,0,1,0-1h2.5947a.5.5,0,1,1,0,1Z"/>
  <path class="cls-3" d="M75.7246,92.1406c0,7.5821-6.0078,12.8369-14.69,12.8369-9.0723,0-15.1514-5.7255-14.9024-14.3154H53.125c.0117,5.1367,3.2236,8.4024,8.084,8.4024,4.5244,0,7.5508-2.8125,7.5508-7.0372,0-4.2793-3.12-7.1865-7.7588-7.1865A10.6964,10.6964,0,0,0,56.2393,85.93l-2.47-4.6338c3.78-2.54,7.5743-5.0791,11.6016-7.6182-3.4346.1621-8.8164.17-11.166.17H47.7217V68.0566H73.0322v6.0157L63.51,80.2061C70.8467,80.3906,75.7246,85.2344,75.7246,92.1406Z"/>
</svg>
