<?xml version="1.0" encoding="utf-8"?>
<!-- Generator: Adobe Illustrator 24.0.3, SVG Export Plug-In . SVG Version: 6.00 Build 0)  -->
<svg version="1.1" id="Layer_1" xmlns="http://www.w3.org/2000/svg" xmlns:xlink="http://www.w3.org/1999/xlink" x="0px" y="0px"
	 viewBox="0 0 80 120" style="enable-background:new 0 0 80 120;" xml:space="preserve">
<style type="text/css">
	.st0{fill:#FFF9DF;}
	.st1{fill:#FFBEBE;}
	.st2{fill:#050039;}
	.st3{opacity:0.19;}
	.st4{fill:#3D3D3D;}
	.st5{fill:#FFFFFF;}
</style>
<title>face40</title>
<path class="st0" d="M76.6,13.7v91.7c0,6.5-5.2,11.7-11.7,11.7H13.7C7.2,117,2,111.8,2,105.4V13.7C2,7.2,7.2,2,13.7,2h51.2
	C71.4,2,76.6,7.2,76.6,13.7z"/>
<g>
	<circle class="st1" cx="13.2" cy="28.7" r="3.6"/>
	<circle class="st1" cx="26.6" cy="28.7" r="3.6"/>
	<circle class="st1" cx="40" cy="28.7" r="3.6"/>
	<circle class="st1" cx="53.4" cy="28.7" r="3.6"/>
	<circle class="st1" cx="66.8" cy="28.7" r="3.6"/>
	<circle class="st1" cx="13.2" cy="41.4" r="3.6"/>
	<circle class="st1" cx="26.6" cy="41.4" r="3.6"/>
	<circle class="st1" cx="40" cy="41.4" r="3.6"/>
	<circle class="st1" cx="53.4" cy="41.4" r="3.6"/>
	<circle class="st1" cx="66.8" cy="41.4" r="3.6"/>
	<circle class="st1" cx="13.2" cy="54" r="3.6"/>
	<circle class="st1" cx="66.8" cy="54" r="3.6"/>
	<circle class="st1" cx="13.2" cy="66.6" r="3.6"/>
	<circle class="st1" cx="66.8" cy="66.6" r="3.6"/>
	<circle class="st1" cx="13.2" cy="79.3" r="3.6"/>
	<circle class="st1" cx="26.6" cy="79.3" r="3.6"/>
	<circle class="st1" cx="40" cy="79.3" r="3.6"/>
	<circle class="st1" cx="53.4" cy="79.3" r="3.6"/>
	<circle class="st1" cx="66.8" cy="79.3" r="3.6"/>
	<circle class="st1" cx="13.2" cy="91.9" r="3.6"/>
	<circle class="st1" cx="26.6" cy="91.9" r="3.6"/>
	<circle class="st1" cx="40" cy="91.9" r="3.6"/>
	<circle class="st1" cx="53.4" cy="91.9" r="3.6"/>
	<circle class="st1" cx="66.8" cy="91.9" r="3.6"/>
	<circle class="st1" cx="13.2" cy="104.6" r="3.6"/>
	<circle class="st1" cx="26.6" cy="104.6" r="3.6"/>
	<circle class="st1" cx="40" cy="104.6" r="3.6"/>
	<circle class="st1" cx="40" cy="16.1" r="3.6"/>
	<circle class="st1" cx="53.4" cy="16.1" r="3.6"/>
	<circle class="st1" cx="66.8" cy="16.1" r="3.6"/>
</g>
<g>
	<path class="st2" d="M19.5,16.5h-3v4.9h-2v-4.9h-4.4v-5.8h2v4.2l2.5,0v-3.4h2v3.4l3,0V16.5z"/>
	<path class="st2" d="M32.3,16.1c0,3-2.5,5.5-5.5,5.5c-0.1,0-0.2,0-0.3,0c-3,0.1-5.6-2.2-5.7-5.3s2.2-5.6,5.3-5.7c0.2,0,0.3,0,0.5,0
		c3-0.1,5.6,2.2,5.7,5.3C32.3,15.9,32.3,16,32.3,16.1z M22.7,16.1c0,0.7,0.2,1.4,0.6,2.1l5.3-5.3c-0.6-0.4-1.3-0.5-2-0.5
		c-2-0.1-3.7,1.5-3.8,3.5C22.7,15.9,22.7,16,22.7,16.1z M30.4,16.1c0-0.7-0.2-1.4-0.6-2l-5.3,5.3c0.6,0.3,1.3,0.5,2,0.5
		c2,0.1,3.7-1.5,3.8-3.5C30.4,16.3,30.4,16.2,30.4,16.1L30.4,16.1z"/>
</g>
<g>
	<path class="st2" d="M57.8,104.1h-3v4.9h-2v-4.9h-4.4v-5.8h2v4.2l2.5,0v-3.4h2v3.4l3,0L57.8,104.1z"/>
	<path class="st2" d="M70.6,103.7c0.1,3.2-2.3,5.9-5.5,6c-3.2,0.1-5.9-2.3-6-5.5s2.3-5.9,5.5-6c0.1,0,0.2,0,0.2,0
		c3-0.1,5.6,2.2,5.7,5.3C70.6,103.5,70.6,103.6,70.6,103.7z M61,103.7c0,0.7,0.2,1.4,0.6,2.1l5.3-5.3c-0.6-0.4-1.3-0.5-2-0.5
		c-2-0.1-3.7,1.5-3.8,3.5C61,103.5,61,103.6,61,103.7z M68.7,103.7c0-0.7-0.2-1.4-0.6-2l-5.3,5.3c0.6,0.3,1.3,0.5,2,0.5
		c2,0.1,3.7-1.5,3.8-3.5C68.7,103.8,68.7,103.8,68.7,103.7L68.7,103.7z"/>
</g>
<g class="st3">
	<path class="st4" d="M36.1,61.4h-5.5v9H27v-9h-8.1V50.8h3.6v7.7l4.5,0v-6.3h3.6v6.3l5.5,0V61.4z"/>
	<path class="st4" d="M59.5,60.6c0,5.8-4.5,10.1-10.5,10.1c-6,0-10.5-4.3-10.5-10.1S43,50.6,49,50.6C55,50.6,59.5,54.9,59.5,60.6z
		 M42,60.6c0,1.3,0.3,2.6,1,3.8l9.7-9.7c-1.1-0.6-2.4-1-3.7-1C44.9,53.8,42,56.6,42,60.6z M55.9,60.6c0-1.3-0.3-2.6-1-3.7l-9.7,9.7
		c1.1,0.6,2.4,1,3.7,0.9c3.7,0.2,6.8-2.7,7-6.4C56,61,56,60.8,55.9,60.6z"/>
</g>
<g>
	<path class="st5" d="M70,5c2.8,0,5,2.2,5,5v100c0,2.8-2.2,5-5,5H10c-2.8,0-5-2.2-5-5V10c0-2.8,2.2-5,5-5H70 M70,0H10
		C4.5,0,0,4.5,0,10v100c0,5.5,4.5,10,10,10c0,0,0,0,0,0h60c5.5,0,10-4.5,10-10V10C80,4.5,75.5,0,70,0z"/>
	<path class="st2" d="M70,2c4.4,0,8,3.6,8,8v100c0,4.4-3.6,8-8,8H10c-4.4,0-8-3.6-8-8V10c0-4.4,3.6-8,8-8H70 M70,0H10
		C4.5,0,0,4.5,0,10v100c0,5.5,4.5,10,10,10h60c5.5,0,10-4.5,10-10V10C80,4.5,75.5,0,70,0z"/>
</g>
<g>
	<path class="st2" d="M38.3,59.9h-5.5v9h-3.6v-9h-8.1V49.3h3.6V57l4.5,0v-6.3h3.6V57l5.5,0L38.3,59.9z"/>
	<path class="st2" d="M61.7,59.1c0,5.8-4.5,10.1-10.5,10.1c-6,0-10.5-4.3-10.5-10.1S45.2,49,51.1,49C57.1,49,61.7,53.3,61.7,59.1z
		 M44.2,59.1c0,1.3,0.3,2.6,1,3.8l9.7-9.7c-1.1-0.6-2.4-1-3.7-1C47.1,52.2,44.2,55.1,44.2,59.1z M58.1,59.1c0-1.3-0.3-2.6-1-3.7
		L47.4,65c1.1,0.6,2.4,1,3.7,0.9c3.7,0.2,6.8-2.7,7-6.4C58.1,59.4,58.1,59.2,58.1,59.1z"/>
</g>
</svg>
