<?xml version="1.0" encoding="utf-8"?>
<!-- Generator: Adobe Illustrator 24.0.3, SVG Export Plug-In . SVG Version: 6.00 Build 0)  -->
<svg version="1.1" id="Layer_1" xmlns="http://www.w3.org/2000/svg" xmlns:xlink="http://www.w3.org/1999/xlink" x="0px" y="0px"
	 viewBox="0 0 80 120" style="enable-background:new 0 0 80 120;" xml:space="preserve">
<style type="text/css">
	.st0{fill:#FFF9DF;}
	.st1{fill:#FFBEBE;}
	.st2{fill:#050039;}
	.st3{opacity:0.2;}
	.st4{fill:#3D3D3D;}
	.st5{fill:#FFFFFF;}
</style>
<title>face5</title>
<path class="st0" d="M76.6,13.7v91.7c0,6.5-5.2,11.7-11.7,11.7H13.7C7.2,117,2,111.8,2,105.4V13.7C2,7.2,7.2,2,13.7,2h51.2
	C71.4,2,76.6,7.2,76.6,13.7z"/>
<g>
	<circle class="st1" cx="12.7" cy="91.3" r="3.6"/>
	<circle class="st1" cx="12.7" cy="103.9" r="3.6"/>
	<circle class="st1" cx="53" cy="15.4" r="3.6"/>
	<circle class="st1" cx="66.4" cy="15.4" r="3.6"/>
</g>
<circle class="st1" cx="34.3" cy="45.8" r="23.1"/>
<path class="st2" d="M18.7,17.4c0,2.3-1.7,3.9-4.3,3.9c-2.6,0-4.4-1.6-4.4-4h2.1c0,1.2,0.9,2.2,2.1,2.3c0.1,0,0.2,0,0.2,0
	c1.1,0.1,2.1-0.7,2.2-1.8c0-0.1,0-0.2,0-0.2c0-1.1-0.9-2.1-2-2.1c-0.1,0-0.1,0-0.2,0c-0.7,0-1.4,0.3-1.8,0.8l-1.9,0l0.2-5.8h7.1v1.7
	h-5.5l-0.1,2.4c0.7-0.6,1.6-0.9,2.5-0.8c2-0.1,3.7,1.4,3.8,3.4C18.7,17.2,18.7,17.3,18.7,17.4z"/>
<path class="st2" d="M69.6,105.6c0,2.3-1.7,3.9-4.3,3.9c-2.6,0-4.4-1.6-4.4-4H63c0,1.2,0.9,2.2,2.1,2.3c0.1,0,0.2,0,0.2,0
	c1.1,0.1,2.1-0.7,2.2-1.8c0-0.1,0-0.2,0-0.2c0-1.1-0.9-2.1-2-2.1c-0.1,0-0.1,0-0.2,0c-0.7,0-1.4,0.3-1.8,0.8l-1.9,0l0.2-5.8h7.1v1.7
	h-5.5l-0.1,2.4c0.7-0.6,1.6-0.9,2.5-0.8c2-0.1,3.7,1.4,3.8,3.4C69.6,105.4,69.6,105.5,69.6,105.6z"/>
<g class="st3">
	<path class="st4" d="M49.7,62.5c0,5.2-3.9,8.8-9.7,8.8c-5.9,0-9.9-3.6-9.8-9.1h4.6c0.1,3.2,2.2,5.1,5.3,5.1c3,0,5-1.9,5-4.7
		c0-2.9-2.1-4.8-5-4.8c-1.6,0-3.1,0.6-4.1,1.8l-4.3,0l0.4-13h16v3.9H35.6l-0.2,5.5c1.6-1.3,3.6-2,5.6-1.9
		C45.9,54.2,49.7,57.5,49.7,62.5z"/>
</g>
<g>
	<path class="st5" d="M70,5c2.8,0,5,2.2,5,5v100c0,2.8-2.2,5-5,5H10c-2.8,0-5-2.2-5-5V10c0-2.8,2.2-5,5-5H70 M70,0H10
		C4.5,0,0,4.5,0,10v100c0,5.5,4.5,10,10,10c0,0,0,0,0,0h60c5.5,0,10-4.5,10-10V10C80,4.5,75.5,0,70,0z"/>
	<path class="st2" d="M70,2c4.4,0,8,3.6,8,8v100c0,4.4-3.6,8-8,8H10c-4.4,0-8-3.6-8-8V10c0-4.4,3.6-8,8-8H70 M70,0H10
		C4.5,0,0,4.5,0,10v100c0,5.5,4.5,10,10,10h60c5.5,0,10-4.5,10-10V10C80,4.5,75.5,0,70,0z"/>
</g>
<path class="st2" d="M56.4,75.7h-1.7c-0.2,0-0.3-0.1-0.3-0.3s0.1-0.3,0.3-0.3h1.7c0.2,0,0.3,0.1,0.3,0.3S56.5,75.7,56.4,75.7z
	 M52.3,75.7h-1.7c-0.2,0-0.3-0.1-0.3-0.3s0.1-0.3,0.3-0.3h1.7c0.2,0,0.3,0.1,0.3,0.3S52.5,75.7,52.3,75.7z M48.3,75.7h-1.7
	c-0.2,0-0.3-0.1-0.3-0.3s0.1-0.3,0.3-0.3h1.7c0.2,0,0.3,0.1,0.3,0.3S48.5,75.7,48.3,75.7z M44.2,75.7h-1.7c-0.2,0-0.3-0.1-0.3-0.3
	s0.1-0.3,0.3-0.3h1.7c0.2,0,0.3,0.1,0.3,0.3S44.4,75.7,44.2,75.7L44.2,75.7z M40.2,75.7h-1.7c-0.2,0-0.3-0.1-0.3-0.3
	s0.1-0.3,0.3-0.3h1.7c0.2,0,0.3,0.1,0.3,0.3S40.4,75.7,40.2,75.7L40.2,75.7z M36.2,75.7h-1.7c-0.2,0-0.3-0.1-0.3-0.3
	s0.1-0.3,0.3-0.3h1.7c0.2,0,0.3,0.1,0.3,0.3S36.4,75.7,36.2,75.7z"/>
<path class="st2" d="M51.1,61c0,5.2-3.9,8.8-9.7,8.8c-5.9,0-9.9-3.6-9.8-9.1h4.6c0.1,3.2,2.2,5.1,5.3,5.1c3,0,5-1.9,5-4.7
	c0-2.9-2.1-4.8-5-4.8c-1.6,0-3.1,0.6-4.1,1.8l-4.3,0l0.4-13h16v3.9H37l-0.2,5.5c1.6-1.3,3.6-2,5.6-1.9C47.4,52.7,51.1,56,51.1,61z"
	/>
</svg>
