<?xml version="1.0" encoding="utf-8"?>
<!-- Generator: Adobe Illustrator 24.0.3, SVG Export Plug-In . SVG Version: 6.00 Build 0)  -->
<svg version="1.1" id="Layer_1" xmlns="http://www.w3.org/2000/svg" xmlns:xlink="http://www.w3.org/1999/xlink" x="0px" y="0px"
	 viewBox="0 0 80 120" style="enable-background:new 0 0 80 120;" xml:space="preserve">
<style type="text/css">
	.st0{fill:#FFF9DF;}
	.st1{fill:#FFBEBE;}
	.st2{fill:#050039;}
	.st3{opacity:0.2;}
	.st4{fill:#3D3D3D;}
	.st5{fill:#FFFFFF;}
</style>
<title>face8</title>
<path class="st0" d="M76.6,13.7v91.7c0,6.5-5.2,11.7-11.7,11.7H13.7C7.2,117,2,111.8,2,105.4V13.7C2,7.2,7.2,2,13.7,2h51.2
	C71.4,2,76.6,7.2,76.6,13.7z"/>
<g>
	<circle class="st1" cx="26.6" cy="28.1" r="3.6"/>
	<circle class="st1" cx="40" cy="28.1" r="3.6"/>
	<circle class="st1" cx="53.5" cy="28.1" r="3.6"/>
	<circle class="st1" cx="13.2" cy="91.3" r="3.6"/>
	<circle class="st1" cx="13.2" cy="103.9" r="3.6"/>
	<circle class="st1" cx="40" cy="15.4" r="3.6"/>
	<circle class="st1" cx="53.5" cy="15.4" r="3.6"/>
	<circle class="st1" cx="66.9" cy="15.4" r="3.6"/>
</g>
<path class="st2" d="M18.5,18.1c0,1.8-1.7,3.1-4.3,3.1c-2.6,0-4.3-1.3-4.3-3.1c0-1.3,1-2.5,2.3-2.7v0c-1.1-0.3-1.9-1.2-1.8-2.4
	c0-1.7,1.5-2.8,3.8-2.8c2.3,0,3.8,1.2,3.8,2.8c0,1.1-0.8,2.1-1.8,2.4v0C17.5,15.6,18.5,16.8,18.5,18.1z M16.3,17.9
	c0-1-0.9-1.7-2.1-1.7c-1.3,0-2.1,0.7-2.1,1.7c0,1,0.9,1.7,2.1,1.7C15.5,19.6,16.3,18.9,16.3,17.9L16.3,17.9z M12.4,13.2
	c0,0.8,0.7,1.4,1.8,1.4c1,0,1.7-0.6,1.7-1.4s-0.7-1.4-1.7-1.4C13.1,11.8,12.4,12.4,12.4,13.2L12.4,13.2z"/>
<path class="st2" d="M69.4,106.5c0,1.8-1.7,3.1-4.3,3.1c-2.6,0-4.3-1.3-4.3-3.1c0-1.3,1-2.5,2.3-2.7v0c-1.1-0.3-1.9-1.2-1.8-2.4
	c0-1.7,1.5-2.8,3.8-2.8c2.3,0,3.8,1.2,3.8,2.8c0,1.1-0.8,2.1-1.8,2.4v0C68.4,104,69.4,105.2,69.4,106.5z M67.3,106.3
	c0-1-0.9-1.7-2.1-1.7c-1.3,0-2.1,0.7-2.1,1.7c0,1,0.8,1.7,2.1,1.7C66.5,108.1,67.3,107.3,67.3,106.3z M63.4,101.6
	c0,0.8,0.7,1.4,1.8,1.4s1.7-0.6,1.7-1.4s-0.7-1.4-1.7-1.4C64.1,100.3,63.4,100.8,63.4,101.6L63.4,101.6z"/>
<g class="st3">
	<path class="st4" d="M48.8,64.3c0,4.2-3.9,7.1-9.7,7.1c-5.8,0-9.7-2.9-9.7-7.1c0-3.1,2-5.3,5.3-6.1v-0.1c-2.6-0.8-4.2-2.7-4.2-5.3
		c0-3.8,3.5-6.4,8.6-6.4c5.1,0,8.6,2.7,8.6,6.4c0,2.6-1.6,4.5-4.2,5.3v0C46.8,59,48.8,61.2,48.8,64.3z M44,63.9
		c0-2.3-1.9-3.8-4.8-3.8c-2.9,0-4.9,1.5-4.9,3.8c0,2.3,1.9,3.9,4.8,3.9C42.1,67.7,44,66.1,44,63.9z M35.2,53.3c0,1.9,1.6,3.1,4,3.1
		c2.4,0,3.9-1.3,3.9-3.1c0-1.9-1.6-3.2-3.9-3.2C36.8,50.1,35.2,51.4,35.2,53.3z"/>
</g>
<g>
	<path class="st5" d="M70,5c2.8,0,5,2.2,5,5v100c0,2.8-2.2,5-5,5H10c-2.8,0-5-2.2-5-5V10c0-2.8,2.2-5,5-5H70 M70,0H10
		C4.5,0,0,4.5,0,10v100c0,5.5,4.5,10,10,10c0,0,0,0,0,0h60c5.5,0,10-4.5,10-10V10C80,4.5,75.5,0,70,0z"/>
	<path class="st2" d="M70,2c4.4,0,8,3.6,8,8v100c0,4.4-3.6,8-8,8H10c-4.4,0-8-3.6-8-8V10c0-4.4,3.6-8,8-8H70 M70,0H10
		C4.5,0,0,4.5,0,10v100c0,5.5,4.5,10,10,10h60c5.5,0,10-4.5,10-10V10C80,4.5,75.5,0,70,0z"/>
</g>
<path class="st2" d="M56.4,75.7h-1.7c-0.2,0-0.3-0.1-0.3-0.3s0.1-0.3,0.3-0.3h1.7c0.2,0,0.3,0.1,0.3,0.3S56.5,75.7,56.4,75.7z
	 M52.3,75.7h-1.7c-0.2,0-0.3-0.1-0.3-0.3s0.1-0.3,0.3-0.3h1.7c0.2,0,0.3,0.1,0.3,0.3S52.5,75.7,52.3,75.7z M48.3,75.7h-1.7
	c-0.2,0-0.3-0.1-0.3-0.3s0.1-0.3,0.3-0.3h1.7c0.2,0,0.3,0.1,0.3,0.3S48.5,75.7,48.3,75.7z M44.2,75.7h-1.7c-0.2,0-0.3-0.1-0.3-0.3
	s0.1-0.3,0.3-0.3h1.7c0.2,0,0.3,0.1,0.3,0.3S44.4,75.7,44.2,75.7L44.2,75.7z M40.2,75.7h-1.7c-0.2,0-0.3-0.1-0.3-0.3
	s0.1-0.3,0.3-0.3h1.7c0.2,0,0.3,0.1,0.3,0.3S40.4,75.7,40.2,75.7L40.2,75.7z M36.2,75.7h-1.7c-0.2,0-0.3-0.1-0.3-0.3
	s0.1-0.3,0.3-0.3h1.7c0.2,0,0.3,0.1,0.3,0.3S36.4,75.7,36.2,75.7z"/>
<path class="st2" d="M50.3,62.9c0,4.2-3.9,7.1-9.7,7.1c-5.8,0-9.7-2.9-9.7-7.1c0-3.1,2-5.3,5.3-6.1v-0.1c-2.6-0.8-4.2-2.7-4.2-5.3
	c0-3.8,3.5-6.4,8.6-6.4c5.1,0,8.6,2.7,8.6,6.4c0,2.6-1.6,4.5-4.2,5.3v0C48.3,57.6,50.3,59.8,50.3,62.9z M45.5,62.4
	c0-2.3-1.9-3.8-4.8-3.8c-2.9,0-4.9,1.5-4.9,3.8c0,2.3,1.9,3.9,4.8,3.9C43.6,66.3,45.5,64.7,45.5,62.4z M36.7,51.8
	c0,1.9,1.6,3.1,4,3.1c2.4,0,3.9-1.3,3.9-3.1c0-1.9-1.6-3.2-3.9-3.2C38.3,48.7,36.7,49.9,36.7,51.8z"/>
</svg>
