<svg id="Layer_1" data-name="Layer 1" xmlns="http://www.w3.org/2000/svg" viewBox="0 0 80 120">
  <defs>
    <style>
      .cls-1 {
        fill: #3e52d8;
      }

      .cls-2 {
        fill: none;
      }

      .cls-3 {
        fill: #fff9df;
      }

      .cls-4 {
        fill: #050039;
      }

      .cls-5 {
        fill: #ffd02f;
      }

      .cls-6 {
        fill: #fff;
      }

      .cls-7 {
        fill: #1d2860;
      }
    </style>
  </defs>
  <title>back1</title>
  <rect class="cls-1" x="3.6466" y="3.9497" width="72.8534" height="112"/>
  <rect class="cls-2" x="-0.0191" y="-0.0387" width="80.0191" height="80.0191"/>
  <path class="cls-3" d="M36.49,3.128A40.0106,40.0106,0,0,0,76.5,43.1385V3.128Z"/>
  <path class="cls-4" d="M4.2417,75.3112c-.2006-.0014-.3944.0243-.5941.0259V115.95H44.2843l.0019-.034A40.3255,40.3255,0,0,0,4.2417,75.3112Z"/>
  <path class="cls-5" d="M3.6476,50.3181h-.001V75.43H28.7587A25.1115,25.1115,0,0,0,3.6476,50.3181Z"/>
  <path class="cls-2" d="M9.9961-.01H70.0055A9.9945,9.9945,0,0,1,80,9.9846V109.9941a9.9961,9.9961,0,0,1-9.9961,9.9961H9.9944A9.9945,9.9945,0,0,1,0,109.9957V9.9863A9.9961,9.9961,0,0,1,9.9961-.01Z"/>
  <g>
    <path class="cls-6" d="M70.0039,5.0049A5.0009,5.0009,0,0,1,75,9.9994V110.0105a5.0009,5.0009,0,0,1-4.9961,4.9944H9.9961A5.0009,5.0009,0,0,1,5,110.0105V9.9994A5.0009,5.0009,0,0,1,9.9961,5.0049H70.0039m0-5H9.9961A9.9953,9.9953,0,0,0,0,9.9994V110.0105a9.9952,9.9952,0,0,0,9.9961,9.9944H70.0039A9.9952,9.9952,0,0,0,80,110.0105V9.9994A9.9953,9.9953,0,0,0,70.0039.0049Z"/>
    <path class="cls-7" d="M70.0039,1.9951A8.0043,8.0043,0,0,1,78,9.99V110.0006a8.0043,8.0043,0,0,1-7.9961,7.9945H9.9961A8.0043,8.0043,0,0,1,2,110.0006V9.99A8.0043,8.0043,0,0,1,9.9961,1.9951H70.0039m0-2H9.9961A9.9952,9.9952,0,0,0,0,9.99V110.0006a9.9953,9.9953,0,0,0,9.9961,9.9945H70.0039A9.9953,9.9953,0,0,0,80,110.0006V9.99A9.9952,9.9952,0,0,0,70.0039-.0049Z"/>
  </g>
</svg>
