<svg id="Layer_1" data-name="Layer 1" xmlns="http://www.w3.org/2000/svg" viewBox="0 0 80 120">
  <defs>
    <style>
      .cls-1 {
        fill: #fff9df;
      }

      .cls-2 {
        fill: #050039;
      }

      .cls-3 {
        fill: #ff6474;
      }

      .cls-4 {
        fill: none;
      }

      .cls-5 {
        fill: #3e52d8;
      }

      .cls-6 {
        fill: #fff;
      }

      .cls-7 {
        fill: #1d2860;
      }
    </style>
  </defs>
  <title>back5</title>
  <rect class="cls-1" x="3.3235" y="3.128" width="73.2598" height="112.8217"/>
  <path class="cls-2" d="M12.622,5.3267S10.7418,32.549,39.8437,32.549Z"/>
  <path class="cls-3" d="M12.6213,5.3267s27.2208-1.88,27.2213,27.2222Z"/>
  <rect class="cls-4" x="12.4875" y="5.1928" width="27.4652" height="27.4655"/>
  <path class="cls-2" d="M67.2841,5.3267S69.165,32.549,40.0634,32.549Z"/>
  <path class="cls-3" d="M67.2854,5.3267s-27.2207-1.88-27.222,27.2223Z"/>
  <path class="cls-2" d="M12.5565,60.2032S10.6725,87.48,39.8332,87.48Z"/>
  <path class="cls-5" d="M12.5558,60.2032S39.8316,58.3189,39.8321,87.48Z"/>
  <path class="cls-2" d="M67.329,60.2032S69.2137,87.48,40.0533,87.48Z"/>
  <path class="cls-5" d="M67.33,60.2032S40.0547,58.32,40.0533,87.48Z"/>
  <rect class="cls-4" x="39.9534" y="5.1928" width="27.4659" height="27.4655"/>
  <path class="cls-2" d="M67.2841,59.99s1.88-27.2221-27.2206-27.2221Z"/>
  <path class="cls-3" d="M67.2854,59.99s-27.2207,1.88-27.222-27.2221Z"/>
  <rect class="cls-4" x="39.9534" y="32.6584" width="27.4659" height="27.4656"/>
  <path class="cls-2" d="M12.622,59.99s-1.88-27.2221,27.2217-27.2221Z"/>
  <path class="cls-3" d="M12.6213,59.99s27.2208,1.88,27.2213-27.2221Z"/>
  <path class="cls-2" d="M67.2841,114.9158s1.88-27.2221-27.2206-27.2221Z"/>
  <path class="cls-5" d="M67.2854,114.9158s-27.2207,1.88-27.222-27.2221Z"/>
  <path class="cls-2" d="M12.622,114.9158s-1.88-27.2221,27.2217-27.2221Z"/>
  <path class="cls-5" d="M12.6213,114.9158s27.2208,1.88,27.2213-27.2221Z"/>
  <rect class="cls-4" x="12.4875" y="32.6584" width="27.4652" height="27.4656"/>
  <path class="cls-4" d="M12.4774,5.1152h54.952a9.1539,9.1539,0,0,1,9.1539,9.1539v91.5835a9.1524,9.1524,0,0,1-9.1524,9.1524H12.4759a9.1524,9.1524,0,0,1-9.1524-9.1524V14.2691a9.1539,9.1539,0,0,1,9.1539-9.1539Z"/>
  <g>
    <path class="cls-6" d="M70.0039,5.0049A5.0009,5.0009,0,0,1,75,9.9994V110.0105a5.0009,5.0009,0,0,1-4.9961,4.9944H9.9961A5.0009,5.0009,0,0,1,5,110.0105V9.9994A5.0009,5.0009,0,0,1,9.9961,5.0049H70.0039m0-5H9.9961A9.9953,9.9953,0,0,0,0,9.9994V110.0105a9.9952,9.9952,0,0,0,9.9961,9.9944H70.0039A9.9952,9.9952,0,0,0,80,110.0105V9.9994A9.9953,9.9953,0,0,0,70.0039.0049Z"/>
    <path class="cls-7" d="M70.0039,1.9951A8.0043,8.0043,0,0,1,78,9.99V110.0006a8.0043,8.0043,0,0,1-7.9961,7.9945H9.9961A8.0043,8.0043,0,0,1,2,110.0006V9.99A8.0043,8.0043,0,0,1,9.9961,1.9951H70.0039m0-2H9.9961A9.9952,9.9952,0,0,0,0,9.99V110.0006a9.9953,9.9953,0,0,0,9.9961,9.9945H70.0039A9.9953,9.9953,0,0,0,80,110.0006V9.99A9.9952,9.9952,0,0,0,70.0039-.0049Z"/>
  </g>
</svg>
