<svg id="Layer_1" data-name="Layer 1" xmlns="http://www.w3.org/2000/svg" xmlns:xlink="http://www.w3.org/1999/xlink" viewBox="0 0 80 120">
  <defs>
    <style>
      .cls-1 {
        fill: none;
      }

      .cls-2 {
        clip-path: url(#clip-path);
      }

      .cls-3 {
        fill: #ffd02f;
      }

      .cls-4 {
        fill: #fff9df;
      }

      .cls-5 {
        fill: #3e52d8;
      }

      .cls-6 {
        fill: #ff6474;
      }

      .cls-7 {
        fill: #fff;
      }

      .cls-8 {
        fill: #1d2860;
      }
    </style>
    <clipPath id="clip-path">
      <rect class="cls-1" x="3.3333" y="4" width="72.5" height="112.8333"/>
    </clipPath>
  </defs>
  <title>Artboard 1</title>
  <g class="cls-2">
    <polygon class="cls-3" points="-1.48 32.47 12.275 4.953 26.03 32.488 12.281 60.005 -1.48 32.47"/>
    <polygon class="cls-4" points="26.03 32.47 39.785 4.953 53.54 32.488 39.791 60.005 26.03 32.47"/>
    <polygon class="cls-3" points="53.54 32.47 67.295 4.953 81.05 32.488 67.301 60.005 53.54 32.47"/>
    <polygon class="cls-5" points="12.275 59.997 26.03 32.479 39.785 60.014 26.036 87.532 12.275 59.997"/>
    <polygon class="cls-5" points="-15.235 59.997 -1.48 32.479 12.275 60.014 -1.474 87.532 -15.235 59.997"/>
    <polygon class="cls-5" points="39.785 59.997 53.54 32.479 67.295 60.014 53.546 87.532 39.785 59.997"/>
    <polygon class="cls-5" points="67.295 59.997 81.05 32.479 94.805 60.014 81.056 87.532 67.295 59.997"/>
    <polygon class="cls-4" points="26.03 87.523 39.785 60.005 53.54 87.54 39.791 115.058 26.03 87.523"/>
    <polygon class="cls-3" points="-1.48 87.523 12.275 60.005 26.03 87.54 12.281 115.058 -1.48 87.523"/>
    <polygon class="cls-3" points="53.54 87.523 67.295 60.005 81.05 87.54 67.301 115.058 53.54 87.523"/>
    <polygon class="cls-6" points="-15.235 4.944 -1.48 -22.574 12.275 4.962 -1.474 32.479 -15.235 4.944"/>
    <polygon class="cls-6" points="12.275 4.944 26.03 -22.574 39.785 4.962 26.036 32.479 12.275 4.944"/>
    <polygon class="cls-6" points="39.785 4.944 53.54 -22.574 67.295 4.962 53.546 32.479 39.785 4.944"/>
    <polygon class="cls-6" points="67.295 4.944 81.05 -22.574 94.805 4.962 81.056 32.479 67.295 4.944"/>
    <polygon class="cls-6" points="-15.235 115.049 -1.48 87.532 12.275 115.067 -1.474 142.584 -15.235 115.049"/>
    <polygon class="cls-6" points="12.275 115.049 26.03 87.532 39.785 115.067 26.036 142.584 12.275 115.049"/>
    <polygon class="cls-6" points="39.785 115.049 53.54 87.532 67.295 115.067 53.546 142.584 39.785 115.049"/>
    <polygon class="cls-6" points="67.295 115.049 81.05 87.532 94.805 115.067 81.056 142.584 67.295 115.049"/>
  </g>
  <g>
    <path class="cls-7" d="M70.0039,5A5.0009,5.0009,0,0,1,75,9.9945V110.0056A5.0009,5.0009,0,0,1,70.0039,115H9.9961A5.0009,5.0009,0,0,1,5,110.0056V9.9945A5.0009,5.0009,0,0,1,9.9961,5H70.0039m0-5H9.9961A9.9953,9.9953,0,0,0,0,9.9945V110.0056A9.9952,9.9952,0,0,0,9.996,120H70.0039A9.9952,9.9952,0,0,0,80,110.0057h0V9.9945A9.9953,9.9953,0,0,0,70.0039,0Z"/>
    <path class="cls-8" d="M70.0039,1.99A8.0043,8.0043,0,0,1,78,9.9851V109.9957a8.0043,8.0043,0,0,1-7.9961,7.9945H9.9961A8.0044,8.0044,0,0,1,2,109.9957V9.9851A8.0043,8.0043,0,0,1,9.9961,1.99H70.0039m0-2H9.9961A9.9952,9.9952,0,0,0,0,9.9845V109.9957A9.9952,9.9952,0,0,0,9.9961,119.99H70.0039A9.9953,9.9953,0,0,0,80,109.9957V9.9851A9.9952,9.9952,0,0,0,70.0045-.01Z"/>
  </g>
</svg>
