<svg id="Layer_1" data-name="Layer 1" xmlns="http://www.w3.org/2000/svg" viewBox="0 0 120 180">
  <defs>
    <style>
      .cls-1 {
        fill: #fff9df;
      }

      .cls-2 {
        fill: #ffbebe;
      }

      .cls-3 {
        fill: #050039;
      }

      .cls-4 {
        opacity: 0.2;
      }

      .cls-5 {
        fill: #3d3d3d;
      }

      .cls-6 {
        fill: #fff;
      }
    </style>
  </defs>
  <title>face5</title>
  <rect class="cls-1" x="-27.3761" y="33.3322" width="172.5628" height="111.9133" rx="17.5275" ry="17.5275" transform="translate(148.1941 30.3834) rotate(90)"/>
  <g>
    <circle class="cls-2" cx="18.9967" cy="136.8909" r="5.4673"/>
    <circle class="cls-2" cx="18.9967" cy="155.8501" r="5.4673"/>
    <circle class="cls-2" cx="79.3914" cy="23.1354" r="5.4673"/>
    <circle class="cls-2" cx="99.5229" cy="23.1354" r="5.4673"/>
  </g>
  <circle class="cls-2" cx="51.4595" cy="68.7271" r="34.5946"/>
  <path class="cls-3" d="M27.946,26.0791c0,3.4473-2.6094,5.82-6.4619,5.82-3.8975,0-6.5655-2.4062-6.53-6.01h3.083a3.2838,3.2838,0,0,0,3.498,3.4024,3.0574,3.0574,0,0,0,3.3282-3.1377A3.0976,3.0976,0,0,0,21.52,22.9971a3.435,3.435,0,0,0-2.7227,1.2207l-2.8847-.003.2656-8.6416h10.6v2.5606H18.6012l-.1484,3.65a5.5124,5.5124,0,0,1,3.7178-1.2559A5.4227,5.4227,0,0,1,27.946,26.0791Z"/>
  <path class="cls-3" d="M104.402,158.39c0,3.4473-2.6093,5.82-6.4619,5.82-3.8974,0-6.5654-2.4063-6.53-6.0108h3.083a3.284,3.284,0,0,0,3.4981,3.4033,3.0574,3.0574,0,0,0,3.3281-3.1377,3.0971,3.0971,0,0,0-3.3428-3.1572,3.4372,3.4372,0,0,0-2.7226,1.22l-2.8848-.0029.2657-8.6416h10.6v2.5606H95.0573l-.1484,3.6513a5.5121,5.5121,0,0,1,3.7177-1.2558A5.4226,5.4226,0,0,1,104.402,158.39Z"/>
  <g class="cls-4">
    <path class="cls-5" d="M74.4248,93.8379c0,7.7959-5.9023,13.1621-14.6142,13.1621-8.8145,0-14.8467-5.4424-14.7666-13.5928h6.9726c.1221,4.7344,3.2578,7.6973,7.91,7.6973,4.54,0,7.5263-2.86,7.5263-7.0967,0-4.3183-3.16-7.14-7.5605-7.14a7.7647,7.7647,0,0,0-6.1563,2.76l-6.5244-.0068.6006-19.542H71.7832v5.79H53.292l-.3369,8.2559a12.4732,12.4732,0,0,1,8.4092-2.84C68.8408,81.2852,74.4248,86.2451,74.4248,93.8379Z"/>
  </g>
  <g>
    <path class="cls-6" d="M104.9546,7.53a7.5014,7.5014,0,0,1,7.4941,7.4917V165.0379a7.5013,7.5013,0,0,1-7.4941,7.4916H14.9428a7.5013,7.5013,0,0,1-7.4941-7.4916V15.0212A7.5014,7.5014,0,0,1,14.9428,7.53h90.0118m0-7.5H14.9428A14.9929,14.9929,0,0,0-.0513,15.0212V165.0379A14.9929,14.9929,0,0,0,14.9428,180.03h90.0118a14.9929,14.9929,0,0,0,14.9941-14.9916V15.0212A14.9929,14.9929,0,0,0,104.9546.03Z"/>
    <path class="cls-3" d="M104.9546,3.0148a12.0064,12.0064,0,0,1,11.9941,11.9916V165.0231a12.0065,12.0065,0,0,1-11.9941,11.9917H14.9429A12.0066,12.0066,0,0,1,2.9487,165.0231V15.0064A12.0065,12.0065,0,0,1,14.9429,3.0148h90.0117m0-3H14.9429A14.9929,14.9929,0,0,0-.0513,15.0064V165.0231a14.993,14.993,0,0,0,14.9942,14.9917h90.0117a14.993,14.993,0,0,0,14.9941-14.9917V15.0064A14.9929,14.9929,0,0,0,104.9546.0148Z"/>
  </g>
  <path class="cls-3" d="M84.4834,113.5518H81.8887a.5.5,0,0,1,0-1h2.5947a.5.5,0,0,1,0,1Zm-6.0547,0H75.834a.5.5,0,0,1,0-1h2.5947a.5.5,0,0,1,0,1Zm-6.0537,0H69.78a.5.5,0,0,1,0-1H72.375a.5.5,0,0,1,0,1Zm-6.0537,0H63.7266a.5.5,0,0,1,0-1h2.5947a.5.5,0,0,1,0,1Zm-6.0547,0H57.6719a.5.5,0,0,1,0-1h2.5947a.5.5,0,0,1,0,1Zm-6.0537,0H51.6182a.5.5,0,0,1,0-1h2.5947a.5.5,0,1,1,0,1Z"/>
  <path class="cls-3" d="M76.5915,91.5654c0,7.7959-5.9024,13.1621-14.6143,13.1621-8.8144,0-14.8467-5.4423-14.7666-13.5927h6.9727c.122,4.7343,3.2578,7.6972,7.91,7.6972,4.54,0,7.5264-2.86,7.5264-7.0966,0-4.3184-3.16-7.14-7.56-7.14a7.7646,7.7646,0,0,0-6.1563,2.76l-6.5244-.0069.6006-19.542H73.95v5.79H55.4587l-.3369,8.2558a12.4729,12.4729,0,0,1,8.4091-2.84C71.0075,79.0127,76.5915,83.9727,76.5915,91.5654Z"/>
</svg>
