<svg id="Layer_1" data-name="Layer 1" xmlns="http://www.w3.org/2000/svg" viewBox="0 0 120 180">
  <defs>
    <style>
      .cls-1 {
        fill: #fff9df;
      }

      .cls-2 {
        fill: #ffbebe;
      }

      .cls-3 {
        fill: #fff;
      }

      .cls-4 {
        fill: #050039;
      }

      .cls-5 {
        opacity: 0.19;
      }

      .cls-6 {
        fill: #3d3d3d;
      }
    </style>
  </defs>
  <title>face40</title>
  <rect class="cls-1" x="-27.3761" y="33.3322" width="172.5628" height="111.9133" rx="17.5275" ry="17.5275" transform="translate(148.1941 30.3834) rotate(90)"/>
  <g>
    <circle class="cls-2" cx="19.6856" cy="43.0947" r="5.4673"/>
    <circle class="cls-2" cx="39.8172" cy="43.0947" r="5.4673"/>
    <circle class="cls-2" cx="59.9487" cy="43.0947" r="5.4673"/>
    <circle class="cls-2" cx="80.0803" cy="43.0947" r="5.4673"/>
    <circle class="cls-2" cx="100.2118" cy="43.0947" r="5.4673"/>
    <circle class="cls-2" cx="19.6856" cy="62.0539" r="5.4673"/>
    <circle class="cls-2" cx="39.8172" cy="62.0539" r="5.4673"/>
    <circle class="cls-2" cx="59.9487" cy="62.0539" r="5.4673"/>
    <circle class="cls-2" cx="80.0803" cy="62.0539" r="5.4673"/>
    <circle class="cls-2" cx="100.2118" cy="62.0539" r="5.4673"/>
    <circle class="cls-2" cx="19.6856" cy="81.0132" r="5.4673"/>
    <circle class="cls-2" cx="100.2118" cy="81.0132" r="5.4673"/>
    <circle class="cls-2" cx="19.6856" cy="99.9724" r="5.4673"/>
    <circle class="cls-2" cx="100.2118" cy="99.9724" r="5.4673"/>
    <circle class="cls-2" cx="19.6856" cy="118.9316" r="5.4673"/>
    <circle class="cls-2" cx="39.8172" cy="118.9316" r="5.4673"/>
    <circle class="cls-2" cx="59.9487" cy="118.9316" r="5.4673"/>
    <circle class="cls-2" cx="80.0803" cy="118.9316" r="5.4673"/>
    <circle class="cls-2" cx="100.2118" cy="118.9316" r="5.4673"/>
    <circle class="cls-2" cx="19.6856" cy="137.8909" r="5.4673"/>
    <circle class="cls-2" cx="39.8172" cy="137.8909" r="5.4673"/>
    <circle class="cls-2" cx="59.9487" cy="137.8909" r="5.4673"/>
    <circle class="cls-2" cx="80.0803" cy="137.8909" r="5.4673"/>
    <circle class="cls-2" cx="100.2118" cy="137.8909" r="5.4673"/>
    <circle class="cls-2" cx="19.6856" cy="156.8501" r="5.4673"/>
    <circle class="cls-2" cx="39.8172" cy="156.8501" r="5.4673"/>
    <circle class="cls-2" cx="59.9487" cy="156.8501" r="5.4673"/>
    <circle class="cls-2" cx="59.9487" cy="24.1354" r="5.4673"/>
    <circle class="cls-2" cx="80.0803" cy="24.1354" r="5.4673"/>
    <circle class="cls-2" cx="100.2118" cy="24.1354" r="5.4673"/>
  </g>
  <g>
    <g>
      <path class="cls-3" d="M29.2068,24.7936H24.6863v7.39H21.6971v-7.39h-6.628v-8.707h2.9463V22.404l3.7246.002V17.237h2.9463v5.1709l4.5205.002Z"/>
      <path class="cls-4" d="M25.1863,32.6833H21.1971v-7.39h-6.628v-9.707h3.9463V21.904l2.7246.002V16.737h3.9463v5.1709l4.5205.002v3.3837H25.1863Zm-2.9892-1h1.9892v-7.39h4.5205V22.91l-4.5205-.002V17.737H22.24v5.169l-4.7246-.002V16.5866H15.5691v7.707h6.628Z"/>
    </g>
    <g>
      <path class="cls-3" d="M48.3875,24.1354a8.2651,8.2651,0,0,1-8.624,8.2784,8.2855,8.2855,0,1,1,0-16.5567A8.2651,8.2651,0,0,1,48.3875,24.1354Zm-14.3516,0a5.8225,5.8225,0,0,0,.835,3.08l7.9424-7.9472a6.0216,6.0216,0,0,0-3.05-.7832A5.4851,5.4851,0,0,0,34.0359,24.1354Zm11.45,0a5.827,5.827,0,0,0-.83-3.0732l-7.9394,7.9443a6.0413,6.0413,0,0,0,3.0469.7793A5.4843,5.4843,0,0,0,45.4861,24.1354Z"/>
      <path class="cls-4" d="M39.7635,32.9138a8.7851,8.7851,0,1,1,0-17.5567,8.7849,8.7849,0,1,1,0,17.5567Zm0-16.5567a7.786,7.786,0,1,0,0,15.5567,7.7857,7.7857,0,1,0,0-15.5567Zm0,13.9287a6.58,6.58,0,0,1-3.2969-.8466l-.5635-.3262L44.7508,20.26l.331.54a6.3591,6.3591,0,0,1,.9043,3.3349A5.9842,5.9842,0,0,1,39.7635,30.2858Zm-2.2-1.4189a5.7838,5.7838,0,0,0,2.2.4189,4.9626,4.9626,0,0,0,5.2226-5.15,5.529,5.529,0,0,0-.456-2.2392Zm-2.7862-.8506-.332-.5381a6.3585,6.3585,0,0,1-.9092-3.3428,5.9865,5.9865,0,0,1,6.2276-6.15,6.5634,6.5634,0,0,1,3.3017.8505l.5606.3272Zm4.9864-9.0312a4.965,4.965,0,0,0-5.2276,5.15,5.5287,5.5287,0,0,0,.46,2.2471l6.9717-6.9756A5.759,5.759,0,0,0,39.7635,18.9851Z"/>
    </g>
  </g>
  <g>
    <g>
      <path class="cls-3" d="M86.6687,156.1719h-4.52v7.39H79.159v-7.39H72.531v-8.7071h2.9463v6.3174l3.7246.002v-5.169h2.9463v5.1709l4.52.002Z"/>
      <path class="cls-4" d="M82.6482,164.0615H78.659v-7.39H72.031v-9.7071h3.9463v6.3174l2.7246.002v-5.169h3.9463v5.1709l4.52.002v3.3838h-4.52Zm-2.9892-1h1.9892v-7.39h4.52v-1.3838l-4.52-.002v-5.1709H79.7019v5.169l-4.7246-.002v-6.3174H73.031v7.7071h6.628Z"/>
    </g>
    <g>
      <path class="cls-3" d="M105.8494,155.5137a8.6343,8.6343,0,1,1-8.624-8.2783A8.265,8.265,0,0,1,105.8494,155.5137Zm-14.3516,0a5.8228,5.8228,0,0,0,.835,3.08l7.9424-7.9473a6.0226,6.0226,0,0,0-3.05-.7832A5.4851,5.4851,0,0,0,91.4978,155.5137Zm11.45,0a5.828,5.828,0,0,0-.83-3.0733l-7.9395,7.9444a6.0416,6.0416,0,0,0,3.0469.7793A5.4844,5.4844,0,0,0,102.948,155.5137Z"/>
      <path class="cls-4" d="M97.2254,164.292a8.7848,8.7848,0,1,1,9.124-8.7783A8.7622,8.7622,0,0,1,97.2254,164.292Zm0-16.5566a7.7857,7.7857,0,1,0,8.124,7.7783A7.785,7.785,0,0,0,97.2254,147.7354Zm0,13.9287a6.5805,6.5805,0,0,1-3.2969-.8467l-.5635-.3262,8.8477-8.8525.331.54a6.3592,6.3592,0,0,1,.9043,3.335A5.9842,5.9842,0,0,1,97.2254,161.6641Zm-2.2-1.419a5.7842,5.7842,0,0,0,2.2.419,4.9626,4.9626,0,0,0,5.2226-5.15,5.53,5.53,0,0,0-.456-2.2393Zm-2.7861-.8506-.3321-.5381a6.3581,6.3581,0,0,1-.9092-3.3427,5.9866,5.9866,0,0,1,6.2276-6.15,6.5625,6.5625,0,0,1,3.3017.8506l.5606.3271Zm4.9863-9.0312a4.965,4.965,0,0,0-5.2276,5.15,5.5286,5.5286,0,0,0,.46,2.247l6.9717-6.9755A5.7572,5.7572,0,0,0,97.2254,150.3633Z"/>
    </g>
  </g>
  <g class="cls-5">
    <path class="cls-6" d="M54.1424,92.1846H45.8836v13.5h-5.461v-13.5H28.3152V76.2793H33.698v11.54l6.8028.0039V78.38h5.3828v9.4463l8.2588.0039Z"/>
    <path class="cls-6" d="M89.1687,90.9814c0,8.6329-6.7666,15.1231-15.7539,15.1231-8.998,0-15.7646-6.49-15.7646-15.1231s6.7666-15.122,15.7646-15.122C82.4021,75.8594,89.1687,82.35,89.1687,90.9814Zm-26.2177,0a10.6416,10.6416,0,0,0,1.5254,5.628L78.9871,82.0908a11.0177,11.0177,0,0,0-5.5723-1.4316C67.3152,80.6592,62.951,84.9814,62.951,90.9814Zm20.917,0a10.64,10.64,0,0,0-1.5166-5.6132L67.8474,99.8809a11.0506,11.0506,0,0,0,5.5674,1.4238A10.0185,10.0185,0,0,0,83.868,90.9814Z"/>
  </g>
  <g>
    <path class="cls-3" d="M104.9546,7.53a7.5014,7.5014,0,0,1,7.4941,7.4917V165.0379a7.5013,7.5013,0,0,1-7.4941,7.4916H14.9428a7.5013,7.5013,0,0,1-7.4941-7.4916V15.0212A7.5014,7.5014,0,0,1,14.9428,7.53h90.0118m0-7.5H14.9428A14.9929,14.9929,0,0,0-.0513,15.0212V165.0379A14.9929,14.9929,0,0,0,14.9428,180.03h90.0118a14.9929,14.9929,0,0,0,14.9941-14.9916V15.0212A14.9929,14.9929,0,0,0,104.9546.03Z"/>
    <path class="cls-4" d="M104.9546,3.0148a12.0064,12.0064,0,0,1,11.9941,11.9916V165.0231a12.0065,12.0065,0,0,1-11.9941,11.9917H14.9429A12.0066,12.0066,0,0,1,2.9487,165.0231V15.0064A12.0065,12.0065,0,0,1,14.9429,3.0148h90.0117m0-3H14.9429A14.9929,14.9929,0,0,0-.0513,15.0064V165.0231a14.993,14.993,0,0,0,14.9942,14.9917h90.0117a14.993,14.993,0,0,0,14.9941-14.9917V15.0064A14.9929,14.9929,0,0,0,104.9546.0148Z"/>
  </g>
  <g>
    <path class="cls-4" d="M57.4,89.83H49.1416v13.5H43.6807V89.83H31.5732V73.9248h5.3829v11.54l6.8027.004V76.0254h5.3828v9.4463l8.2588.0039Z"/>
    <path class="cls-4" d="M92.4268,88.627c0,8.6328-6.7666,15.123-15.7539,15.123-8.9981,0-15.7647-6.49-15.7647-15.123s6.7666-15.1221,15.7647-15.1221C85.66,73.5049,92.4268,79.9951,92.4268,88.627Zm-26.2178,0a10.6415,10.6415,0,0,0,1.5254,5.6279L82.2451,79.7363a11.0173,11.0173,0,0,0-5.5722-1.4316C70.5732,78.3047,66.209,82.627,66.209,88.627Zm20.917,0a10.64,10.64,0,0,0-1.5166-5.6133L71.1055,97.5264A11.0491,11.0491,0,0,0,76.6729,98.95,10.0185,10.0185,0,0,0,87.126,88.627Z"/>
  </g>
</svg>
