<svg id="Layer_1" data-name="Layer 1" xmlns="http://www.w3.org/2000/svg" viewBox="0 0 80.0177 120.054">
  <defs>
    <style>
      .cls-1 {
        fill: #fff9df;
      }

      .cls-2 {
        fill: #3e52d8;
      }

      .cls-3 {
        fill: #050039;
      }

      .cls-4 {
        fill: #ffd02f;
      }
    </style>
  </defs>
  <title>card_face1</title>
  <rect class="cls-1" x="-20.0143" y="19.968" width="120.0462" height="80.0177" rx="10.3903" ry="10.3903" transform="translate(99.9857 20.0221) rotate(90)"/>
  <path class="cls-2" d="M70.0165,2.5411a7.4144,7.4144,0,0,1,7.406,7.406v100.044a7.4143,7.4143,0,0,1-7.406,7.4059H10.0011a7.4143,7.4143,0,0,1-7.4059-7.4059V9.9471a7.4143,7.4143,0,0,1,7.4059-7.406H70.0165m0-2.5951H10.0011A10.0011,10.0011,0,0,0,0,9.9471v100.044a10.0012,10.0012,0,0,0,10.0011,10.0011H70.0165a10.0012,10.0012,0,0,0,10.0012-10.0011V9.9471A10.0011,10.0011,0,0,0,70.0165-.054Z" transform="translate(0 0.054)"/>
  <path class="cls-3" d="M68.959,102.7515H66.5762V101.27l1.21-.0517a1.11,1.11,0,0,0,1.2119-1.19l.0225-.3056h1.752v10.0937H68.959Z" transform="translate(0 0.054)"/>
  <circle class="cls-4" cx="34.3139" cy="45.8557" r="23.0682"/>
  <path class="cls-3" d="M11.5776,12.2222H9.1948V10.7407l1.21-.0517a1.11,1.11,0,0,0,1.2124-1.19l.0215-.3056h1.7519V19.2871h-1.813Z" transform="translate(0 0.054)"/>
  <path class="cls-3" d="M40.1729,52.9546H34.2163V49.252l3.0249-.1285c1.9688-.0839,2.8784-.9848,3.03-2.9746l.0537-.7641h4.3794v25.229H40.1724Z" transform="translate(0 0.054)"/>
  <path class="cls-3" d="M57.1378,75.8041H55.2627a.39.39,0,1,1,0-.7809h1.8751a.39.39,0,1,1,0,.7809Zm-4.3746,0H50.888a.39.39,0,0,1,0-.7809h1.8752a.39.39,0,1,1,0,.7809Zm-4.3747,0H46.5134a.39.39,0,1,1,0-.7809h1.8751a.39.39,0,1,1,0,.7809Zm-4.3746,0H42.14a.39.39,0,1,1,0-.7809h1.8741a.39.39,0,1,1,0,.7809Zm-4.3741,0H37.7651a.39.39,0,0,1,0-.7809H39.64a.39.39,0,0,1,0,.7809Zm-4.3747,0H33.3905a.39.39,0,1,1,0-.7809h1.8746a.39.39,0,1,1,0,.7809Z" transform="translate(0 0.054)"/>
</svg>
