<svg id="Layer_1" data-name="Layer 1" xmlns="http://www.w3.org/2000/svg" viewBox="0 0 120 180">
  <defs>
    <style>
      .cls-1 {
        fill: #fff9df;
      }

      .cls-2 {
        fill: #fff;
      }

      .cls-3 {
        fill: #050039;
      }

      .cls-4 {
        opacity: 0.19;
      }

      .cls-5 {
        fill: #3d3d3d;
      }

      .cls-6 {
        fill: #ffbebe;
      }
    </style>
  </defs>
  <title>face100</title>
  <rect class="cls-1" x="-27.3761" y="33.3322" width="172.5628" height="111.9133" rx="17.5275" ry="17.5275" transform="translate(148.1941 30.3834) rotate(90)"/>
  <g>
    <g>
      <path class="cls-2" d="M20.0929,20.8408H16.2921V18.4785l1.93-.082a1.7714,1.7714,0,0,0,1.9336-1.8975l.0342-.4882h2.7939V32.1074H20.0919Z"/>
      <path class="cls-3" d="M23.4835,32.6074H19.5919l.001-11.2666H15.7921V17.999L18.2,17.8965c.9981-.042,1.3789-.418,1.4561-1.4355l.0674-.95h3.76Zm-2.8916-1h1.8916V16.5108l-1.8291.0234a2.2618,2.2618,0,0,1-2.4111,2.3623l-1.4512.0615v1.3828h3.8008Z"/>
    </g>
    <g>
      <path class="cls-2" d="M43.0636,24.06a8.265,8.265,0,0,1-8.624,8.2783,8.2855,8.2855,0,1,1,0-16.5566A8.265,8.265,0,0,1,43.0636,24.06Zm-14.3516,0a5.8237,5.8237,0,0,0,.835,3.08l7.9424-7.9473a6.0226,6.0226,0,0,0-3.05-.7832A5.4851,5.4851,0,0,0,28.712,24.06Zm11.45,0a5.828,5.828,0,0,0-.83-3.0733l-7.9395,7.9444A6.0416,6.0416,0,0,0,34.44,29.71,5.4844,5.4844,0,0,0,40.1622,24.06Z"/>
      <path class="cls-3" d="M34.44,32.8379a8.7851,8.7851,0,1,1,0-17.5566,8.7848,8.7848,0,1,1,0,17.5566Zm0-16.5566a7.7859,7.7859,0,1,0,0,15.5566,7.7857,7.7857,0,1,0,0-15.5566Zm0,13.9287a6.5805,6.5805,0,0,1-3.2969-.8467l-.5635-.3262,8.8477-8.8525.331.54a6.3592,6.3592,0,0,1,.9043,3.335A5.9841,5.9841,0,0,1,34.44,30.21Zm-2.2-1.419a5.7842,5.7842,0,0,0,2.2.419,4.9626,4.9626,0,0,0,5.2226-5.15,5.53,5.53,0,0,0-.456-2.2393ZM29.4533,27.94l-.3321-.538A6.3587,6.3587,0,0,1,28.212,24.06a5.9866,5.9866,0,0,1,6.2276-6.15,6.5625,6.5625,0,0,1,3.3017.8506l.5606.3271ZM34.44,18.9092a4.9651,4.9651,0,0,0-5.2276,5.15,5.5311,5.5311,0,0,0,.46,2.2471l6.9717-6.9756A5.7572,5.7572,0,0,0,34.44,18.9092Z"/>
    </g>
    <g>
      <path class="cls-2" d="M62.4757,24.06a8.265,8.265,0,0,1-8.624,8.2783,8.2855,8.2855,0,1,1,0-16.5566A8.265,8.265,0,0,1,62.4757,24.06Zm-14.3515,0a5.8236,5.8236,0,0,0,.8349,3.08l7.9424-7.9473a6.0226,6.0226,0,0,0-3.05-.7832A5.485,5.485,0,0,0,48.1242,24.06Zm11.45,0a5.828,5.828,0,0,0-.83-3.0733l-7.94,7.9444a6.0416,6.0416,0,0,0,3.0469.7793A5.4844,5.4844,0,0,0,59.5744,24.06Z"/>
      <path class="cls-3" d="M53.8517,32.8379a8.7851,8.7851,0,1,1,0-17.5566,8.7848,8.7848,0,1,1,0,17.5566Zm0-16.5566a7.7859,7.7859,0,1,0,0,15.5566,7.7857,7.7857,0,1,0,0-15.5566Zm0,13.9287a6.5808,6.5808,0,0,1-3.2969-.8467l-.5635-.3262,8.8477-8.8525.3311.54a6.3592,6.3592,0,0,1,.9043,3.335A5.9842,5.9842,0,0,1,53.8517,30.21Zm-2.2-1.419a5.7842,5.7842,0,0,0,2.2.419,4.9627,4.9627,0,0,0,5.2227-5.15,5.53,5.53,0,0,0-.4561-2.2393ZM48.8654,27.94l-.3321-.538a6.3587,6.3587,0,0,1-.9091-3.3428,5.9865,5.9865,0,0,1,6.2275-6.15,6.5631,6.5631,0,0,1,3.3018.8506l.56.3271Zm4.9863-9.0312a4.965,4.965,0,0,0-5.2275,5.15,5.531,5.531,0,0,0,.46,2.2471l6.9717-6.9756A5.7564,5.7564,0,0,0,53.8517,18.9092Z"/>
    </g>
  </g>
  <g>
    <g>
      <path class="cls-2" d="M63.1554,152.5254H59.3546v-2.3623l1.93-.082a1.7715,1.7715,0,0,0,1.9336-1.8975l.0342-.4883H66.046V163.792H63.1544Z"/>
      <path class="cls-3" d="M66.546,164.292H62.6544l.001-11.2666H58.8546v-3.3418l2.4082-.1025c.9981-.042,1.3789-.418,1.4561-1.4356l.0674-.95h3.76Zm-2.8916-1H65.546V148.1953l-1.8291.0235a2.2619,2.2619,0,0,1-2.4111,2.3623l-1.4512.0615v1.3828h3.8008Z"/>
    </g>
    <g>
      <path class="cls-2" d="M86.1261,155.7441a8.6343,8.6343,0,1,1-8.624-8.2783A8.2651,8.2651,0,0,1,86.1261,155.7441Zm-14.3516,0a5.8225,5.8225,0,0,0,.835,3.08l7.9424-7.9472a6.0216,6.0216,0,0,0-3.05-.7832A5.4851,5.4851,0,0,0,71.7745,155.7441Zm11.45,0a5.8279,5.8279,0,0,0-.83-3.0732l-7.9395,7.9443a6.0416,6.0416,0,0,0,3.0469.7793A5.4843,5.4843,0,0,0,83.2247,155.7441Z"/>
      <path class="cls-3" d="M77.5021,164.5225a8.7849,8.7849,0,1,1,9.124-8.7784A8.7622,8.7622,0,0,1,77.5021,164.5225Zm0-16.5567a7.7857,7.7857,0,1,0,8.124,7.7783A7.785,7.785,0,0,0,77.5021,147.9658Zm0,13.9287a6.58,6.58,0,0,1-3.2969-.8466l-.5635-.3262,8.8477-8.8526.331.54a6.3588,6.3588,0,0,1,.9043,3.3349A5.9842,5.9842,0,0,1,77.5021,161.8945Zm-2.2-1.4189a5.7838,5.7838,0,0,0,2.2.4189,4.9626,4.9626,0,0,0,5.2226-5.15,5.529,5.529,0,0,0-.456-2.2392Zm-2.7862-.8506-.332-.5381a6.3585,6.3585,0,0,1-.9092-3.3428,5.9865,5.9865,0,0,1,6.2276-6.15,6.5634,6.5634,0,0,1,3.3017.8505l.5606.3272Zm4.9864-9.0312a4.965,4.965,0,0,0-5.2276,5.15,5.5287,5.5287,0,0,0,.46,2.2471l6.9717-6.9756A5.759,5.759,0,0,0,77.5021,150.5938Z"/>
    </g>
    <g>
      <path class="cls-2" d="M105.5382,155.7441a8.6343,8.6343,0,1,1-8.624-8.2783A8.2651,8.2651,0,0,1,105.5382,155.7441Zm-14.3516,0a5.8225,5.8225,0,0,0,.835,3.08l7.9424-7.9472a6.0216,6.0216,0,0,0-3.05-.7832A5.4851,5.4851,0,0,0,91.1866,155.7441Zm11.45,0a5.8279,5.8279,0,0,0-.83-3.0732l-7.9395,7.9443a6.0416,6.0416,0,0,0,3.0469.7793A5.4843,5.4843,0,0,0,102.6368,155.7441Z"/>
      <path class="cls-3" d="M96.9142,164.5225a8.7849,8.7849,0,1,1,9.124-8.7784A8.7622,8.7622,0,0,1,96.9142,164.5225Zm0-16.5567a7.7857,7.7857,0,1,0,8.124,7.7783A7.785,7.785,0,0,0,96.9142,147.9658Zm0,13.9287a6.58,6.58,0,0,1-3.2969-.8466l-.5635-.3262,8.8477-8.8526.331.54a6.3588,6.3588,0,0,1,.9043,3.3349A5.9841,5.9841,0,0,1,96.9142,161.8945Zm-2.2-1.4189a5.7842,5.7842,0,0,0,2.2.4189,4.9626,4.9626,0,0,0,5.2226-5.15,5.529,5.529,0,0,0-.456-2.2392Zm-2.7861-.8506-.3321-.5381a6.3585,6.3585,0,0,1-.9092-3.3428,5.9865,5.9865,0,0,1,6.2276-6.15,6.5634,6.5634,0,0,1,3.3017.8505l.5606.3272Zm4.9863-9.0312a4.965,4.965,0,0,0-5.2276,5.15,5.5287,5.5287,0,0,0,.46,2.2471l6.9717-6.9756A5.759,5.759,0,0,0,96.9142,150.5938Z"/>
    </g>
  </g>
  <g class="cls-4">
    <path class="cls-5" d="M22.6705,86.1025H15.7282V81.7861l3.5254-.1494c2.2949-.0976,3.3544-1.1474,3.5312-3.4668l.0625-.8906h5.1045v29.4053H22.67Z"/>
    <path class="cls-5" d="M64.6256,91.9814c0,8.6329-6.7666,15.1231-15.7539,15.1231-8.998,0-15.7646-6.49-15.7646-15.1231s6.7666-15.122,15.7646-15.122C57.859,76.8594,64.6256,83.35,64.6256,91.9814Zm-26.2178,0a10.6339,10.6339,0,0,0,1.5264,5.628l14.51-14.5186a11.018,11.018,0,0,0-5.5723-1.4316C42.7721,81.6592,38.4078,85.9814,38.4078,91.9814Zm20.917,0a10.6386,10.6386,0,0,0-1.5166-5.6132L43.3053,100.8809a11.0441,11.0441,0,0,0,5.5664,1.4238A10.0184,10.0184,0,0,0,59.3248,91.9814Z"/>
    <path class="cls-5" d="M100.0748,91.9814c0,8.6329-6.7666,15.1231-15.7539,15.1231-8.998,0-15.7646-6.49-15.7646-15.1231s6.7666-15.122,15.7646-15.122C93.3082,76.8594,100.0748,83.35,100.0748,91.9814Zm-26.2177,0a10.6339,10.6339,0,0,0,1.5263,5.628l14.51-14.5186a11.0177,11.0177,0,0,0-5.5723-1.4316C78.2213,81.6592,73.8571,85.9814,73.8571,91.9814Zm20.917,0a10.64,10.64,0,0,0-1.5166-5.6132l-14.503,14.5127a11.0441,11.0441,0,0,0,5.5664,1.4238A10.0185,10.0185,0,0,0,94.7741,91.9814Z"/>
  </g>
  <g>
    <path class="cls-2" d="M104.9546,7.53a7.5014,7.5014,0,0,1,7.4941,7.4917V165.0379a7.5013,7.5013,0,0,1-7.4941,7.4916H14.9428a7.5013,7.5013,0,0,1-7.4941-7.4916V15.0212A7.5014,7.5014,0,0,1,14.9428,7.53h90.0118m0-7.5H14.9428A14.9929,14.9929,0,0,0-.0513,15.0212V165.0379A14.9929,14.9929,0,0,0,14.9428,180.03h90.0118a14.9929,14.9929,0,0,0,14.9941-14.9916V15.0212A14.9929,14.9929,0,0,0,104.9546.03Z"/>
    <path class="cls-3" d="M104.9546,3.0148a12.0064,12.0064,0,0,1,11.9941,11.9916V165.0231a12.0065,12.0065,0,0,1-11.9941,11.9917H14.9429A12.0066,12.0066,0,0,1,2.9487,165.0231V15.0064A12.0065,12.0065,0,0,1,14.9429,3.0148h90.0117m0-3H14.9429A14.9929,14.9929,0,0,0-.0513,15.0064V165.0231a14.993,14.993,0,0,0,14.9942,14.9917h90.0117a14.993,14.993,0,0,0,14.9941-14.9917V15.0064A14.9929,14.9929,0,0,0,104.9546.0148Z"/>
  </g>
  <g>
    <circle class="cls-6" cx="19.7369" cy="43.0947" r="5.4673"/>
    <circle class="cls-6" cx="39.8685" cy="43.0947" r="5.4673"/>
    <circle class="cls-6" cx="60" cy="43.0947" r="5.4673"/>
    <circle class="cls-6" cx="80.1315" cy="43.0947" r="5.4673"/>
    <circle class="cls-6" cx="100.2631" cy="43.0947" r="5.4673"/>
    <circle class="cls-6" cx="19.7369" cy="62.0539" r="5.4673"/>
    <circle class="cls-6" cx="39.8685" cy="62.0539" r="5.4673"/>
    <circle class="cls-6" cx="60" cy="62.0539" r="5.4673"/>
    <circle class="cls-6" cx="80.1315" cy="62.0539" r="5.4673"/>
    <circle class="cls-6" cx="100.2631" cy="62.0539" r="5.4673"/>
    <circle class="cls-6" cx="19.7369" cy="118.9316" r="5.4673"/>
    <circle class="cls-6" cx="39.8685" cy="118.9316" r="5.4673"/>
    <circle class="cls-6" cx="60" cy="118.9316" r="5.4673"/>
    <circle class="cls-6" cx="80.1315" cy="118.9316" r="5.4673"/>
    <circle class="cls-6" cx="100.2631" cy="118.9316" r="5.4673"/>
    <circle class="cls-6" cx="19.7369" cy="137.8909" r="5.4673"/>
    <circle class="cls-6" cx="39.8685" cy="137.8909" r="5.4673"/>
    <circle class="cls-6" cx="60" cy="137.8909" r="5.4673"/>
    <circle class="cls-6" cx="80.1315" cy="137.8909" r="5.4673"/>
    <circle class="cls-6" cx="100.2631" cy="137.8909" r="5.4673"/>
    <circle class="cls-6" cx="19.7369" cy="156.8501" r="5.4673"/>
    <circle class="cls-6" cx="39.8685" cy="156.8501" r="5.4673"/>
    <circle class="cls-6" cx="80.1315" cy="24.1354" r="5.4673"/>
    <circle class="cls-6" cx="100.2631" cy="24.1354" r="5.4673"/>
  </g>
  <g>
    <path class="cls-3" d="M25.6905,83.6758H18.7482V79.3594l3.5254-.1494c2.2949-.0977,3.3544-1.1475,3.5312-3.4668l.0625-.8907h5.1045v29.4053H25.69Z"/>
    <path class="cls-3" d="M67.6456,89.5547c0,8.6328-6.7666,15.123-15.7539,15.123-8.998,0-15.7646-6.49-15.7646-15.123s6.7666-15.1221,15.7646-15.1221C60.879,74.4326,67.6456,80.9229,67.6456,89.5547Zm-26.2177,0a10.6335,10.6335,0,0,0,1.5263,5.6279l14.51-14.5185a11.0167,11.0167,0,0,0-5.5723-1.4317C45.7921,79.2324,41.4279,83.5547,41.4279,89.5547Zm20.9169,0a10.6389,10.6389,0,0,0-1.5166-5.6133L46.3253,98.4541a11.0431,11.0431,0,0,0,5.5664,1.4238A10.0184,10.0184,0,0,0,62.3448,89.5547Z"/>
    <path class="cls-3" d="M103.0948,89.5547c0,8.6328-6.7666,15.123-15.7539,15.123-8.998,0-15.7646-6.49-15.7646-15.123s6.7666-15.1221,15.7646-15.1221C96.3282,74.4326,103.0948,80.9229,103.0948,89.5547Zm-26.2177,0a10.6335,10.6335,0,0,0,1.5263,5.6279l14.51-14.5185a11.0165,11.0165,0,0,0-5.5723-1.4317C81.2413,79.2324,76.8771,83.5547,76.8771,89.5547Zm20.917,0a10.64,10.64,0,0,0-1.5166-5.6133L81.7745,98.4541a11.0431,11.0431,0,0,0,5.5664,1.4238A10.0185,10.0185,0,0,0,97.7941,89.5547Z"/>
  </g>
</svg>
