<?xml version="1.0" encoding="utf-8"?>
<!-- Generator: Adobe Illustrator 24.0.3, SVG Export Plug-In . SVG Version: 6.00 Build 0)  -->
<svg version="1.1" id="Layer_1" xmlns="http://www.w3.org/2000/svg" xmlns:xlink="http://www.w3.org/1999/xlink" x="0px" y="0px"
	 viewBox="0 0 80 120" style="enable-background:new 0 0 80 120;" xml:space="preserve">
<style type="text/css">
	.st0{fill:#FFF9DF;}
	.st1{fill:#FFFFFF;}
	.st2{fill:#050039;}
	.st3{fill:#FFBEBE;}
	.st4{opacity:0.2;}
	.st5{fill:#3D3D3D;}
</style>
<title>face0.5</title>
<path class="st0" d="M76.6,13.7v91.7c0,6.5-5.2,11.7-11.7,11.7H13.7C7.2,117,2,111.8,2,105.4V13.7C2,7.2,7.2,2,13.7,2h51.2
	C71.4,2,76.6,7.2,76.6,13.7z"/>
<path class="st1" d="M70,5c2.8,0,5,2.2,5,5v100c0,2.8-2.2,5-5,5H10c-2.8,0-5-2.2-5-5V10c0-2.8,2.2-5,5-5H70 M70,0H10
	C4.5,0,0,4.5,0,10v100c0,5.5,4.5,10,10,10c0,0,0,0,0,0h60c5.5,0,10-4.5,10-10V10C80,4.5,75.5,0,70,0z"/>
<path class="st2" d="M70,2c4.4,0,8,3.6,8,8v100c0,4.4-3.6,8-8,8H10c-4.4,0-8-3.6-8-8V10c0-4.4,3.6-8,8-8H70 M70,0H10
	C4.5,0,0,4.5,0,10v100c0,5.5,4.5,10,10,10h60c5.5,0,10-4.5,10-10V10C80,4.5,75.5,0,70,0z"/>
<path class="st3" d="M32.2,68.9c-12.7,0-23.1-10.3-23.1-23.1s10.3-23.1,23.1-23.1"/>
<g class="st4">
	<path class="st5" d="M29.6,48.9h-4.4v-2.7l2.2-0.1c1.4-0.1,4.5-0.7,4.7-2.2v-0.6h0.8v18.5h-3.3L29.6,48.9z"/>
	<path class="st5" d="M53.4,77.5v3.1H38.8v-2.4l5.9-4.7c-3-0.2-5.3-2.7-5.3-5.7c0-3.5,2.8-6,6.6-6c3.8,0,6.6,2.5,6.6,5.9
		c0,2.9-2.2,4.8-5.5,7l-3.5,2.8L53.4,77.5z M46,71.2c1.8,0,3.3-1.6,3.2-3.4c0-1.8-1.6-3.3-3.4-3.2c-1.8,0-3.2,1.5-3.2,3.3
		c0,1.8,1.4,3.3,3.2,3.3C45.9,71.2,45.9,71.2,46,71.2L46,71.2z"/>
	<rect x="24.2" y="61.2" transform="matrix(0.7071 -0.7071 0.7071 0.7071 -33.1145 44.5577)" class="st5" width="26" height="2"/>
</g>
<g>
	<path class="st2" d="M10.8,11.7H9.4v-0.9l0.7,0c0.4,0,0.7-0.2,0.7-0.6c0,0,0-0.1,0-0.1l0-0.2h1v5.9h-1.1L10.8,11.7z"/>
	<path class="st2" d="M18.3,20.8v1h-4.6V21l1.9-1.5c-1-0.1-1.7-0.9-1.7-1.8c0-1.1,0.9-1.9,2-1.9c0,0,0.1,0,0.1,0
		c1.1-0.1,2,0.7,2.1,1.7c0,0,0,0.1,0,0.1c0,0.9-0.7,1.5-1.7,2.2l-1.1,0.9L18.3,20.8z M16,18.8c0.6,0,1-0.5,1-1.1s-0.5-1-1.1-1
		c-0.6,0-1,0.5-1,1C14.9,18.3,15.3,18.8,16,18.8C15.9,18.8,16,18.8,16,18.8z"/>
	<rect x="9" y="15.6" transform="matrix(0.7071 -0.7071 0.7071 0.7071 -7.4076 13.9888)" class="st2" width="8.3" height="0.6"/>
</g>
<g>
	<path class="st2" d="M63.1,100.5h-1.4v-0.9l0.7,0c0.4,0,0.7-0.2,0.7-0.6c0,0,0-0.1,0-0.1l0-0.2h1v5.9h-1.1L63.1,100.5z"/>
	<path class="st2" d="M70.7,109.6v1H66v-0.8l1.9-1.5c-1-0.1-1.7-0.9-1.7-1.8c0.1-1.2,1.1-2,2.3-1.9c1,0.1,1.8,0.9,1.9,1.9
		c0,0.9-0.7,1.5-1.7,2.2l-1.1,0.9H70.7z M68.3,107.6c0.6,0,1-0.5,1-1.1s-0.5-1-1.1-1c-0.6,0-1,0.5-1,1
		C67.2,107.1,67.7,107.5,68.3,107.6C68.3,107.6,68.3,107.6,68.3,107.6z"/>
	
		<rect x="61.4" y="104.4" transform="matrix(0.7071 -0.7071 0.7071 0.7071 -54.8495 77.0154)" class="st2" width="8.3" height="0.6"/>
</g>
<g>
	<path class="st2" d="M32,47.1h-4.4v-2.7l2.2-0.1c1.4-0.1,2.1-0.7,2.2-2.2l0-0.6h3.2v18.5H32L32,47.1z"/>
	<path class="st2" d="M55.8,75.7v3.1H41.2v-2.4l5.9-4.7c-3-0.2-5.3-2.7-5.3-5.7c0-3.5,2.8-6,6.6-6c3.8,0,6.6,2.5,6.6,5.9
		c0,2.9-2.2,4.8-5.5,7L46,75.7L55.8,75.7z M48.4,69.4c1.8,0,3.3-1.6,3.2-3.4s-1.6-3.3-3.4-3.2c-1.8,0-3.2,1.5-3.2,3.3
		c0,1.8,1.4,3.3,3.2,3.3C48.3,69.4,48.4,69.4,48.4,69.4L48.4,69.4z"/>
	<rect x="26.6" y="59.5" transform="matrix(0.7071 -0.7071 0.7071 0.7071 -31.1534 45.7365)" class="st2" width="26" height="2"/>
</g>
</svg>
