<svg id="Layer_1" data-name="Layer 1" xmlns="http://www.w3.org/2000/svg" viewBox="0 0 120 180">
  <defs>
    <style>
      .cls-1 {
        fill: #fff9df;
      }

      .cls-2 {
        fill: #fff;
      }

      .cls-3 {
        fill: #050039;
      }

      .cls-4 {
        fill: #ffbebe;
      }

      .cls-5 {
        opacity: 0.2;
      }

      .cls-6 {
        fill: #3d3d3d;
      }
    </style>
  </defs>
  <title>face0.5</title>
  <rect class="cls-1" x="-27.3761" y="33.3322" width="172.5628" height="111.9133" rx="17.5275" ry="17.5275" transform="translate(148.1941 30.3834) rotate(90)"/>
  <path class="cls-2" d="M104.9546,7.53a7.5014,7.5014,0,0,1,7.4941,7.4917V165.0379a7.5013,7.5013,0,0,1-7.4941,7.4916H14.9428a7.5013,7.5013,0,0,1-7.4941-7.4916V15.0212A7.5014,7.5014,0,0,1,14.9428,7.53h90.0118m0-7.5H14.9428A14.9929,14.9929,0,0,0-.0513,15.0212V165.0379A14.9929,14.9929,0,0,0,14.9428,180.03h90.0118a14.9929,14.9929,0,0,0,14.9941-14.9916V15.0212A14.9929,14.9929,0,0,0,104.9546.03Z"/>
  <path class="cls-3" d="M104.9546,3.0148a12.0064,12.0064,0,0,1,11.9941,11.9916V165.0231a12.0065,12.0065,0,0,1-11.9941,11.9917H14.9429A12.0066,12.0066,0,0,1,2.9487,165.0231V15.0064A12.0065,12.0065,0,0,1,14.9429,3.0148h90.0117m0-3H14.9429A14.9929,14.9929,0,0,0-.0513,15.0064V165.0231a14.993,14.993,0,0,0,14.9942,14.9917h90.0117a14.993,14.993,0,0,0,14.9941-14.9917V15.0064A14.9929,14.9929,0,0,0,104.9546.0148Z"/>
  <path class="cls-4" d="M48.2917,103.3217a34.5946,34.5946,0,0,1,0-69.1892"/>
  <g class="cls-5">
    <path class="cls-6" d="M44.332,73.37H37.779V69.297l3.3275-.1414c2.1659-.0924,6.81-1.0834,6.9768-3.2717v-.8414h1.2329V92.7973h-4.985Z"/>
    <path class="cls-6" d="M80.0317,116.2187v4.6045H58.09v-3.5785l8.89-7.0295a8.4836,8.4836,0,0,1-7.9283-8.573c0-5.2187,4.1637-8.97,9.9088-8.97,5.766,0,9.8522,3.7631,9.8522,8.8366,0,4.2821-3.3557,7.2291-8.2588,10.5625l-5.2522,4.1473Zm-11.0428-9.44a4.9584,4.9584,0,1,0-5.08-4.979A4.8577,4.8577,0,0,0,68.9889,106.7783Z"/>
    <rect class="cls-6" x="54.2842" y="73.862" width="3.0148" height="39.0602" transform="translate(82.3792 -12.0967) rotate(45)"/>
  </g>
  <g>
    <path class="cls-3" d="M16.0811,17.5579H13.9992v-1.294l1.0571-.0449A.97.97,0,0,0,16.1154,15.18l.0189-.2674h1.53V23.73H16.0809Z"/>
    <path class="cls-3" d="M27.4232,31.1713v1.4628H20.4521V31.4973l2.8245-2.2334A2.6953,2.6953,0,0,1,20.7577,26.54a2.9063,2.9063,0,0,1,3.1481-2.85,2.882,2.882,0,0,1,3.13,2.8075c0,1.36-1.0661,2.2967-2.6239,3.3558l-1.6686,1.3176ZM23.9148,28.172A1.5753,1.5753,0,1,0,22.301,26.59,1.5433,1.5433,0,0,0,23.9148,28.172Z"/>
    <rect class="cls-3" x="19.243" y="17.7142" width="0.9578" height="12.4097" transform="translate(22.6898 -6.9398) rotate(45)"/>
  </g>
  <g>
    <path class="cls-3" d="M94.6194,150.7289h-2.082v-1.294l1.0572-.0449a.97.97,0,0,0,1.0591-1.0395l.0189-.2673h1.53v8.8179H94.6191Z"/>
    <path class="cls-3" d="M105.9614,164.3423v1.4628H98.99v-1.1369l2.8244-2.2333a2.6953,2.6953,0,0,1-2.5188-2.7237,3.1562,3.1562,0,0,1,6.2782-.0423c0,1.36-1.0662,2.2967-2.6239,3.3558l-1.6687,1.3176Zm-3.5083-2.9993a1.5753,1.5753,0,1,0-1.6138-1.5819A1.5433,1.5433,0,0,0,102.4531,161.343Z"/>
    <rect class="cls-3" x="97.7813" y="150.8852" width="0.9578" height="12.4097" transform="translate(139.8592 -23.4698) rotate(45)"/>
  </g>
  <g>
    <path class="cls-3" d="M47.9374,70.7032h-6.553V66.63l3.3275-.1415c2.1659-.0923,3.1666-1.0834,3.3334-3.2717l.06-.8413h4.8166V90.1306H47.9366Z"/>
    <path class="cls-3" d="M83.6371,113.5521v4.6044H61.6952v-3.5784l8.89-7.03a8.4835,8.4835,0,0,1-7.9283-8.573c0-5.2187,4.1637-8.97,9.9088-8.97,5.766,0,9.8522,3.7631,9.8522,8.8366,0,4.2821-3.3558,7.2291-8.2588,10.5626l-5.2522,4.1473Zm-11.0428-9.44a4.9584,4.9584,0,1,0-5.08-4.979A4.8576,4.8576,0,0,0,72.5943,104.1116Z"/>
    <rect class="cls-3" x="57.8896" y="71.1953" width="3.0148" height="39.0602" transform="translate(81.5495 -15.4272) rotate(45)"/>
  </g>
</svg>
