<?xml version="1.0" encoding="utf-8"?>
<!-- Generator: Adobe Illustrator 24.0.3, SVG Export Plug-In . SVG Version: 6.00 Build 0)  -->
<svg version="1.1" id="Layer_1" xmlns="http://www.w3.org/2000/svg" xmlns:xlink="http://www.w3.org/1999/xlink" x="0px" y="0px"
	 viewBox="0 0 80 120" style="enable-background:new 0 0 80 120;" xml:space="preserve">
<style type="text/css">
	.st0{fill:#FFD02F;}
	.st1{opacity:0.2;}
	.st2{fill:#3D3D3D;}
	.st3{fill:#FFFFFF;}
	.st4{fill:#050039;}
</style>
<title>facequestion</title>
<path class="st0" d="M76.6,13.7v91.7c0,6.5-5.2,11.7-11.7,11.7H13.7C7.3,117,2,111.8,2,105.3V13.7C2,7.2,7.3,2,13.7,2H65
	C71.4,2,76.6,7.2,76.6,13.7z"/>
<g class="st1">
	<g>
		<path class="st2" d="M37,67.7c-0.3-6.6,4.5-7.1,5.5-10.9v0c0.4-2.9-1.5-4.4-3.8-4.4c-1.9,0-3.5,1.4-3.8,3.3c0,0,0,0,0,0h-3.4
			c0,0,0,0,0,0v0c0.2-4.6,3.1-6.8,7.1-6.8c3.8-0.1,7.1,2.1,7.6,5.3c0.1,0.8,0.2,1.5,0.1,2.3c-0.6,4.6-5.6,5.3-5.5,11.2c0,0,0,0,0,0
			c0,0,0,0,0,0L37,67.7C37,67.8,37,67.7,37,67.7z M36.7,72.4c0-1.2,1-2.1,2.2-2.1c0,0,0.1,0,0.1,0c1.2,0,2.2,1,2.3,2.2
			c0,0.1,0,0.1,0,0.2c-0.1,1.1-1.1,1.9-2.2,1.8C37.8,74.6,36.8,73.6,36.7,72.4C36.7,72.4,36.7,72.4,36.7,72.4L36.7,72.4z"/>
		<path class="st2" d="M39,74.8c-1.4,0.1-2.5-0.9-2.6-2.3c0,0,0-0.1,0-0.1c0-1.3,1.1-2.4,2.5-2.4c0,0,0.1,0,0.1,0h0
			c0.7,0,1.4,0.3,1.9,0.9c0.5,0.5,0.7,1.2,0.6,1.9C41.4,73.9,40.3,74.8,39,74.8z M39,70.5L39,70.5c-1-0.1-1.9,0.7-2,1.7
			c0,0,0,0.1,0,0.1c0,1,0.9,1.9,2,1.8c0,0,0.1,0,0.1,0c1,0.1,1.8-0.6,2-1.6c0.1-0.5-0.1-1-0.5-1.4C40.1,70.8,39.6,70.5,39,70.5z
			 M41,68H37c-0.2,0-0.3-0.1-0.3-0.3l0,0c-0.2-4.1,1.6-6,3.2-7.6c1-1,1.9-2,2.3-3.4c0.4-1.8-0.7-3.5-2.5-3.9c-0.3-0.1-0.7-0.1-1-0.1
			c-1.8,0-3.3,1.3-3.5,3c0,0.1-0.1,0.3-0.3,0.3h-3.4c-0.2,0-0.3-0.1-0.3-0.3c0.2-4.5,2.9-7.1,7.4-7.1c4-0.1,7.4,2.2,7.9,5.6
			c0.1,0.8,0.2,1.6,0.1,2.4c-0.3,2.2-1.5,3.5-2.7,4.8c-1.4,1.6-2.9,3.2-2.8,6.3C41.3,67.9,41.2,68,41,68C41,68,41,68,41,68z
			 M37.3,67.7L37.3,67.7z M37.3,67.5h3.4c0-3.1,1.5-4.8,2.9-6.4c1.2-1.3,2.3-2.5,2.5-4.5c0.1-0.7,0.1-1.5-0.1-2.2
			c-0.5-3.1-3.6-5.2-7.3-5.1c-4.1,0-6.6,2.3-6.8,6.3h2.8c0.4-1.9,2.1-3.3,4-3.3c2.1-0.2,4,1.5,4.1,3.6c0,0.4,0,0.8-0.1,1.1
			c-0.4,1.6-1.4,2.6-2.4,3.7C38.8,62.1,37.2,63.8,37.3,67.5z"/>
	</g>
</g>
<path class="st3" d="M13.3,20.9c-0.2-3.6,2.5-3.9,3-5.9c0.2-1-0.4-2.1-1.5-2.3c-0.2,0-0.4-0.1-0.6,0c-1,0-1.9,0.8-2.1,1.8h-1.8
	c0.1-2.5,1.7-3.7,3.9-3.7c2.1-0.1,3.9,1.1,4.2,2.9c0.1,0.4,0.1,0.8,0,1.2c-0.3,2.5-3,2.9-3,6.1L13.3,20.9z M13.1,23.7
	c0-0.6,0.5-1.2,1.2-1.2c0,0,0,0,0.1,0c0.6,0,1.2,0.4,1.2,1.1c0,0.6-0.4,1.2-1.1,1.2c0,0-0.1,0-0.1,0C13.7,24.9,13.1,24.4,13.1,23.7
	C13.1,23.8,13.1,23.7,13.1,23.7L13.1,23.7z"/>
<path class="st3" d="M64.6,105.8c-0.2-3.6,2.5-3.9,3-5.9c0.2-1-0.4-2.1-1.5-2.3c-0.2,0-0.4-0.1-0.6,0c-1,0-1.9,0.8-2.1,1.8h-1.8
	c0.1-2.5,1.7-3.7,3.9-3.7c2.1-0.1,3.9,1.1,4.2,2.9c0.1,0.4,0.1,0.8,0,1.2c-0.3,2.5-3,2.9-3,6.1L64.6,105.8z M64.4,108.6
	c0-0.6,0.5-1.2,1.2-1.2c0,0,0,0,0.1,0c0.6,0,1.2,0.4,1.2,1.1s-0.4,1.2-1.1,1.2c0,0-0.1,0-0.1,0C65,109.8,64.5,109.3,64.4,108.6
	C64.4,108.6,64.4,108.6,64.4,108.6L64.4,108.6z"/>
<g>
	<path class="st3" d="M70,5c2.8,0,5,2.2,5,5v100c0,2.8-2.2,5-5,5H10c-2.8,0-5-2.2-5-5V10c0-2.8,2.2-5,5-5H70 M70,0H10
		C4.5,0,0,4.5,0,10v100c0,5.5,4.5,10,10,10c0,0,0,0,0,0h60c5.5,0,10-4.5,10-10V10C80,4.5,75.5,0,70,0z"/>
	<path class="st4" d="M70,2c4.4,0,8,3.6,8,8v100c0,4.4-3.6,8-8,8H10c-4.4,0-8-3.6-8-8V10c0-4.4,3.6-8,8-8H70 M70,0H10
		C4.5,0,0,4.5,0,10v100c0,5.5,4.5,10,10,10h60c5.5,0,10-4.5,10-10V10C80,4.5,75.5,0,70,0z"/>
</g>
<g>
	<path class="st3" d="M39.1,65.9c-0.3-6.6,4.5-7.1,5.5-10.9l0,0c0.4-2.9-1.5-4.4-3.8-4.4c-1.9,0-3.5,1.4-3.8,3.3c0,0,0,0,0,0h-3.4
		c0,0,0,0,0,0c0,0,0,0,0,0c0.2-4.6,3.1-6.8,7.1-6.8c3.8-0.1,7.1,2.1,7.6,5.3c0.1,0.8,0.2,1.5,0.1,2.3c-0.6,4.6-5.6,5.3-5.5,11.2
		c0,0,0,0,0,0c0,0,0,0,0,0L39.1,65.9C39.1,65.9,39.1,65.9,39.1,65.9z M38.8,70.5c0-1.2,1-2.1,2.2-2.1c0,0,0.1,0,0.1,0
		c1.2,0,2.2,1,2.3,2.2c0,0.1,0,0.1,0,0.2c-0.1,1.1-1.1,1.9-2.2,1.8C39.9,72.7,38.9,71.8,38.8,70.5C38.8,70.6,38.8,70.6,38.8,70.5
		L38.8,70.5z"/>
	<path class="st4" d="M41.1,73c-1.4,0.1-2.5-0.9-2.6-2.3c0,0,0-0.1,0-0.1c0-1.3,1.1-2.4,2.5-2.4c0,0,0.1,0,0.1,0h0
		c0.7,0,1.4,0.3,1.9,0.9c0.5,0.5,0.7,1.2,0.6,1.9C43.5,72.1,42.4,73,41.1,73z M41.1,68.7L41.1,68.7c-1-0.1-1.9,0.7-2,1.7
		c0,0,0,0.1,0,0.1c0,1,0.9,1.9,2,1.8c0,0,0.1,0,0.1,0c1,0.1,1.8-0.6,2-1.6c0.1-0.5-0.1-1-0.5-1.4C42.2,69,41.7,68.7,41.1,68.7z
		 M43.1,66.2h-3.9c-0.2,0-0.3-0.1-0.3-0.3l0,0c-0.2-4.1,1.6-6,3.2-7.6c1-1,1.9-2,2.3-3.4c0.4-1.8-0.7-3.5-2.5-3.9
		c-0.3-0.1-0.7-0.1-1-0.1c-1.8,0-3.3,1.3-3.5,3c0,0.1-0.1,0.3-0.3,0.3h-3.4c-0.2,0-0.3-0.1-0.3-0.3c0.2-4.5,2.9-7.1,7.4-7.1
		c4-0.1,7.4,2.2,7.9,5.6c0.1,0.8,0.2,1.6,0.1,2.4c-0.3,2.2-1.5,3.5-2.7,4.8c-1.4,1.6-2.9,3.2-2.8,6.3C43.4,66.1,43.2,66.2,43.1,66.2
		C43.1,66.2,43.1,66.2,43.1,66.2L43.1,66.2z M39.4,65.9L39.4,65.9z M39.4,65.6h3.4c0-3.1,1.5-4.8,2.9-6.4c1.2-1.3,2.3-2.5,2.5-4.5
		c0.1-0.7,0.1-1.5-0.1-2.2c-0.5-3.1-3.6-5.2-7.3-5.1c-4.1,0-6.6,2.3-6.8,6.3h2.8c0.4-1.9,2.1-3.3,4-3.3c2.1-0.2,4,1.5,4.1,3.6
		c0,0.4,0,0.8-0.1,1.1c-0.4,1.6-1.4,2.6-2.4,3.7C40.9,60.3,39.3,61.9,39.4,65.6L39.4,65.6z"/>
</g>
</svg>
