<?xml version="1.0" encoding="utf-8"?>
<!-- Generator: Adobe Illustrator 24.0.3, SVG Export Plug-In . SVG Version: 6.00 Build 0)  -->
<svg version="1.1" id="Layer_1" xmlns="http://www.w3.org/2000/svg" xmlns:xlink="http://www.w3.org/1999/xlink" x="0px" y="0px"
	 viewBox="0 0 80 120" style="enable-background:new 0 0 80 120;" xml:space="preserve">
<style type="text/css">
	.st0{fill:#FF6474;}
	.st1{opacity:0.2;fill:#3D3D3D;enable-background:new    ;}
	.st2{fill:#FFFFFF;}
	.st3{fill:#050039;}
	.st4{fill:#FFFFFF;stroke:#FFFFFF;stroke-width:0.75;stroke-miterlimit:10;}
</style>
<title>faceinfinity</title>
<path class="st0" d="M76.6,13.7v91.7c0,6.5-5.2,11.7-11.7,11.7H13.7C7.2,117,2,111.8,2,105.4V13.7C2,7.2,7.2,2,13.7,2h51.2
	C71.4,2,76.6,7.2,76.6,13.7z"/>
<path class="st1" d="M58.5,64.9c0.1,3.1-1,6.1-3,8.4c-2.1,2.3-5,3.6-8.1,3.6c-8.7,0-12.5-10.7-12.8-11.4c-0.1-0.3-3.4-9.1-9.5-9.1
	c-4.4,0-7.6,3.6-7.6,8.5s3.2,8.5,7.6,8.5c3.2,0,5.6-2.3,7.1-4.5c0.4,1,3.2-1.1,4,0.1c-1.5,2.9-7.1,7.9-11.1,7.9
	c-3.1,0-6.1-1.3-8.1-3.6c-4-4.9-4-11.9,0-16.8c2.1-2.3,5-3.6,8.1-3.6c8.7,0,12.6,11,12.8,11.4l0,0c0,0.1,3.1,9.1,9.5,9.1
	c4.4,0,7.6-3.6,7.6-8.5s-3.2-8.5-7.6-8.5c-3.1,0-5.5,2.3-7.1,4.6c-0.5-1.1-1.2-2.3-1.9-3.3c2.1-2.5,5-4.8,9-4.8
	c3.1,0,6.1,1.3,8.1,3.6C57.4,58.8,58.5,61.8,58.5,64.9z"/>
<g>
	<path class="st2" d="M70,5c2.8,0,5,2.2,5,5v100c0,2.8-2.2,5-5,5H10c-2.8,0-5-2.2-5-5V10c0-2.8,2.2-5,5-5H70 M70,0H10
		C4.5,0,0,4.5,0,10v100c0,5.5,4.5,10,10,10c0,0,0,0,0,0h60c5.5,0,10-4.5,10-10V10C80,4.5,75.5,0,70,0z"/>
	<path class="st3" d="M70,2c4.4,0,8,3.6,8,8v100c0,4.4-3.6,8-8,8H10c-4.4,0-8-3.6-8-8V10c0-4.4,3.6-8,8-8H70 M70,0H10
		C4.5,0,0,4.5,0,10v100c0,5.5,4.5,10,10,10h60c5.5,0,10-4.5,10-10V10C80,4.5,75.5,0,70,0z"/>
</g>
<g>
	<path class="st2" d="M60.1,62c0.1,3.1-1,6.1-3,8.4c-2.1,2.3-5,3.6-8.1,3.6c-8.7,0-12.5-10.7-12.8-11.4c-0.1-0.3-3.4-9.1-9.5-9.1
		c-4.4,0-7.6,3.6-7.6,8.5s3.2,8.5,7.6,8.5c3.2,0,5.6-2.3,7.1-4.5c0.4,1,0.5,2,1.3,3.2c-2.1,2.5-4.5,4.8-8.4,4.8
		c-3.1,0-6.1-1.3-8.1-3.6c-4-4.9-4-11.9,0-16.8c2.1-2.3,5-3.6,8.1-3.6c8.7,0,12.6,11,12.8,11.4l0,0c0,0.1,3.1,9.1,9.5,9.1
		c4.4,0,7.6-3.6,7.6-8.5s-3.2-8.5-7.6-8.5c-3.1,0-5.5,2.3-7.1,4.6c-0.5-1.1-1.2-2.3-1.9-3.3c2.1-2.5,5-4.8,9-4.8
		c3.1,0,6.1,1.3,8.1,3.6C59.1,56,60.2,58.9,60.1,62z"/>
	<path class="st3" d="M49,74.3c-9,0-12.9-11.2-13.1-11.7c-0.1-0.4-3.3-8.9-9.2-8.9c-4.2,0-7.3,3.4-7.3,8.2s3.1,8.2,7.3,8.2
		c2.5,0,4.8-1.5,6.9-4.4l0.3-0.5l0.2,0.5c0.2,0.4,0.3,0.8,0.4,1.2c0.2,0.7,0.5,1.4,0.9,2l0.1,0.2l-0.2,0.2c-2.1,2.6-4.6,4.9-8.7,4.9
		c-3.2,0-6.3-1.3-8.4-3.7c-4.1-5-4.1-12.2,0-17.2c2.1-2.4,5.2-3.7,8.4-3.7c8.9,0,12.9,11.2,13.1,11.6c0,0.1,3.1,8.9,9.2,8.9
		c4.2,0,7.3-3.4,7.3-8.2s-3.1-8.2-7.3-8.2c-3.1,0-5.4,2.4-6.8,4.5l-0.3,0.5l-0.2-0.5C41,57.1,40.4,56,39.7,55l-0.1-0.2l0.2-0.2
		c2.7-3.3,5.8-4.9,9.2-4.9c3.2,0,6.3,1.3,8.4,3.7c4.1,5,4.1,12.2,0,17.2C55.2,73,52.2,74.4,49,74.3z M26.7,53.2
		c6.3,0,9.7,8.9,9.8,9.3c0.2,0.5,3.9,11.2,12.5,11.2c3,0,5.9-1.2,7.9-3.5c3.9-4.8,3.9-11.6,0-16.4c-2-2.2-4.9-3.5-7.9-3.5
		c-3.2,0-6,1.5-8.6,4.5c0.5,0.9,1,1.7,1.5,2.6c2.1-2.8,4.5-4.3,7.1-4.3c4.6,0,8,3.7,8,8.9s-3.4,8.9-8,8.9c-6.6,0-9.8-9.2-9.8-9.3
		c-0.2-0.5-4-11.2-12.5-11.2c-3,0-5.9,1.2-7.9,3.5c-3.9,4.8-3.9,11.6,0,16.4c2,2.2,4.9,3.5,7.9,3.5c3.9,0,6.2-2.3,8-4.5
		c-0.4-0.6-0.6-1.3-0.8-2c-0.1-0.2-0.1-0.4-0.2-0.5c-2.1,2.7-4.5,4.2-7,4.2c-4.6,0-8-3.7-8-8.9S22.1,53.2,26.7,53.2z"/>
</g>
<g>
	<path class="st2" d="M62.3,59.5c0.1,3.1-1,6.1-3,8.4c-2.1,2.3-5,3.6-8.1,3.6c-8.7,0-12.5-10.7-12.8-11.4C38.3,59.8,35,51,28.9,51
		c-4.4,0-7.6,3.6-7.6,8.5s3.2,8.5,7.6,8.5c3-0.1,5.7-1.6,7.3-4.2c0.5,1,1,2,1.7,2.9c-2.1,2.5-5,4.7-9,4.7c-3.1,0-6.1-1.3-8.1-3.6
		c-4-4.9-4-11.9,0-16.8c2.1-2.3,5-3.6,8.1-3.6c8.7,0,12.6,11,12.8,11.4l0,0c0,0.1,3.1,9.1,9.5,9.1c4.4,0,7.6-3.6,7.6-8.5
		S55.6,51,51.2,51c-3.1,0-5.5,2.3-7.1,4.6c-0.5-1.1-1.2-2.3-1.9-3.3c2.1-2.5,5-4.8,9-4.8c3.1,0,6.1,1.3,8.1,3.6
		C61.3,53.5,62.3,56.4,62.3,59.5z"/>
	<path class="st3" d="M51.2,71.8c-9,0-12.9-11.2-13.1-11.7c-0.1-0.4-3.3-8.9-9.2-8.9c-4.2,0-7.3,3.4-7.3,8.2s3.1,8.2,7.3,8.2
		c2.7,0,5.3-1.5,7-4l0.3-0.5l0.2,0.5c0.5,1,1,2,1.6,2.9l0.1,0.2L38.1,67c-2.6,3.2-5.8,4.8-9.2,4.8c-3.2,0-6.3-1.3-8.4-3.7
		c-4.1-5-4.1-12.2,0-17.2c2.1-2.4,5.2-3.7,8.4-3.7c8.9,0,12.9,11.2,13.1,11.6c0,0.1,3.1,8.9,9.2,8.9c4.2,0,7.3-3.4,7.3-8.2
		s-3.1-8.2-7.3-8.2c-3.1,0-5.4,2.4-6.8,4.5L44,56.3l-0.2-0.5c-0.5-1.1-1.1-2.2-1.8-3.3l-0.1-0.2l0.2-0.2c2.7-3.3,5.8-4.9,9.2-4.9
		c3.2,0,6.3,1.3,8.4,3.7c4.1,5,4.1,12.2,0,17.2C57.4,70.5,54.4,71.9,51.2,71.8z M28.9,50.7c6.3,0,9.7,8.9,9.8,9.3
		c0.2,0.5,3.9,11.2,12.5,11.2c3,0,5.9-1.2,7.9-3.5c3.9-4.8,3.9-11.6,0-16.4c-2-2.2-4.9-3.5-7.9-3.5c-3.2,0-6,1.5-8.6,4.5
		c0.5,0.9,1,1.7,1.5,2.6c2.1-2.8,4.5-4.3,7.1-4.3c4.6,0,8,3.7,8,8.9s-3.4,8.9-8,8.9c-6.6,0-9.8-9.2-9.8-9.3
		c-0.2-0.5-4-11.2-12.5-11.2c-3,0-5.9,1.2-7.9,3.5c-3.9,4.8-3.9,11.6,0,16.4c2,2.2,4.9,3.5,7.9,3.5c3.2,0,6.1-1.5,8.6-4.4
		c-0.5-0.7-0.9-1.5-1.3-2.3c-1.7,2.3-4.4,3.8-7.3,3.8c-4.6,0-8-3.7-8-8.9S24.3,50.7,28.9,50.7z"/>
</g>
<g>
	<path class="st2" d="M64.8,57c0.1,3.1-1,6.1-3,8.4c-2.1,2.3-5,3.6-8.1,3.6c-8.7,0-12.5-10.7-12.8-11.4c-0.1-0.3-3.4-9.1-9.5-9.1
		c-4.4,0-7.6,3.6-7.6,8.5s3.2,9,7.6,8.5c4.8-0.5,8.2-4.9,9.8-7.1c0.5,1.2,1.1,2.3,1.7,3.4c-2.1,2.5-5.8,6.7-11.5,7.2
		c-3.2,0.3-6.1-1.3-8.1-3.6c-4-4.9-4-11.9,0-16.8c2.1-2.3,5-3.6,8.1-3.6c8.7,0,12.6,11,12.8,11.4l0,0c0,0.1,3.1,9.1,9.5,9.1
		c4.4,0,7.6-3.6,7.6-8.5s-3.2-8.7-7.6-8.5c-4.3,0.1-8.1,5-9.7,7.3c-0.5-1.3-1.2-2.5-1.9-3.6c2.1-2.5,5.9-7.1,11.6-7.2
		c3.1-0.1,6.1,1.2,8.1,3.6C63.8,50.9,64.9,53.9,64.8,57z"/>
	<path class="st3" d="M30.7,69.4c-3-0.1-5.7-1.5-7.6-3.7c-4.1-5-4.1-12.2,0-17.2c2.1-2.4,5.2-3.7,8.4-3.7c5.1,0,8.6,3.7,10.7,6.9
		c2.1-2.6,5.9-6.8,11.5-6.9c3.2-0.1,6.3,1.3,8.4,3.7c4.1,5,4.1,12.2,0,17.2c-2.1,2.4-5.2,3.7-8.4,3.7c-5.2,0-8.7-3.7-10.8-7
		c-1.7,2-5.7,6.4-11.4,7C31.2,69.4,30.9,69.4,30.7,69.4z M31.4,45.3c-3,0-5.9,1.2-7.9,3.5c-3.9,4.8-3.9,11.6,0,16.4
		c2.2,2.5,5,3.8,7.8,3.5c5.1-0.5,8.6-3.9,11.1-6.9c-0.4-0.6-0.7-1.2-1-1.9c-0.1-0.3-0.3-0.6-0.4-0.8c-2.9,4.1-6.3,6.4-9.7,6.8
		c-1.9,0.2-3.7-0.4-5.1-1.6c-1.9-1.9-3-4.5-2.9-7.2c0-5.1,3.4-8.9,8-8.9c6.3,0,9.7,8.9,9.8,9.3c0,0.1,0.1,0.4,0.3,0.8
		c0.1,0.2,0.2,0.4,0.3,0.7c0.1,0.2,0.2,0.5,0.3,0.7c1.6,3.3,5.3,9,11.5,9c3,0,5.9-1.2,7.9-3.5c3.9-4.8,3.9-11.6,0-16.4
		c-2-2.3-4.9-3.5-7.9-3.5c-5.5,0.1-9.1,4.4-11.2,6.9l0,0c0.1,0.2,0.3,0.4,0.4,0.7c0.5,0.9,0.9,1.7,1.1,2.3c2.3-3.2,5.8-6.9,9.6-7
		c2-0.1,3.9,0.7,5.3,2.1c1.8,1.8,2.7,4.3,2.6,6.8c0,5.1-3.4,8.9-8,8.9c-6.6,0-9.8-9.2-9.8-9.3c0-0.1-0.1-0.3-0.2-0.6
		c-0.1-0.2-0.2-0.4-0.3-0.6c-0.4-1-1-2-1.6-3l-0.1-0.2l0,0C39.7,49,36.3,45.3,31.4,45.3z M31.4,48.8c-4.2,0-7.3,3.4-7.3,8.2
		C24,59.5,25,62,26.8,63.7c1.2,1.1,2.9,1.7,4.6,1.5c3.3-0.4,6.6-2.7,9.5-6.8c-0.1-0.4-0.2-0.6-0.2-0.7
		C40.5,57.3,37.3,48.8,31.4,48.8z M44.3,55.9c0.1,0.2,0.2,0.4,0.2,0.4c0,0.1,3.1,8.9,9.2,8.9c4.2,0,7.3-3.4,7.3-8.2
		c0.1-2.4-0.8-4.6-2.4-6.3c-1.3-1.3-3.1-1.9-4.9-1.9C50,48.9,46.6,52.7,44.3,55.9z"/>
</g>
<path class="st4" d="M24.7,15.9c0,1.1-0.4,2.1-1,2.9c-0.7,0.8-1.7,1.3-2.8,1.2c-3,0-4.4-3.7-4.4-4c0-0.1-1.2-3.2-3.3-3.2
	c-1.5,0-2.7,1.2-2.7,3s1.1,3.1,2.7,3c1.7-0.2,2.9-1.7,3.4-2.5c0.2,0.4,0.4,0.8,0.6,1.2c-0.7,0.9-2,2.3-4,2.5
	c-1.1,0.1-2.1-0.4-2.8-1.2c-1.4-1.7-1.4-4.1,0-5.8c0.7-0.8,1.7-1.3,2.8-1.2c3,0,4.4,3.8,4.4,4l0,0c0,0,1.1,3.2,3.3,3.2
	c1.5,0,2.7-1.2,2.7-3s-1.1-3-2.7-3c-1.5,0-2.8,1.8-3.4,2.6c-0.2-0.4-0.4-0.9-0.7-1.3c0.7-0.9,2-2.5,4-2.5c1.1,0,2.1,0.4,2.8,1.2
	C24.3,13.8,24.7,14.8,24.7,15.9z"/>
<path class="st4" d="M70.4,104.3c0,1.1-0.4,2.1-1,2.9c-0.7,0.8-1.7,1.3-2.8,1.2c-3,0-4.4-3.7-4.4-4c0-0.1-1.2-3.2-3.3-3.2
	c-1.5,0-2.7,1.2-2.7,3c0,1.7,1.1,3.1,2.7,3c1.7-0.2,2.9-1.7,3.4-2.5c0.2,0.4,0.4,0.8,0.6,1.2c-0.7,0.9-2,2.3-4,2.5
	c-1.1,0.1-2.1-0.4-2.8-1.2c-1.4-1.7-1.4-4.1,0-5.8c0.7-0.8,1.7-1.3,2.8-1.2c3,0,4.4,3.8,4.4,4l0,0c0,0,1.1,3.2,3.3,3.2
	c1.5,0,2.7-1.2,2.7-3s-1.1-3-2.7-3c-1.5,0-2.8,1.8-3.4,2.6c-0.2-0.4-0.4-0.9-0.6-1.3c0.7-0.9,2-2.5,4-2.5c1.1,0,2.1,0.4,2.8,1.2
	C70,102.2,70.4,103.2,70.4,104.3z"/>
</svg>
