<svg id="Layer_1" data-name="Layer 1" xmlns="http://www.w3.org/2000/svg" xmlns:xlink="http://www.w3.org/1999/xlink"
  viewBox="0 0 80 120">
  <defs>
    <style>
      .cls-1 {
        fill: none;
      }

      .cls-2 {
        clip-path: url(#clip-path);
      }

      .cls-3 {
        fill: #3e52d8;
      }

      .cls-4 {
        fill: #fff9df;
      }

      .cls-5 {
        fill: #050039;
      }

      .cls-6 {
        fill: #ffd02f;
      }

      .cls-7 {
        fill: #ff6474;
      }
    </style>
    <clipPath id="clip-path">
      <rect class="cls-1" x="-0.0111" width="80" height="120.0198" rx="9.9961" ry="9.9961" />
    </clipPath>
  </defs>
  <title>back</title>
  <g class="cls-2">
    <rect class="cls-3" x="-0.0102" y="-0.019" width="40.0198" height="40.0198" />
    <rect class="cls-1" x="-0.0097" y="-0.019" width="40.0198" height="40.0198" />
    <path class="cls-4" d="M20-.019a20.01,20.01,0,0,0,20.01,20.01V-.019Z" />
    <path class="cls-5"
      d="M.2874,19.6763c-.1-.0006-.1972.0122-.2971.013V40.0008H20.3139l.0009-.017A20.1679,20.1679,0,0,0,.2874,19.6763Z" />
    <path class="cls-6" d="M-.01,27.4416H-.01V40.0008H12.5491A12.5589,12.5589,0,0,0-.01,27.4416Z" />
    <rect class="cls-6" x="-0.0099" y="80.0198" width="40.0198" height="40.019" />
    <polygon class="cls-3" points="20 80.02 0.011 80.02 10.006 100.029 20 80.02" />
    <polygon class="cls-3" points="39.989 80.02 20 80.02 29.995 100.029 39.989 80.02" />
    <polygon class="cls-4" points="39.989 120.039 29.995 100.029 20 120.039 39.989 120.039" />
    <polygon class="cls-4" points="0.011 120.039 20 120.039 10.006 100.029 0.011 120.039" />
    <polygon class="cls-7" points="20 120.039 29.995 100.029 20 80.02 10.006 100.029 20 120.039" />
    <rect class="cls-4" y="40.0008" width="40.0001" height="40.019" />
    <path class="cls-7" d="M-.01,44.06S1.6455,61.4341,20,58.3951Z" />
    <path class="cls-5" d="M-.01,44.06S16.9622,40.031,20,58.3946Z" />
    <path class="cls-7" d="M40.01,44.06S38.3544,61.4336,20,58.3946Z" />
    <path class="cls-5" d="M40.01,44.06S23.0378,40.031,20.0005,58.3946Z" />
    <path class="cls-7" d="M-.01,60.44S1.6455,77.8142,20,74.7752Z" />
    <path class="cls-5" d="M-.01,60.44S16.962,56.4116,20,74.7752Z" />
    <path class="cls-7" d="M40.01,60.44S38.3544,77.8142,20,74.7752Z" />
    <path class="cls-5" d="M40.01,60.44S23.0378,56.4116,20.0005,74.7752Z" />
    <rect class="cls-5" x="19.6344" y="40" width="0.7312" height="40.0193" />
    <g>
      <rect class="cls-7" x="40.0099" y="40" width="40.0193" height="40.0198" />
      <path class="cls-5" d="M40.1079,40.0976S38.7381,59.93,59.94,59.93Z" />
      <path class="cls-4" d="M40.1074,40.0976s19.8313-1.37,19.8317,19.8323Z" />
      <rect class="cls-1" x="40.0099" y="40" width="20.0094" height="20.0096" />
      <path class="cls-5" d="M79.9312,40.0976S81.3015,59.93,60.1,59.93Z" />
      <path class="cls-4" d="M79.9321,40.0976S60.1009,38.7281,60.1,59.93Z" />
      <rect class="cls-1" x="60.0198" y="40" width="20.0099" height="20.0096" />
      <path class="cls-5" d="M79.9312,79.9217S81.3012,60.0894,60.1,60.0894Z" />
      <path class="cls-4" d="M79.9321,79.9217S60.1009,81.2912,60.1,60.0894Z" />
      <rect class="cls-1" x="60.0198" y="60.0097" width="20.0099" height="20.0097" />
      <path class="cls-5" d="M40.1079,79.9217s-1.37-19.8323,19.832-19.8323Z" />
      <path class="cls-4" d="M40.1074,79.9217s19.8313,1.37,19.8317-19.8323Z" />
      <rect class="cls-1" x="40.0099" y="60.0097" width="20.0094" height="20.0097" />
    </g>
    <g>
      <rect class="cls-3" x="40.0099" y="80.0198" width="40.0198" height="40.0198" />
      <polyline class="cls-7" points="40.01 80.02 40.01 120.039 80.03 120.039" />
      <polyline class="cls-4" points="46.68 86.69 46.68 113.369 73.36 113.369" />
      <polyline class="cls-5" points="51.267 91.276 51.267 108.784 68.774 108.784" />
    </g>
    <rect class="cls-4" x="40.0099" y="-0.0197" width="40.0198" height="40.0184" />
    <path class="cls-7" d="M80.0287,19.99a20.0093,20.0093,0,1,1,0-.0014Z" />
    <rect class="cls-6" x="40.0099" y="-0.0197" width="20.0101" height="40.0184" />
    <path class="cls-5" d="M49.8834.045S71.2132,18.6733,49.8258,40Z" />
    <path class="cls-3" d="M49.8834.045s-21.3823,18.5673-.0562,39.9541Z" />
  </g>
</svg>