<svg id="Layer_1" data-name="Layer 1" xmlns="http://www.w3.org/2000/svg" viewBox="0 0 120 180">
  <defs>
    <style>
      .cls-1 {
        fill: #fff9df;
      }

      .cls-2 {
        fill: #ffd02f;
      }

      .cls-3 {
        fill: #3d3d3d;
        opacity: 0.2;
      }

      .cls-4 {
        fill: #fff;
      }

      .cls-5 {
        fill: #050039;
      }

      .cls-6 {
        fill: none;
      }
    </style>
  </defs>
  <title>facecoffee</title>
  <rect class="cls-1" x="-26.3674" y="33.5362" width="172.5628" height="111.5053" rx="9.1797" ry="9.1797" transform="translate(149.2028 29.3747) rotate(90)"/>
  <path class="cls-2" d="M92.8836,70.2456c1.466,22.8878,57.1976,14.482-34.7965,49.3025-87.6692,33.1834-35.2878-16.3269-36.7538-39.2148S-12.7713,54.9564,52.7782,36.6639C113.2574,19.7863,91.4176,47.3577,92.8836,70.2456Z"/>
  <polyline class="cls-3" points="38.667 139.083 34.286 121.052 32.644 121.052 28.55 92.392 29.5 90 28.5 84.583 25.25 83.25 23.73 72.796 31.109 71.921 37.25 68.75 50.557 64.244 62.839 64.244 79.217 64.244 79.11 121.052 76.944 138.232"/>
  <g>
    <polygon class="cls-4" points="67.572 78.681 55.289 78.681 34.306 78.681 41.471 135.489 55.289 135.489 67.572 135.489 81.39 135.489 88.555 78.681 67.572 78.681"/>
    <path class="cls-5" d="M81.83,135.9893H41.03l-.0557-.4375-7.2358-57.37H89.1221Zm-39.919-1H80.9492l7.0381-55.8077H34.8726Z"/>
  </g>
  <g>
    <polygon class="cls-4" points="67.572 87.382 55.289 87.382 33.282 87.382 37.377 116.041 55.289 116.041 67.572 116.041 85.484 116.041 89.579 87.382 67.572 87.382"/>
    <path class="cls-5" d="M85.918,116.541H36.9429L32.7056,86.8818H90.1543Zm-48.1079-1H85.0508L89.002,87.8818H33.8589Z"/>
  </g>
  <g>
    <polygon class="cls-4" points="67.572 66.91 55.289 66.91 28.164 66.91 28.164 78.681 55.289 78.681 67.572 78.681 94.696 78.681 94.696 66.91 67.572 66.91"/>
    <path class="cls-5" d="M95.1963,79.1816H27.6646V66.41H95.1963Zm-66.5317-1H94.1963V67.41H28.6646Z"/>
  </g>
  <g>
    <polygon class="cls-4" points="83.949 59.233 67.572 59.233 55.289 59.233 38.912 59.233 35.841 66.91 55.289 66.91 67.572 66.91 87.02 66.91 83.949 59.233"/>
    <path class="cls-5" d="M87.7578,67.41H35.103l3.4707-8.6768H84.2881Zm-51.1782-1H86.2812L83.61,59.7334h-44.36Z"/>
  </g>
  <path class="cls-6" d="M14.9941,0h90.0142A14.9917,14.9917,0,0,1,120,14.9917V165.0058A14.9942,14.9942,0,0,1,105.0058,180H14.9941A14.9942,14.9942,0,0,1,0,165.0058V14.9942A14.9942,14.9942,0,0,1,14.9941,0Z"/>
  <path class="cls-4" d="M105.0059,7.5221A7.5014,7.5014,0,0,1,112.5,15.0138V165.0305a7.5013,7.5013,0,0,1-7.4941,7.4916H14.9941A7.5013,7.5013,0,0,1,7.5,165.0305V15.0138a7.5014,7.5014,0,0,1,7.4941-7.4917h90.0118m0-7.5H14.9941A14.9929,14.9929,0,0,0,0,15.0138V165.0305a14.9929,14.9929,0,0,0,14.9941,14.9916h90.0118A14.9929,14.9929,0,0,0,120,165.0305V15.0138A14.9929,14.9929,0,0,0,105.0059.0222Z"/>
  <path class="cls-5" d="M105.0059,3.0074A12.0065,12.0065,0,0,1,117,14.999V165.0157a12.0066,12.0066,0,0,1-11.9941,11.9917H14.9941A12.0066,12.0066,0,0,1,3,165.0157V14.999A12.0065,12.0065,0,0,1,14.9941,3.0074h90.0118m0-3H14.9941A14.9929,14.9929,0,0,0,0,14.999V165.0157a14.9929,14.9929,0,0,0,14.9941,14.9917h90.0118A14.9929,14.9929,0,0,0,120,165.0157V14.999A14.9929,14.9929,0,0,0,105.0059.0074Z"/>
  <g>
    <path class="cls-5" d="M103.6555,149.6436a14.9028,14.9028,0,0,1-1.0007,3.1682,10.174,10.174,0,0,1-3.5761,4.5073,4.7983,4.7983,0,0,0-1.9548,2.3608,11.5884,11.5884,0,0,0-.45,4.9848c2.7731.3731,6.02-1.7471,7.7877-5.32C106.3183,155.5926,105.9115,151.5158,103.6555,149.6436Z"/>
    <path class="cls-5" d="M96.0428,159.3034a5.8512,5.8512,0,0,1,2.3357-2.89,9.0652,9.0652,0,0,0,3.2255-4.0559,13.0892,13.0892,0,0,0,.9968-3.3631c-2.972-1.2928-6.9437.8946-8.9705,4.9915-2.0718,4.1875-1.3265,8.7818,1.6646,10.2616.0637.0315.1285.059.1931.0872A12.4427,12.4427,0,0,1,96.0428,159.3034Z"/>
  </g>
  <g>
    <path class="cls-5" d="M66.04,94.69a14.9034,14.9034,0,0,1-1.0007,3.1683,10.174,10.174,0,0,1-3.5761,4.5073,4.7983,4.7983,0,0,0-1.9548,2.3608,11.5869,11.5869,0,0,0-.45,4.9848c2.7731.3731,6.02-1.7471,7.7876-5.32C68.7028,100.6389,68.2961,96.562,66.04,94.69Z"/>
    <path class="cls-5" d="M58.4273,104.35a5.8519,5.8519,0,0,1,2.3358-2.89,9.065,9.065,0,0,0,3.2255-4.056,13.0876,13.0876,0,0,0,.9968-3.363c-2.9721-1.2928-6.9437.8946-8.9705,4.9915-2.0718,4.1875-1.3265,8.7818,1.6646,10.2616.0636.0315.1284.059.1931.0872A12.4441,12.4441,0,0,1,58.4273,104.35Z"/>
  </g>
  <g>
    <path class="cls-5" d="M26.1857,16.3245a14.9028,14.9028,0,0,1-1.0007,3.1682A10.174,10.174,0,0,1,21.6089,24a4.7983,4.7983,0,0,0-1.9548,2.3608,11.5884,11.5884,0,0,0-.45,4.9848c2.7731.3731,6.02-1.7471,7.7877-5.32C28.8485,22.2735,28.4417,18.1967,26.1857,16.3245Z"/>
    <path class="cls-5" d="M18.573,25.9843a5.8512,5.8512,0,0,1,2.3357-2.89,9.0652,9.0652,0,0,0,3.2255-4.0559,13.0892,13.0892,0,0,0,.9968-3.3631c-2.972-1.2928-6.9436.8946-8.9705,4.9915-2.0718,4.1875-1.3265,8.7818,1.6646,10.2616.0637.0315.1285.059.1931.0872A12.4427,12.4427,0,0,1,18.573,25.9843Z"/>
  </g>
</svg>
