<?xml version="1.0" encoding="utf-8"?>
<!-- Generator: Adobe Illustrator 24.0.3, SVG Export Plug-In . SVG Version: 6.00 Build 0)  -->
<svg version="1.1" id="Layer_1" xmlns="http://www.w3.org/2000/svg" xmlns:xlink="http://www.w3.org/1999/xlink" x="0px" y="0px"
	 viewBox="0 0 80 120" style="enable-background:new 0 0 80 120;" xml:space="preserve">
<style type="text/css">
	.st0{fill:#FFF9DF;}
	.st1{fill:#FFD02F;}
	.st2{opacity:0.2;fill:#3D3D3D;enable-background:new    ;}
	.st3{fill:#FFFFFF;}
	.st4{fill:#050039;}
	.st5{fill:none;}
</style>
<title>facecoffee</title>
<path class="st0" d="M77.1,8.1v102.8c0,3.4-2.7,6.1-6.1,6.1H8.9c-3.4,0-6.1-2.7-6.1-6.1V8.1C2.8,4.7,5.5,2,8.9,2H71
	C74.4,2,77.1,4.7,77.1,8.1z"/>
<path class="st1" d="M61.9,46.8c1,15.3,38.1,9.7-23.2,32.9c-58.4,22.1-23.5-10.9-24.5-26.1s-22.7-16.9,21-29.1
	C75.5,13.2,60.9,31.6,61.9,46.8z"/>
<polyline class="st2" points="25.8,92.7 22.9,80.7 21.8,80.7 19,61.6 19.7,60 19,56.4 16.8,55.5 15.8,48.5 20.7,47.9 24.8,45.8 
	33.7,42.8 41.9,42.8 52.8,42.8 52.7,80.7 51.3,92.1 "/>
<g>
	<polygon class="st3" points="45,52.4 36.9,52.4 22.9,52.4 27.6,90.3 36.9,90.3 45,90.3 54.3,90.3 59,52.4 	"/>
	<path class="st4" d="M54.6,90.7H27.4l0-0.3l-4.8-38.2h36.9L54.6,90.7z M27.9,90h26l4.7-37.2H23.2L27.9,90z"/>
</g>
<g>
	<polygon class="st3" points="45,58.2 36.9,58.2 22.2,58.2 24.9,77.4 36.9,77.4 45,77.4 57,77.4 59.7,58.2 	"/>
	<path class="st4" d="M57.3,77.7H24.6l-2.8-19.8h38.3L57.3,77.7z M25.2,77h31.5l2.6-18.4H22.6L25.2,77z"/>
</g>
<g>
	<polygon class="st3" points="45,44.6 36.9,44.6 18.8,44.6 18.8,52.4 36.9,52.4 45,52.4 63.1,52.4 63.1,44.6 	"/>
	<path class="st4" d="M63.5,52.8h-45v-8.5h45V52.8z M19.1,52.1h43.7v-7.2H19.1L19.1,52.1z"/>
</g>
<g>
	<polygon class="st3" points="56,39.5 45,39.5 36.9,39.5 25.9,39.5 23.9,44.6 36.9,44.6 45,44.6 58,44.6 	"/>
	<path class="st4" d="M58.5,44.9H23.4l2.3-5.8h30.5L58.5,44.9z M24.4,44.3h33.1l-1.8-4.5H26.2L24.4,44.3z"/>
</g>
<path class="st5" d="M10,0h60c5.5,0,10,4.5,10,10v100c0,5.5-4.5,10-10,10c0,0,0,0,0,0H10c-5.5,0-10-4.5-10-10V10C0,4.5,4.5,0,10,0z"
	/>
<path class="st3" d="M70,5c2.8,0,5,2.2,5,5v100c0,2.8-2.2,5-5,5H10c-2.8,0-5-2.2-5-5V10c0-2.8,2.2-5,5-5L70,5 M70,0H10
	C4.5,0,0,4.5,0,10c0,0,0,0,0,0v100c0,5.5,4.5,10,10,10h60c5.5,0,10-4.5,10-10V10C80,4.5,75.5,0,70,0L70,0z"/>
<path class="st4" d="M70,2c4.4,0,8,3.6,8,8v100c0,4.4-3.6,8-8,8H10c-4.4,0-8-3.6-8-8V10c0-4.4,3.6-8,8-8H70 M70,0H10
	C4.5,0,0,4.5,0,10v100c0,5.5,4.5,10,10,10h60c5.5,0,10-4.5,10-10V10C80,4.5,75.5,0,70,0z"/>
<g>
	<path class="st4" d="M69.1,99.8c-0.1,0.7-0.4,1.4-0.7,2.1c-0.5,1.2-1.3,2.3-2.4,3c-0.6,0.4-1.1,0.9-1.3,1.6
		c-0.3,1.1-0.4,2.2-0.3,3.3c1.8,0.2,4-1.2,5.2-3.5C70.9,103.7,70.6,101,69.1,99.8z"/>
	<path class="st4" d="M64,106.2c0.3-0.8,0.8-1.5,1.6-1.9c1-0.7,1.7-1.6,2.2-2.7c0.3-0.7,0.5-1.5,0.7-2.2c-2-0.9-4.6,0.6-6,3.3
		c-1.4,2.8-0.9,5.9,1.1,6.8c0,0,0.1,0,0.1,0.1C63.6,108.4,63.7,107.3,64,106.2z"/>
</g>
<g>
	<path class="st4" d="M44,63.1c-0.1,0.7-0.4,1.4-0.7,2.1c-0.5,1.2-1.3,2.3-2.4,3c-0.6,0.4-1.1,0.9-1.3,1.6c-0.3,1.1-0.4,2.2-0.3,3.3
		c1.8,0.2,4-1.2,5.2-3.5C45.8,67.1,45.5,64.4,44,63.1z"/>
	<path class="st4" d="M39,69.6c0.3-0.8,0.8-1.5,1.6-1.9c1-0.7,1.7-1.6,2.2-2.7c0.3-0.7,0.5-1.5,0.7-2.2c-2-0.9-4.6,0.6-6,3.3
		c-1.4,2.8-0.9,5.9,1.1,6.8c0,0,0.1,0,0.1,0.1C38.5,71.8,38.6,70.6,39,69.6z"/>
</g>
<g>
	<path class="st4" d="M17.5,10.9c-0.1,0.7-0.4,1.4-0.7,2.1c-0.5,1.2-1.3,2.3-2.4,3c-0.6,0.4-1.1,0.9-1.3,1.6
		c-0.3,1.1-0.4,2.2-0.3,3.3c1.8,0.2,4-1.2,5.2-3.5C19.2,14.8,19,12.1,17.5,10.9z"/>
	<path class="st4" d="M12.4,17.3c0.3-0.8,0.8-1.5,1.6-1.9c1-0.7,1.7-1.6,2.2-2.7c0.3-0.7,0.5-1.5,0.7-2.2c-2-0.9-4.6,0.6-6,3.3
		c-1.4,2.8-0.9,5.9,1.1,6.8c0,0,0.1,0,0.1,0.1C11.9,19.5,12,18.4,12.4,17.3z"/>
</g>
</svg>
