<svg id="Layer_1" data-name="Layer 1" 
  xmlns="http://www.w3.org/2000/svg" viewBox="0 0 24 24">
  <title>Small_logo</title>
  <path fill="currentColor" d="M23.0049,0h-12.01A.9952.9952,0,0,0,10,.9951V4H.9951A.9952.9952,0,0,0,0,4.9951v18.01A.9952.9952,0,0,0,.9951,24h12.01A.9952.9952,0,0,0,14,23.0049V20h9.0049A.9952.9952,0,0,0,24,19.0049V.9951A.9952.9952,0,0,0,23.0049,0ZM12,22H2V6H12Zm10-4H14V4.9951A.9952.9952,0,0,0,13.0049,4H12V2H22ZM4,9H4A1,1,0,0,1,3,8H3A1,1,0,0,1,4,7H4A1,1,0,0,1,5,8H5A1,1,0,0,1,4,9Zm3,7H7a2,2,0,0,1-2-2H5a2,2,0,0,1,2-2H7a2,2,0,0,1,2,2H9A2,2,0,0,1,7,16Zm3,5h0a1,1,0,0,1-1-1H9a1,1,0,0,1,1-1h0a1,1,0,0,1,1,1h0A1,1,0,0,1,10,21Z"/>
</svg>
